{"glyphs":{"0":{"ha":650,"x_min":39,"x_max":602,"o":"m 84 798 q 122 859 99 830 q 174 911 145 888 q 237 946 203 933 q 308 959 271 959 q 445 921 381 958 q 552 826 509 884 q 592 738 583 784 q 601 640 601 692 q 591 473 602 557 q 559 308 581 389 q 537 236 549 273 q 507 165 525 199 q 463 104 488 132 q 404 58 438 76 q 294 37 343 27 q 205 81 244 46 q 138 172 167 117 q 91 286 110 227 q 61 402 72 345 q 46 500 50 460 q 45 652 39 576 q 84 798 52 728 m 490 707 q 459 769 483 738 q 403 822 435 800 q 333 850 370 844 q 263 840 296 857 q 195 776 218 815 q 161 690 171 736 q 150 593 151 643 q 153 500 149 544 q 180 355 160 431 q 236 217 199 279 q 254 191 247 201 q 274 168 260 180 q 287 157 283 159 q 290 153 290 155 l 304 148 q 317 144 315 145 q 321 144 320 144 q 336 146 332 146 q 355 155 345 149 q 377 170 366 160 l 389 182 q 401 199 397 194 q 407 210 404 205 q 415 224 411 217 q 422 239 419 232 q 427 250 426 247 q 433 264 429 254 q 457 343 448 304 q 473 423 467 382 q 485 502 480 463 q 492 582 490 541 q 493 619 492 601 q 492 656 494 637 q 492 672 492 665 q 491 688 492 680 q 490 697 491 690 q 490 707 490 704 z "},"1":{"ha":377,"x_min":95,"x_max":247,"o":"m 136 5 q 104 31 113 12 q 99 72 95 50 q 127 292 119 182 q 137 512 136 401 q 136 734 138 623 q 134 955 134 845 q 151 994 134 981 q 189 1006 168 1006 q 226 994 209 1006 q 243 955 243 981 q 245 726 243 841 q 245 498 247 612 q 233 270 243 384 q 202 43 224 156 q 177 11 198 22 q 136 5 156 0 z "},"2":{"ha":713,"x_min":27,"x_max":682,"o":"m 677 106 q 672 64 682 87 q 639 38 662 42 q 351 28 496 19 q 66 75 206 38 q 39 91 47 79 q 28 118 30 103 q 33 148 27 133 q 53 174 39 163 q 193 281 125 225 q 326 399 262 336 q 381 456 354 426 q 431 517 408 486 q 480 583 456 548 q 515 658 505 618 q 521 717 524 688 q 506 772 518 746 q 471 817 494 798 q 418 845 449 836 q 347 856 382 856 q 276 848 312 856 q 205 829 240 841 q 138 806 171 818 q 97 809 114 798 q 75 840 80 821 q 77 881 69 860 q 110 910 85 902 q 199 939 153 925 q 290 959 244 952 q 382 962 336 966 q 473 939 429 958 q 598 828 555 903 q 628 663 642 753 q 595 568 620 612 q 540 483 571 524 q 422 342 486 406 q 317 244 370 290 q 206 155 263 198 q 409 132 307 136 q 610 142 511 129 q 652 137 633 145 q 677 106 670 129 z "},"3":{"ha":723,"x_min":31,"x_max":684,"o":"m 401 541 q 537 481 471 518 q 644 382 604 444 q 675 310 667 349 q 678 233 684 271 q 654 158 673 194 q 606 95 636 122 q 473 20 549 41 q 319 -3 396 -1 q 188 5 254 -4 q 61 41 122 15 q 36 74 41 50 q 42 115 31 98 q 75 140 54 136 q 115 134 95 144 q 110 137 109 137 q 115 136 111 137 q 123 132 118 134 q 129 130 127 130 q 141 127 136 127 q 153 123 146 126 q 180 118 167 121 q 209 113 194 115 q 229 110 225 110 q 239 109 233 110 q 255 108 247 109 q 273 107 263 107 q 343 107 307 106 q 378 110 365 109 q 411 115 392 111 q 427 120 419 118 q 444 125 435 122 l 460 129 q 500 149 484 140 q 522 164 515 157 q 544 184 537 176 q 557 206 551 193 q 569 234 564 217 q 574 262 574 251 l 574 275 q 567 300 570 293 q 529 353 551 334 q 477 391 507 373 q 414 422 445 410 q 347 445 384 434 q 316 453 332 449 q 285 460 300 457 q 271 461 282 460 q 263 463 260 463 q 253 464 258 464 q 243 465 248 464 q 210 478 224 467 q 191 506 197 490 q 191 538 186 522 q 216 566 197 555 q 317 618 267 593 q 415 675 368 644 q 454 704 435 689 q 490 738 473 719 q 497 747 492 741 q 505 762 502 754 q 506 766 503 760 q 509 776 509 773 q 509 791 510 784 q 502 806 507 798 q 488 823 495 815 q 473 838 481 830 q 431 870 454 856 q 380 887 407 884 q 315 886 347 890 q 250 873 282 882 q 187 856 218 865 q 125 838 156 846 q 82 845 99 831 q 60 878 65 859 q 62 917 54 898 q 96 943 71 936 q 174 964 134 952 q 255 985 214 977 q 337 996 296 994 q 419 989 378 998 q 482 964 449 981 q 543 923 515 947 q 591 869 571 899 q 614 806 610 840 q 612 744 620 773 q 587 690 604 715 q 548 643 571 665 q 500 604 525 621 q 452 571 477 586 q 401 541 427 556 z "},"4":{"ha":724,"x_min":61,"x_max":699,"o":"m 658 488 q 690 463 682 481 q 693 424 699 444 q 671 391 688 404 q 628 385 654 378 q 614 388 621 387 q 600 391 606 389 q 597 329 598 359 q 594 267 597 298 q 591 167 591 217 q 598 68 590 117 q 593 26 602 45 q 560 1 583 8 q 519 5 541 -5 q 494 39 498 16 q 484 148 484 94 q 486 256 483 202 q 490 332 488 294 q 492 407 491 369 q 304 412 399 415 q 117 412 210 410 q 79 428 96 412 q 62 467 61 444 q 73 693 71 581 q 84 921 76 806 q 100 959 85 943 q 138 975 115 975 q 176 959 159 975 q 193 921 194 943 q 182 720 184 819 q 174 519 180 620 q 334 520 255 519 q 495 514 414 521 q 482 728 494 623 q 469 943 471 834 q 486 981 469 968 q 524 994 503 994 q 561 981 544 994 q 578 943 578 968 q 582 832 578 887 q 591 722 586 777 q 599 611 595 666 q 602 500 602 556 q 658 488 628 496 z "},"5":{"ha":746,"x_min":33,"x_max":734,"o":"m 521 509 q 589 470 553 492 q 656 419 625 448 q 707 357 686 391 q 731 282 728 323 q 711 205 734 240 q 656 148 689 171 q 634 134 646 140 q 610 121 623 127 q 596 115 604 118 q 581 109 589 111 q 541 91 559 99 q 506 76 524 83 q 425 46 468 61 q 337 24 381 31 q 250 24 293 18 q 171 58 208 30 q 155 96 153 72 q 171 134 156 119 q 210 151 189 152 q 248 134 231 149 l 269 129 q 275 130 267 130 q 285 129 283 129 q 304 130 298 129 q 347 137 323 132 q 391 149 370 142 q 477 180 437 164 q 556 214 517 195 q 580 227 567 220 q 601 241 593 235 q 616 255 606 245 l 623 267 q 623 281 624 279 l 617 296 q 609 309 613 304 q 605 313 605 315 q 592 327 598 320 q 579 340 586 334 q 513 389 549 368 q 374 457 442 431 q 297 476 336 471 q 218 490 258 481 q 135 511 176 496 q 65 559 94 526 q 42 593 52 574 q 35 635 33 613 q 40 669 38 652 q 45 705 42 686 q 57 773 52 738 q 81 837 62 808 q 139 897 104 873 q 213 936 174 921 q 372 963 290 962 q 534 960 454 964 q 574 941 560 959 q 587 903 587 924 q 574 867 587 883 q 534 852 560 850 q 439 856 487 854 q 343 852 391 857 q 260 838 304 849 q 191 802 216 826 q 172 779 178 789 q 163 749 167 769 q 154 707 157 728 q 148 665 151 686 q 146 653 146 658 q 144 642 145 648 q 151 627 146 632 q 152 624 155 623 q 161 618 157 621 q 171 613 165 616 q 187 608 178 610 q 206 602 197 605 q 289 587 247 591 q 372 571 331 582 q 448 544 411 560 q 521 509 486 528 z "},"6":{"ha":692,"x_min":47,"x_max":666,"o":"m 180 -26 q 111 18 136 -12 q 75 85 85 47 q 63 165 64 123 q 68 245 62 208 q 75 292 71 269 q 83 339 80 316 q 60 357 69 345 q 50 385 52 370 q 54 412 47 399 q 76 435 60 426 q 85 441 80 438 q 95 446 90 444 q 106 526 100 486 q 121 605 111 566 q 192 814 144 716 q 313 1000 240 911 q 351 1015 327 1016 q 389 1000 374 1015 q 405 961 406 982 q 389 922 404 940 q 290 771 330 852 q 229 601 251 690 q 218 545 222 572 q 210 488 214 517 q 372 510 288 510 q 505 488 442 510 q 614 408 568 465 q 648 353 635 382 q 663 292 661 323 q 657 231 666 262 q 627 174 648 201 q 556 113 597 138 q 476 66 515 88 q 397 28 437 46 q 316 -5 358 9 q 248 -26 285 -16 q 180 -26 212 -35 m 182 285 q 172 215 175 250 q 172 141 168 180 q 177 118 174 132 q 186 95 180 104 q 197 84 195 84 q 220 80 216 79 q 238 83 231 81 q 254 87 245 84 q 288 99 271 92 q 323 113 305 106 q 395 146 358 127 q 467 186 433 165 q 496 204 481 195 q 524 224 510 213 q 528 229 522 224 q 537 236 534 233 q 546 245 543 241 q 552 256 549 250 q 551 309 563 277 q 532 337 544 323 q 509 362 521 351 q 427 399 472 393 q 335 400 381 404 q 195 372 262 396 q 189 328 193 349 q 182 285 186 307 z "},"7":{"ha":665,"x_min":27,"x_max":614,"o":"m 368 842 q 224 842 296 842 q 81 831 153 841 q 43 847 60 829 q 27 886 27 865 q 43 924 27 910 q 81 940 60 937 q 224 949 153 949 q 368 949 296 949 q 461 949 415 949 q 555 947 507 949 q 598 926 582 947 q 608 879 614 905 q 498 505 555 692 q 454 361 476 433 q 407 220 431 290 q 372 122 389 172 q 328 28 355 72 q 295 3 316 5 q 256 10 274 0 q 231 40 239 20 q 236 83 222 60 l 252 115 q 256 123 254 118 q 259 130 258 129 q 266 148 260 138 q 286 203 277 175 q 307 259 296 231 q 396 540 353 397 q 441 690 419 616 q 484 841 463 765 q 425 842 454 841 q 368 842 396 842 z "},"8":{"ha":703,"x_min":68,"x_max":635,"o":"m 435 -41 q 356 -51 397 -50 q 275 -43 315 -52 q 198 -16 235 -35 q 136 34 161 3 q 90 112 104 71 q 76 196 76 153 q 87 283 76 239 q 118 368 99 327 q 180 479 145 426 q 255 583 216 532 q 202 621 228 602 q 152 663 176 640 q 98 725 123 690 q 69 803 72 760 q 87 867 68 841 q 135 910 106 892 q 199 938 164 928 q 263 954 233 948 q 379 968 321 964 q 495 975 437 972 q 503 1005 499 990 q 510 1035 506 1020 q 536 1067 517 1059 q 576 1070 556 1076 q 608 1048 595 1065 q 614 1006 621 1031 l 606 974 q 629 949 623 966 q 631 915 635 932 q 615 884 628 898 q 581 871 602 871 q 555 812 568 838 q 490 702 529 753 q 410 601 452 651 q 425 590 418 597 q 496 511 465 555 q 552 419 526 467 q 599 316 579 370 q 621 205 618 262 q 574 48 625 115 q 435 -41 524 -19 m 194 776 q 224 744 209 758 q 259 715 240 730 q 323 667 292 689 q 331 675 327 671 q 338 685 335 680 q 397 757 368 720 q 448 836 426 793 q 454 850 450 842 q 461 865 458 859 q 354 857 407 864 q 286 848 321 854 q 217 829 251 841 q 201 823 205 823 q 195 819 198 822 q 183 812 184 812 l 179 799 q 186 786 182 792 q 194 776 190 780 m 229 92 q 351 57 285 56 q 412 64 382 57 q 469 91 442 72 q 485 106 476 98 q 499 127 494 115 q 510 159 509 149 q 514 197 514 176 q 491 297 511 248 q 445 389 471 346 q 419 434 433 411 q 387 476 406 457 q 365 498 376 487 q 342 518 354 509 q 335 510 339 514 q 328 502 331 506 q 277 432 304 469 q 229 355 251 395 q 194 275 208 316 q 182 193 180 233 q 196 136 183 164 q 229 92 209 107 z "},"9":{"ha":651,"x_min":33,"x_max":574,"o":"m 572 788 q 558 669 568 728 q 551 551 548 610 q 556 420 553 486 q 557 289 559 355 q 553 151 555 220 q 553 12 552 81 q 536 -26 553 -14 q 499 -39 519 -39 q 462 -26 479 -39 q 445 12 445 -14 q 448 206 444 110 q 450 400 452 302 q 250 391 355 373 q 198 399 225 395 q 145 412 171 404 q 96 434 119 420 q 57 469 73 448 q 37 518 42 491 q 36 573 33 545 q 47 628 39 601 q 64 678 54 655 q 126 799 90 742 q 210 903 163 856 q 288 966 245 939 q 377 1008 330 993 q 442 1020 408 1019 q 505 1004 476 1021 q 547 962 532 987 q 568 907 562 937 q 574 847 574 878 q 572 788 574 817 m 467 818 q 467 845 467 831 q 465 872 467 859 q 463 880 464 872 q 461 890 463 887 q 453 907 456 906 l 434 911 q 357 882 391 902 q 293 833 323 861 q 172 661 216 757 q 155 618 163 640 q 145 575 148 597 q 144 557 145 566 q 145 540 144 548 l 156 525 q 174 518 170 519 q 182 515 178 517 q 279 495 231 503 q 445 511 369 480 q 443 553 444 532 q 444 594 442 574 q 449 643 446 618 q 454 690 452 667 q 462 753 458 722 q 467 818 465 785 z "},"ð":{"ha":726,"x_min":33,"x_max":666,"o":"m 597 867 q 638 863 621 875 q 661 831 655 850 q 658 791 666 811 q 625 762 650 770 q 594 752 606 755 q 572 745 582 749 q 549 739 562 742 q 518 730 537 735 q 545 688 533 709 q 567 643 556 666 q 639 445 614 548 q 656 353 650 400 q 659 258 663 305 q 642 174 655 214 q 598 99 628 133 q 524 43 567 64 q 435 16 481 23 q 262 39 347 4 q 118 141 178 75 q 86 180 102 159 q 58 224 71 201 q 39 271 46 247 q 35 321 33 296 q 60 414 39 369 q 121 491 81 460 q 210 536 161 524 q 311 545 259 548 q 415 528 363 543 q 514 494 467 514 q 475 589 498 543 q 410 696 448 643 q 372 682 387 688 q 344 671 357 677 q 317 659 331 666 q 282 639 304 651 q 239 635 259 627 q 210 661 220 643 q 202 699 199 678 q 228 732 205 720 q 258 749 247 743 q 280 761 270 755 q 303 771 290 766 q 336 784 316 776 q 270 846 305 817 q 197 902 235 875 q 172 936 178 916 q 178 977 165 956 q 211 1002 189 994 q 251 996 233 1009 q 449 821 362 920 q 490 833 473 829 q 523 844 507 838 q 555 854 538 849 q 597 867 572 859 m 519 372 q 387 422 456 404 q 245 433 317 439 q 208 420 225 430 q 176 394 190 410 q 153 359 161 378 q 144 321 144 340 q 149 286 142 301 q 168 251 155 271 q 228 186 191 216 q 365 121 286 136 q 429 123 391 117 q 496 151 467 130 q 534 195 519 167 q 551 252 548 222 q 547 366 555 307 q 519 372 536 365 z "},"Ł":{"ha":597,"x_min":-77,"x_max":652,"o":"m 270 601 q 313 600 294 610 q 340 572 332 590 q 344 532 349 553 q 315 502 339 511 q 242 473 273 484 q 187 454 212 463 q 189 254 175 350 q 196 175 193 214 q 194 96 199 136 q 397 86 296 94 q 601 75 499 79 q 640 56 627 73 q 652 18 652 38 q 640 -19 652 -3 q 601 -34 627 -35 q 357 -20 477 -28 q 115 -11 237 -11 q 81 1 94 -11 q 64 28 68 12 q 64 60 60 43 q 83 87 69 76 q 88 180 94 133 q 77 273 83 227 q 73 338 75 305 q 75 403 72 370 q 45 385 60 395 q 12 362 31 374 q -28 351 -7 350 q -64 369 -49 351 q -77 409 -77 385 q -57 446 -76 433 q 24 497 -9 479 q 90 530 58 515 q 104 626 96 578 q 118 723 113 674 q 130 844 125 784 q 137 964 134 903 q 155 1004 137 990 q 193 1017 172 1017 q 229 1004 213 1017 q 244 964 245 990 q 237 838 241 901 q 225 711 232 776 q 205 575 217 643 q 235 587 220 581 q 270 601 251 593 z "},"ł":{"ha":292,"x_min":-64,"x_max":362,"o":"m 283 614 q 327 614 308 624 q 354 585 346 604 q 357 546 362 567 q 328 515 353 525 q 262 490 290 500 q 210 471 233 480 q 196 226 205 347 q 178 -19 187 104 q 161 -58 175 -42 q 123 -73 146 -73 q 85 -58 103 -73 q 69 -19 68 -42 q 85 201 77 91 q 100 423 94 312 q 66 403 84 414 q 26 377 49 392 q -14 364 8 363 q -50 384 -35 365 q -62 422 -64 399 q -43 460 -61 446 q 39 512 5 494 q 104 544 73 530 q 106 777 109 662 q 92 1010 103 892 q 107 1048 90 1032 q 145 1065 125 1065 q 183 1048 170 1065 q 199 1010 197 1032 q 214 799 210 905 q 214 586 217 693 q 283 614 244 598 z "},"Š":{"ha":571,"x_min":-14,"x_max":633,"o":"m 324 372 q 255 435 292 406 q 182 493 218 464 q 113 554 146 522 q 50 624 79 586 q 3 710 20 663 q -3 807 -14 757 q 50 902 8 861 q 141 966 92 943 q 248 998 194 989 q 358 1008 302 1006 q 470 1008 414 1010 q 582 1009 526 1006 q 621 994 608 1010 q 633 958 633 978 q 621 920 633 937 q 582 902 608 903 q 504 900 543 899 q 426 902 465 901 q 319 901 373 903 q 214 879 266 898 q 176 862 197 872 q 139 837 156 852 q 111 804 122 822 q 102 766 100 787 q 111 729 103 747 q 132 693 119 711 q 160 659 145 675 q 189 629 175 643 q 254 572 220 598 q 321 519 288 547 q 393 456 357 491 q 455 382 429 422 q 494 297 481 342 q 498 202 507 252 q 462 121 488 155 q 399 62 435 88 q 323 14 363 35 q 247 -28 283 -7 q 204 -34 224 -42 q 174 -8 184 -26 q 166 31 164 9 q 191 65 168 52 q 256 100 224 84 q 320 137 289 117 q 372 182 350 156 q 395 244 395 209 q 372 312 393 279 q 324 372 351 345 m 115 1249 q 99 1288 98 1264 q 115 1326 100 1312 q 153 1341 133 1343 q 191 1326 174 1340 q 245 1278 220 1303 q 298 1230 270 1253 q 354 1276 327 1253 q 408 1325 381 1299 q 449 1340 427 1343 q 485 1323 471 1337 q 502 1287 499 1309 q 486 1248 505 1265 q 408 1180 448 1213 q 327 1118 369 1147 q 299 1111 315 1111 q 271 1118 283 1111 q 191 1181 227 1145 q 115 1249 155 1218 z "},"š":{"ha":661,"x_min":37,"x_max":621,"o":"m 113 301 q 62 366 77 327 q 61 448 47 404 q 103 518 75 487 q 168 568 132 549 q 255 602 209 590 q 349 616 301 614 q 443 607 396 617 q 532 575 490 597 q 557 543 555 563 q 550 505 560 522 q 519 479 540 487 q 476 483 499 471 q 403 506 444 500 q 321 507 362 511 q 243 486 279 502 q 182 444 206 469 q 173 434 175 437 q 167 422 171 431 l 164 407 q 171 392 168 395 q 227 370 198 374 q 286 363 256 365 q 372 359 328 361 q 458 347 416 357 q 534 316 499 338 q 594 252 570 294 q 619 154 621 205 q 579 62 617 103 q 491 6 541 22 q 389 -16 441 -9 q 294 -19 343 -22 q 199 -3 244 -16 q 114 36 153 9 q 49 106 75 62 q 45 147 37 127 q 70 177 53 167 q 108 184 87 187 q 142 160 129 182 q 195 113 161 129 q 269 90 229 96 q 350 87 309 84 q 423 98 391 91 q 459 109 441 102 q 490 127 477 117 q 509 153 503 138 q 507 184 514 167 q 462 233 494 218 q 395 251 430 248 q 323 254 359 254 q 250 257 286 254 q 178 270 213 260 q 113 301 142 279 m 142 863 q 126 901 125 878 q 142 940 127 925 q 180 955 160 956 q 218 940 201 954 q 272 892 247 917 q 326 844 297 867 q 381 890 354 867 q 435 939 408 913 q 476 954 454 956 q 512 937 498 951 q 529 901 526 922 q 513 861 532 879 q 435 793 475 826 q 354 731 396 761 q 326 724 342 724 q 298 731 311 724 q 218 795 254 758 q 142 863 182 831 z "},"Ý":{"ha":540,"x_min":-99,"x_max":678,"o":"m -71 909 q -96 942 -94 921 q -89 981 -99 963 q -59 1006 -79 998 q -16 1002 -39 1015 q 103 907 56 964 q 182 776 151 849 q 222 682 202 728 q 273 597 241 636 q 363 693 323 640 q 439 804 404 746 q 507 921 475 861 q 571 1036 538 981 q 606 1061 585 1058 q 644 1053 627 1063 q 670 1023 662 1043 q 665 981 678 1004 q 595 859 629 921 q 523 738 560 798 q 443 623 486 678 q 349 521 400 568 q 341 276 343 397 q 349 31 339 155 q 332 -6 350 9 q 294 -22 315 -22 q 256 -6 271 -22 q 240 31 241 9 q 233 252 232 142 q 237 473 233 362 q 217 494 225 481 q 144 600 171 544 q 91 716 117 655 q 28 827 65 777 q -71 909 -9 876 m 429 1268 q 467 1284 446 1282 q 505 1268 487 1286 q 521 1230 519 1253 q 505 1191 522 1206 q 301 1062 407 1116 q 258 1059 278 1050 q 227 1085 237 1067 q 220 1123 217 1103 q 245 1156 222 1143 q 340 1207 294 1180 q 429 1268 385 1234 z "},"ý":{"ha":609,"x_min":15,"x_max":608,"o":"m 575 610 q 601 578 594 600 q 594 537 608 556 q 543 430 560 488 q 505 316 526 372 q 454 201 481 256 q 395 88 426 145 q 389 77 392 81 q 382 65 385 72 q 376 26 388 43 q 346 3 365 9 q 234 -185 290 -92 q 122 -373 178 -278 q 87 -399 109 -396 q 49 -391 66 -401 q 23 -361 31 -381 q 28 -319 15 -342 q 144 -125 85 -221 q 259 68 202 -30 q 142 290 198 178 q 28 513 87 401 q 25 555 16 536 q 51 585 34 575 q 89 593 68 595 q 122 567 110 590 q 221 372 172 469 q 321 179 270 275 q 411 373 372 271 q 450 486 431 429 q 502 591 468 544 q 534 616 514 610 q 575 610 555 623 m 468 894 q 506 909 486 907 q 544 894 526 911 q 560 855 559 879 q 544 817 562 831 q 340 688 446 742 q 297 684 317 675 q 267 711 277 693 q 259 749 256 728 q 285 781 262 769 q 379 833 334 806 q 468 894 425 860 z "},"Þ":{"ha":601,"x_min":56,"x_max":610,"o":"m 490 765 q 564 730 529 753 q 606 661 600 707 q 604 608 610 633 q 589 557 598 583 q 532 420 564 488 q 456 290 499 351 q 414 236 437 263 q 365 186 392 209 q 307 147 338 163 q 241 130 277 132 q 270 9 254 66 q 264 -33 277 -16 q 231 -56 251 -50 q 192 -53 212 -61 q 165 -19 172 -45 q 106 277 126 127 q 73 576 87 427 q 62 710 66 644 q 57 842 58 776 q 56 919 56 878 q 73 993 56 960 q 106 1019 85 1016 q 144 1011 126 1021 q 170 981 161 1001 q 165 937 178 960 q 166 925 167 933 q 165 914 165 917 q 164 886 164 899 q 164 859 164 873 q 250 848 208 861 q 331 819 292 834 q 490 765 410 789 m 500 643 q 465 660 481 655 q 430 669 448 665 q 362 692 395 680 q 294 718 330 705 q 231 739 263 728 q 168 750 199 750 q 174 656 171 703 q 183 563 178 610 q 199 400 190 481 q 222 237 209 319 l 236 237 q 250 242 241 239 q 254 243 259 245 q 277 255 267 247 q 290 264 288 262 q 334 309 315 286 q 369 355 353 331 q 406 415 388 385 q 438 476 423 445 q 462 527 453 506 q 481 578 471 548 q 489 599 486 589 q 495 620 492 609 q 498 628 496 624 q 500 637 499 632 l 500 643 z "},"þ":{"ha":669,"x_min":61,"x_max":628,"o":"m 578 537 q 610 460 594 499 q 627 381 625 422 q 614 302 628 339 q 576 236 601 266 q 520 183 552 206 q 452 144 488 160 q 370 113 412 126 q 285 95 328 99 q 245 97 263 92 q 210 110 227 102 q 235 -391 218 -141 q 220 -429 237 -414 q 180 -445 202 -445 q 143 -429 157 -445 q 126 -391 129 -414 q 94 311 103 -38 q 62 1013 85 661 q 78 1052 61 1036 q 117 1067 95 1067 q 154 1052 140 1067 q 171 1013 168 1036 q 183 802 178 907 q 193 591 189 697 q 239 614 216 604 q 286 635 262 625 q 328 650 305 643 q 376 662 351 658 q 424 666 400 666 q 468 658 448 666 q 535 609 509 642 q 578 537 562 576 m 494 304 q 518 381 522 336 q 505 437 515 408 q 483 490 494 465 q 470 515 476 502 q 456 538 464 528 q 437 553 444 551 q 367 549 396 556 q 309 529 338 541 q 252 502 279 517 q 197 473 224 487 q 201 355 199 414 q 205 235 202 296 q 227 222 216 228 q 248 210 237 217 q 266 203 259 203 q 288 205 273 202 q 347 219 317 212 q 403 240 376 227 q 452 267 430 252 q 494 304 475 281 z "},"Ž":{"ha":723,"x_min":31,"x_max":715,"o":"m 642 258 q 682 252 662 264 q 708 220 701 240 q 703 178 715 197 q 670 153 690 160 q 524 96 595 126 q 374 45 452 65 q 297 28 336 34 q 219 22 258 22 q 142 31 180 22 q 69 61 104 41 q 44 94 49 72 q 49 134 39 115 q 170 341 102 244 q 317 530 239 438 q 444 678 381 605 q 563 833 506 751 q 452 867 510 856 q 334 881 393 879 q 216 878 275 883 q 103 861 157 872 q 62 867 81 857 q 37 899 43 876 q 41 941 31 920 q 75 966 52 962 q 224 985 146 979 q 378 985 301 991 q 530 958 456 979 q 669 899 604 937 q 694 867 688 888 q 689 826 700 845 q 552 642 625 728 q 404 467 479 555 q 279 307 338 388 q 171 136 220 225 q 271 132 220 123 q 370 156 323 141 q 506 204 439 176 q 642 258 572 232 m 224 1236 q 208 1274 206 1251 q 224 1313 209 1298 q 262 1328 241 1329 q 300 1313 282 1326 q 353 1265 328 1290 q 407 1217 378 1240 q 463 1263 435 1240 q 517 1312 490 1286 q 557 1326 536 1329 q 593 1310 579 1324 q 610 1274 608 1295 q 594 1234 613 1252 q 517 1166 556 1199 q 435 1104 477 1134 q 408 1097 423 1097 q 380 1104 392 1097 q 299 1168 335 1131 q 224 1236 263 1204 z "},"ž":{"ha":636,"x_min":38,"x_max":601,"o":"m 548 159 q 587 142 574 159 q 601 106 601 126 q 587 68 601 85 q 548 52 574 52 q 434 52 491 50 q 320 53 377 53 q 208 52 263 53 q 96 58 153 52 q 63 73 76 61 q 46 99 50 84 q 47 130 42 114 q 69 159 53 146 q 175 254 126 202 q 279 350 224 305 q 340 396 309 374 q 397 445 370 418 q 408 454 403 450 q 420 464 414 458 q 250 473 335 471 q 80 495 165 476 q 46 519 54 500 q 43 557 38 538 q 66 590 49 576 q 110 598 84 604 q 216 583 163 587 q 324 575 270 578 q 433 570 378 572 q 540 559 487 567 q 558 550 549 557 q 572 533 567 543 q 580 513 578 524 q 578 492 582 502 q 538 430 563 456 q 484 378 513 404 q 425 328 454 351 q 363 279 395 304 q 296 222 328 252 q 233 160 264 191 q 277 161 255 160 q 320 160 298 161 q 434 159 377 160 q 548 159 491 159 m 156 834 q 140 873 138 849 q 156 911 141 897 q 194 926 174 928 q 232 911 214 925 q 286 863 260 888 q 339 815 311 838 q 395 861 368 838 q 449 910 422 884 q 490 925 468 928 q 526 908 511 922 q 543 872 540 894 q 526 833 545 850 q 449 765 488 798 q 368 703 410 732 q 340 696 355 696 q 312 703 324 696 q 231 766 267 730 q 156 834 195 803 z "},"½":{"ha":899,"x_min":11,"x_max":871,"o":"m 161 956 q 178 995 161 982 q 216 1008 195 1008 q 253 995 236 1008 q 270 956 270 982 q 278 781 270 868 q 301 606 286 694 q 295 566 304 585 q 263 540 286 547 q 222 545 244 534 q 197 578 199 556 q 172 766 182 671 q 161 956 161 860 m 727 956 q 669 807 703 879 q 595 665 635 735 q 526 543 562 602 q 446 427 491 483 q 357 328 404 376 q 265 230 311 279 q 180 127 220 180 q 114 12 141 75 q 81 -14 104 -8 q 39 -8 57 -19 q 15 25 19 4 q 20 66 11 46 q 87 183 47 129 q 172 287 126 237 q 264 385 217 336 q 354 484 311 433 q 431 593 397 536 q 498 711 465 651 q 567 844 534 777 q 623 985 600 911 q 651 1017 631 1009 q 691 1020 671 1025 q 723 998 711 1015 q 727 956 735 981 m 817 -3 q 665 -5 739 -12 q 514 11 591 3 q 481 23 495 14 q 463 52 468 33 q 464 85 457 68 q 487 113 471 103 q 547 143 517 127 q 605 178 576 159 q 635 197 620 187 q 663 217 650 206 q 688 239 674 227 q 707 260 701 252 q 715 275 713 273 q 716 279 716 278 q 707 304 713 297 q 689 316 701 309 q 635 334 665 330 q 583 331 606 338 q 542 336 559 323 q 519 368 525 349 q 522 408 514 388 q 555 435 530 427 q 651 441 600 449 q 743 410 703 433 q 781 380 764 397 q 810 341 799 362 q 825 296 822 320 q 819 247 827 271 q 766 165 803 199 q 690 103 730 130 q 752 101 720 100 q 817 104 784 102 q 855 89 840 107 q 871 52 871 71 q 855 14 871 27 q 817 -3 840 0 z "},"¼":{"ha":948,"x_min":-1,"x_max":901,"o":"m 92 53 q 54 37 75 38 q 16 53 33 37 q 0 91 1 68 q 16 129 -1 114 q 222 313 122 218 q 412 514 323 408 q 707 968 590 724 q 739 994 716 989 q 780 989 762 1000 q 805 956 800 977 q 800 914 810 935 q 661 669 739 785 q 493 446 583 552 q 301 241 403 339 q 92 53 199 144 m 850 33 q 833 -6 850 7 q 795 -19 815 -19 q 758 -6 774 -19 q 742 33 742 7 q 750 141 742 88 q 680 138 715 140 q 609 137 644 137 q 568 157 581 137 q 557 198 555 176 q 568 307 557 254 q 583 414 578 359 q 600 452 586 437 q 637 468 614 468 q 676 452 658 468 q 692 414 694 437 q 680 330 688 372 q 667 245 673 289 q 718 248 693 247 q 766 251 742 250 q 779 336 773 294 q 788 422 785 378 q 808 461 789 448 q 846 475 826 475 q 882 461 867 475 q 897 422 898 448 q 887 334 894 378 q 873 245 880 290 q 894 222 887 237 q 899 192 901 208 q 886 163 897 176 q 859 145 876 149 q 850 33 850 90 m 142 956 q 159 995 142 982 q 195 1008 175 1008 q 233 995 216 1008 q 250 956 250 982 q 258 781 251 868 q 281 606 266 694 q 275 566 285 585 q 243 540 266 547 q 202 545 224 534 q 176 578 180 556 q 152 766 161 671 q 142 956 142 860 z "},"¹":{"ha":279,"x_min":69,"x_max":212,"o":"m 69 956 q 86 995 69 982 q 123 1008 103 1008 q 161 995 144 1008 q 178 956 178 982 q 186 781 178 868 q 209 606 194 694 q 203 566 212 585 q 171 540 194 547 q 130 545 152 534 q 104 578 109 556 q 80 766 90 671 q 69 956 71 860 z "},"¾":{"ha":1002,"x_min":47,"x_max":955,"o":"m 227 857 q 235 865 229 859 q 239 868 240 871 q 231 884 236 882 q 214 889 222 887 q 210 891 205 891 q 195 892 203 891 q 180 892 187 892 q 168 890 178 891 q 164 891 159 890 q 154 889 159 890 q 142 887 149 888 q 92 878 113 873 q 58 903 71 883 q 53 944 47 921 q 79 977 58 967 q 157 998 113 993 q 243 993 202 1002 q 314 957 283 983 q 349 883 345 930 q 338 821 353 848 q 297 773 323 793 q 339 758 317 766 q 379 736 361 749 q 412 706 397 723 q 433 667 426 689 q 433 610 441 636 q 406 563 425 585 q 363 526 388 541 q 313 500 338 510 q 216 475 266 481 q 117 468 167 468 q 78 484 91 468 q 65 521 65 500 q 78 558 65 541 q 117 575 91 575 q 191 581 156 576 q 266 598 227 585 q 297 611 282 604 q 323 631 312 618 q 319 647 319 646 q 310 652 315 650 q 301 656 305 654 q 221 681 256 673 l 180 689 q 164 692 175 689 q 128 696 141 694 q 103 699 115 697 q 64 715 80 700 q 49 753 49 730 q 60 785 49 769 q 88 804 71 802 q 138 815 113 808 q 183 833 163 822 q 208 844 194 837 q 227 857 221 852 m 146 53 q 108 37 129 38 q 71 53 87 37 q 54 91 56 68 q 71 129 53 114 q 277 313 176 218 q 467 514 377 408 q 761 968 644 724 q 793 994 770 989 q 834 989 817 1000 q 859 956 854 977 q 854 914 864 935 q 715 669 793 785 q 547 446 637 552 q 355 241 457 339 q 146 53 254 144 m 905 33 q 887 -6 905 7 q 849 -19 869 -19 q 812 -6 829 -19 q 796 33 796 7 q 804 141 796 88 q 734 138 769 140 q 663 137 699 137 q 622 157 635 137 q 612 198 609 176 q 622 307 612 254 q 637 414 632 359 q 654 452 640 437 q 692 468 669 468 q 730 452 712 468 q 746 414 749 437 q 734 330 742 372 q 723 245 727 289 q 772 248 747 247 q 821 251 796 250 q 833 336 827 294 q 842 422 840 378 q 862 461 844 448 q 901 475 880 475 q 937 461 921 475 q 951 422 952 448 q 941 334 948 378 q 928 245 935 290 q 948 222 941 237 q 953 192 955 208 q 941 163 951 176 q 913 145 930 149 q 905 33 905 90 z "},"³":{"ha":465,"x_min":47,"x_max":441,"o":"m 227 857 q 235 865 229 859 q 239 868 240 871 q 231 884 236 882 q 214 889 222 887 q 210 891 205 891 q 195 892 203 891 q 180 892 187 892 q 168 890 178 891 q 164 891 159 890 q 154 889 159 890 q 142 887 149 888 q 92 878 113 873 q 58 903 71 883 q 53 944 47 921 q 79 977 58 967 q 157 998 113 993 q 243 993 202 1002 q 314 957 283 983 q 349 883 345 930 q 338 821 353 848 q 297 773 323 793 q 339 758 317 766 q 379 736 361 749 q 412 706 397 723 q 433 667 426 689 q 433 610 441 636 q 406 563 425 585 q 363 526 388 541 q 313 500 338 510 q 216 475 266 481 q 117 468 167 468 q 78 484 91 468 q 65 521 65 500 q 78 558 65 541 q 117 575 91 575 q 191 581 156 576 q 266 598 227 585 q 297 611 282 604 q 323 631 312 618 q 319 647 319 646 q 310 652 315 650 q 301 656 305 654 q 221 681 256 673 l 180 689 q 164 692 175 689 q 128 696 141 694 q 103 699 115 697 q 64 715 80 700 q 49 753 49 730 q 60 785 49 769 q 88 804 71 802 q 138 815 113 808 q 183 833 163 822 q 208 844 194 837 q 227 857 221 852 z "},"²":{"ha":487,"x_min":31,"x_max":446,"o":"m 392 517 q 240 516 315 509 q 88 532 165 524 q 56 543 69 534 q 37 571 42 552 q 38 606 31 589 q 61 632 45 624 q 122 663 92 647 q 180 697 152 680 q 210 717 195 707 q 239 738 224 727 q 262 760 250 747 q 281 780 275 772 q 289 795 288 792 q 290 800 290 799 q 281 823 289 818 q 274 829 278 826 q 263 837 270 833 q 210 854 239 849 q 159 852 180 859 q 116 857 133 844 q 94 888 99 869 q 98 928 90 907 q 130 955 106 948 q 227 961 175 970 q 317 929 278 952 q 357 899 339 917 q 385 861 374 882 q 399 815 396 840 q 393 766 401 791 q 340 685 377 719 q 264 624 304 651 q 327 621 294 620 q 392 625 359 621 q 430 610 414 628 q 446 571 446 591 q 430 534 446 548 q 392 517 414 519 z "},"¦":{"ha":278,"x_min":42,"x_max":209,"o":"m 100 978 q 117 1017 100 1004 q 155 1031 134 1031 q 192 1017 175 1031 q 209 978 209 1004 q 207 799 209 888 q 194 620 205 709 q 178 581 191 597 q 140 566 164 566 q 101 581 119 566 q 85 620 83 597 q 98 799 96 709 q 100 978 100 888 m 76 382 q 92 421 76 408 q 129 434 109 434 q 167 421 149 434 q 184 382 184 408 q 180 291 186 336 q 168 201 175 245 q 155 111 161 156 q 149 19 149 65 q 132 -21 149 -8 q 95 -34 115 -34 q 58 -21 75 -34 q 42 19 42 -8 q 47 111 42 65 q 60 201 53 156 q 72 291 66 245 q 76 382 77 336 z "},"−":{"ha":647,"x_min":23,"x_max":620,"o":"m 567 456 q 606 437 593 454 q 620 400 620 420 q 606 363 620 380 q 567 347 593 347 q 450 353 509 349 q 332 359 391 357 q 214 358 273 361 q 96 346 155 355 q 55 351 73 342 q 30 382 37 359 q 34 425 23 403 q 68 449 45 446 q 193 463 130 460 q 317 465 255 467 q 442 460 380 464 q 567 456 505 457 z "},"×":{"ha":526,"x_min":23,"x_max":500,"o":"m 481 282 q 498 243 500 264 q 483 206 496 221 q 449 187 469 191 q 410 202 429 183 q 336 274 372 237 q 263 347 300 311 q 195 280 228 315 q 132 206 161 245 q 98 182 118 189 q 57 189 77 176 q 33 222 39 199 q 41 263 27 245 q 110 345 73 307 q 186 419 146 384 q 123 470 155 446 q 58 515 92 494 q 31 547 39 528 q 34 589 23 567 q 65 616 43 608 q 106 612 87 624 q 189 554 149 585 q 266 491 228 524 q 335 548 301 519 q 404 606 369 576 q 444 620 423 624 q 479 602 465 616 q 495 566 494 587 q 477 528 496 545 q 412 472 445 499 q 345 416 378 445 q 413 349 380 382 q 481 282 446 316 z "}," ":{"ha":430,"x_min":0,"x_max":0,"o":""},"!":{"ha":288,"x_min":11,"x_max":220,"o":"m 119 95 q 146 62 137 84 q 149 22 156 41 q 123 -12 144 1 q 85 -28 109 -28 q 47 -12 62 -27 q 22 15 27 3 q 16 53 11 34 q 35 85 20 72 q 43 92 39 88 q 52 98 46 95 q 66 103 64 103 q 80 106 68 103 q 90 105 84 106 q 98 103 95 104 q 119 95 109 102 m 109 970 q 125 1009 109 996 q 162 1023 142 1023 q 199 1009 182 1023 q 216 970 216 996 q 218 790 216 880 q 218 610 220 700 q 207 431 216 521 q 176 254 198 342 q 151 220 170 228 q 112 217 132 212 q 79 239 92 222 q 72 282 65 256 q 100 452 92 366 q 111 625 109 538 q 111 798 113 711 q 109 970 109 884 z "},"\"":{"ha":427,"x_min":39,"x_max":373,"o":"m 54 978 q 71 1017 54 1004 q 109 1031 88 1031 q 146 1017 129 1031 q 163 978 163 1004 q 161 804 163 891 q 151 632 159 718 q 134 593 148 609 q 96 578 119 578 q 58 593 76 578 q 42 632 39 609 q 53 804 52 718 q 54 978 54 891 m 359 628 q 345 588 361 601 q 308 575 328 575 q 270 588 288 575 q 251 628 252 601 q 251 715 248 671 q 257 803 254 760 q 262 890 260 846 q 262 978 264 935 q 278 1017 260 1001 q 316 1032 296 1032 q 354 1017 339 1032 q 370 978 369 1001 q 371 890 373 935 q 366 803 369 846 q 359 715 362 760 q 359 628 357 671 z "},"#":{"ha":827,"x_min":14,"x_max":817,"o":"m 221 49 q 192 17 213 24 q 151 15 171 9 q 120 37 132 20 q 117 79 109 54 q 149 178 134 129 q 175 279 163 228 q 121 282 148 281 q 68 286 95 283 q 29 303 45 289 q 14 340 14 317 q 29 378 14 361 q 68 395 45 396 q 199 387 132 389 q 220 495 210 441 q 241 605 231 549 q 172 599 206 602 q 104 591 138 595 q 66 607 81 589 q 50 646 50 625 q 66 684 50 670 q 104 700 81 697 q 182 708 144 705 q 259 713 220 711 q 281 839 270 777 q 304 963 292 901 q 329 997 308 986 q 370 1001 350 1008 q 403 975 393 994 q 407 935 412 956 q 387 826 396 880 q 369 718 378 772 q 456 715 412 718 q 545 711 500 713 q 571 827 559 769 q 594 945 583 886 q 620 979 598 968 q 661 983 642 990 q 693 958 684 977 q 699 917 703 939 q 676 807 688 861 q 652 699 665 753 q 713 688 684 693 q 774 677 743 684 q 808 652 800 671 q 811 614 817 633 q 789 581 806 594 q 746 572 772 567 q 628 593 686 585 q 612 526 620 559 q 597 458 605 492 q 589 418 593 438 q 581 378 585 399 q 645 376 613 377 q 708 374 677 376 q 747 355 734 373 q 760 317 760 338 q 747 281 760 297 q 708 266 734 264 q 635 269 671 269 q 562 271 598 270 q 536 146 549 208 q 499 23 522 84 q 473 -9 491 3 q 433 -14 456 -20 q 399 12 412 -8 q 395 53 387 31 q 427 161 414 106 q 452 273 441 216 q 368 274 410 274 q 285 275 327 274 q 256 162 271 218 q 221 49 240 106 m 351 609 q 330 496 340 552 q 309 382 320 439 q 391 382 350 382 q 472 380 431 381 q 482 433 477 407 q 492 487 487 460 q 506 546 499 517 q 519 604 513 575 q 435 609 477 608 q 351 609 393 610 z "},"$":{"ha":644,"x_min":5,"x_max":662,"o":"m 618 902 q 652 877 642 899 q 656 836 662 854 q 631 804 650 812 q 590 798 612 795 q 572 800 576 799 q 556 800 564 800 q 540 802 548 800 q 503 801 521 802 q 465 799 484 800 q 419 796 442 798 q 373 791 396 795 l 373 777 q 377 667 374 722 q 377 559 380 613 q 376 548 376 553 q 376 537 376 543 q 430 500 404 521 q 476 452 456 479 q 520 385 498 423 q 557 304 543 346 q 570 222 571 263 q 544 146 570 180 q 463 82 509 98 q 365 68 416 66 q 366 33 365 50 q 366 -3 366 16 q 350 -41 366 -28 q 313 -54 334 -54 q 275 -41 293 -54 q 258 -3 258 -28 q 257 39 258 19 q 255 81 256 60 q 194 92 224 87 q 136 99 164 96 q 97 118 110 100 q 84 156 84 136 q 97 192 84 176 q 136 206 110 208 q 194 200 165 205 q 250 190 222 195 q 249 237 250 213 q 250 283 248 260 q 256 378 252 331 q 263 473 259 426 q 218 494 240 484 q 172 515 195 505 q 107 547 140 530 q 50 590 75 564 q 16 649 27 614 q 27 713 5 684 q 82 769 50 745 q 145 814 114 793 q 203 849 172 831 q 264 878 233 867 q 273 949 267 914 q 293 1019 279 985 q 319 1051 301 1039 q 359 1057 336 1063 q 393 1031 380 1051 q 397 990 406 1010 q 376 901 382 949 q 410 904 393 903 q 442 906 426 905 q 530 909 486 909 q 618 902 575 909 m 270 589 q 268 673 270 631 q 263 758 266 715 q 202 722 228 738 q 153 688 176 707 q 141 678 142 678 q 135 673 138 675 q 129 667 132 670 q 142 653 136 656 q 163 642 148 650 q 194 624 178 632 q 227 608 210 616 q 248 598 237 602 q 270 589 259 594 m 378 403 q 372 409 376 406 q 366 415 369 412 q 361 345 363 380 q 358 273 358 309 q 357 224 357 248 q 359 175 358 199 q 410 178 385 174 q 449 198 434 183 q 460 225 460 209 q 458 249 460 239 q 452 275 457 259 q 427 329 442 302 q 396 380 412 355 q 390 389 393 384 q 382 397 387 393 l 378 403 z "},"%":{"ha":892,"x_min":49,"x_max":857,"o":"m 610 681 q 483 442 552 560 q 412 320 448 382 q 335 199 376 258 q 245 88 294 140 q 137 -3 197 37 q 96 -9 115 -18 q 66 16 76 -1 q 58 54 56 33 q 83 91 61 76 q 182 177 138 126 q 260 282 225 228 q 334 402 300 342 q 406 524 369 463 q 471 644 441 583 q 532 768 500 705 q 598 887 563 829 q 685 991 633 945 q 726 1006 704 1009 q 762 988 747 1002 q 779 954 777 974 q 762 916 781 933 q 675 806 709 868 q 610 681 642 745 m 600 444 q 681 459 640 464 q 756 433 722 454 q 815 376 791 411 q 849 301 840 342 q 857 226 857 266 q 846 149 857 186 q 814 79 836 111 q 757 30 792 47 q 675 12 718 11 q 594 30 633 14 q 515 83 547 49 q 475 170 483 118 q 473 180 473 179 q 472 184 472 182 q 480 265 472 228 q 505 337 488 302 q 545 400 521 372 q 600 444 568 429 m 712 130 q 748 201 741 157 q 741 288 755 245 q 739 296 738 297 q 734 304 739 294 q 727 315 732 305 q 726 319 722 324 q 707 337 716 330 q 684 350 697 345 q 669 353 677 353 q 659 353 662 354 q 650 348 656 351 q 637 339 643 345 q 610 303 623 324 q 591 260 598 282 q 587 248 589 254 q 585 235 586 241 q 582 223 583 232 q 581 217 581 214 q 581 190 579 203 q 587 166 583 178 q 600 148 591 155 q 618 136 606 141 q 642 127 629 130 q 667 120 658 122 q 692 121 677 118 q 709 129 704 126 q 712 130 713 132 m 258 1008 q 305 994 282 1004 q 347 967 328 983 q 381 930 366 951 q 404 886 396 909 q 416 800 418 845 q 404 715 415 755 q 374 635 393 674 q 320 570 355 597 q 249 538 290 547 q 171 536 208 529 q 113 562 137 541 q 75 609 90 582 q 55 669 61 636 q 49 731 49 701 q 62 846 49 788 q 109 949 75 903 l 118 962 q 258 1008 175 1023 m 307 776 q 308 809 308 791 q 305 836 308 827 q 301 856 302 850 q 290 871 300 861 q 242 901 267 894 q 194 884 217 907 q 184 869 184 872 q 180 863 183 865 q 178 854 180 861 q 175 845 175 848 q 172 835 172 840 q 168 823 171 830 q 165 810 167 817 q 163 798 164 804 q 160 786 161 795 q 160 780 159 777 q 157 758 157 769 q 157 735 157 746 l 157 708 q 161 685 160 690 q 164 674 163 680 q 173 657 170 662 q 176 651 176 652 q 190 642 189 643 q 194 642 191 642 q 208 642 201 639 q 226 646 220 644 q 239 650 232 647 q 259 659 250 652 q 294 720 283 692 q 307 776 304 749 z "},"&":{"ha":787,"x_min":24,"x_max":764,"o":"m 732 121 q 757 88 750 109 q 751 47 764 68 q 718 22 741 28 q 678 27 696 15 q 624 71 650 47 q 574 118 598 94 q 509 56 548 88 q 386 -16 456 12 q 247 -46 316 -43 q 170 -37 208 -47 q 100 1 132 -26 q 48 72 65 30 q 28 157 31 114 q 35 254 24 206 q 68 347 46 302 q 122 429 91 391 q 190 498 153 467 q 216 519 203 509 q 240 541 228 530 q 231 557 236 547 q 186 662 203 608 q 182 773 170 716 q 231 869 193 825 q 319 939 269 914 q 424 964 369 964 q 524 924 479 963 q 579 842 563 888 q 574 745 595 796 q 523 664 555 700 q 456 595 491 628 q 418 560 437 578 q 381 524 400 543 q 406 492 393 509 q 431 461 418 476 q 501 374 467 418 q 571 288 536 331 q 602 341 587 315 q 632 393 617 368 q 667 418 646 415 q 705 410 688 420 q 731 380 723 400 q 726 339 739 361 q 685 270 705 304 q 642 203 665 236 q 685 160 663 180 q 732 121 707 140 m 308 796 q 285 722 281 762 q 307 644 289 681 q 321 617 312 631 q 382 673 353 644 q 439 732 412 701 q 463 764 452 747 q 477 798 475 780 q 454 841 481 818 q 417 856 438 856 q 376 848 396 856 q 337 825 355 840 q 308 796 319 810 m 477 174 q 503 199 491 186 q 434 286 468 243 q 365 372 400 330 q 301 452 331 412 q 249 408 274 430 q 203 359 224 387 q 157 279 176 324 q 136 189 137 235 q 139 145 136 167 q 152 106 142 123 q 166 85 160 91 q 187 72 172 79 q 241 62 206 62 q 273 64 260 62 q 304 72 285 66 q 366 93 338 81 q 423 126 393 104 l 442 141 q 477 174 463 157 z "},"'":{"ha":218,"x_min":39,"x_max":164,"o":"m 151 628 q 136 588 152 601 q 99 575 119 575 q 61 588 79 575 q 42 628 43 601 q 43 715 39 671 q 50 803 46 760 q 55 890 53 846 q 53 978 57 935 q 69 1017 52 1001 q 107 1032 87 1032 q 145 1017 130 1032 q 161 978 160 1001 q 162 890 164 935 q 157 803 160 846 q 151 715 153 760 q 151 628 148 671 z "},"(":{"ha":355,"x_min":54,"x_max":372,"o":"m 326 -111 q 251 -115 285 -122 q 191 -86 217 -107 q 145 -35 164 -65 q 114 31 126 -4 q 82 172 91 100 q 69 316 73 244 q 61 435 65 376 q 56 553 57 494 q 60 713 54 627 q 92 878 66 799 q 166 1019 117 958 q 301 1103 216 1080 q 344 1097 327 1109 q 366 1064 361 1084 q 363 1025 372 1044 q 331 998 355 1005 q 265 965 292 987 q 220 905 239 943 q 176 762 186 840 q 164 609 165 685 q 167 486 163 547 q 175 362 171 425 q 183 227 178 290 q 208 95 189 163 q 213 77 210 85 q 218 60 216 69 q 223 47 222 47 q 224 45 224 46 q 231 30 228 35 q 239 19 235 24 q 247 7 247 7 l 259 -5 q 273 -10 271 -9 q 275 -11 274 -11 q 292 -9 290 -9 q 296 -8 293 -8 q 338 -14 321 -1 q 361 -46 355 -27 q 358 -85 366 -65 q 326 -111 350 -104 z "},")":{"ha":355,"x_min":-18,"x_max":300,"o":"m 30 1103 q 104 1106 71 1114 q 163 1078 137 1099 q 210 1025 190 1057 q 241 960 229 994 q 273 819 264 891 q 286 675 281 747 q 293 557 289 616 q 298 438 297 498 q 294 279 300 365 q 263 113 288 193 q 189 -28 239 34 q 53 -111 138 -90 q 11 -105 28 -118 q -12 -73 -7 -92 q -9 -35 -18 -54 q 24 -8 -1 -15 q 90 26 64 3 q 136 87 115 49 q 180 229 170 152 q 191 382 190 307 q 188 506 193 445 q 180 629 183 567 q 172 765 176 701 q 148 897 167 829 q 142 913 145 905 q 137 930 140 922 q 131 946 132 944 q 129 949 130 948 q 117 972 125 963 l 109 985 q 96 996 98 996 q 82 1002 84 1001 q 79 1002 80 1002 q 58 998 64 1001 q 17 1004 34 991 q -5 1037 0 1017 q -3 1076 -11 1057 q 30 1103 5 1096 z "},"*":{"ha":632,"x_min":24,"x_max":605,"o":"m 552 810 q 591 793 578 810 q 605 755 605 776 q 591 718 605 735 q 552 701 578 701 q 500 703 526 703 q 449 703 475 703 q 486 621 471 663 q 507 532 500 579 q 491 494 510 510 q 453 477 472 477 q 415 494 429 477 q 399 532 401 510 q 381 600 395 567 q 349 663 368 632 q 286 573 321 614 q 201 503 250 532 q 158 497 178 490 q 128 522 138 505 q 121 561 118 540 q 146 595 123 582 q 199 639 178 614 q 240 692 221 663 q 168 683 203 689 q 95 670 132 677 q 52 678 69 665 q 30 711 35 692 q 33 749 24 730 q 66 773 41 768 q 154 790 110 784 q 243 800 198 796 q 187 861 216 831 q 132 922 159 891 q 117 964 114 943 q 136 1000 121 986 q 171 1017 151 1015 q 209 1000 191 1019 q 268 935 237 967 q 328 868 298 902 q 368 933 346 902 q 416 991 389 964 q 456 1006 435 1009 q 492 989 477 1004 q 509 954 506 975 q 492 914 511 933 q 452 865 469 891 q 419 810 434 838 l 552 810 z "},"+":{"ha":579,"x_min":-4,"x_max":557,"o":"m 506 473 q 545 456 532 473 q 557 419 557 439 q 545 382 557 399 q 506 365 532 365 q 426 365 467 363 q 346 368 385 366 q 348 293 347 330 q 349 218 349 256 q 332 178 349 191 q 294 165 315 165 q 258 178 274 165 q 241 218 241 191 q 240 294 241 256 q 237 369 239 331 q 153 366 194 369 q 68 357 111 363 q 27 363 46 354 q 1 395 8 372 q 7 435 -4 414 q 39 461 18 457 q 139 472 90 469 q 240 476 189 475 q 244 542 241 509 q 250 609 247 575 q 267 647 252 631 q 304 663 281 663 q 342 647 324 663 q 358 609 361 631 q 353 542 355 575 q 347 475 350 509 q 427 473 387 473 q 506 473 467 472 z "},",":{"ha":199,"x_min":-75,"x_max":176,"o":"m 65 88 q 92 122 72 114 q 131 125 111 130 q 163 102 151 119 q 170 60 176 84 q 113 -79 151 -16 q -1 -172 75 -142 q -41 -168 -22 -180 q -68 -134 -61 -155 q -62 -94 -75 -111 q -30 -68 -50 -77 q 9 -41 -7 -58 q 35 -2 24 -23 q 53 43 46 19 q 65 88 60 66 z "},"-":{"ha":647,"x_min":23,"x_max":620,"o":"m 567 456 q 606 437 593 454 q 620 400 620 420 q 606 363 620 380 q 567 347 593 347 q 450 353 509 349 q 332 359 391 357 q 214 358 273 361 q 96 346 155 355 q 55 351 73 342 q 30 382 37 359 q 34 425 23 403 q 68 449 45 446 q 193 463 130 460 q 317 465 255 467 q 442 460 380 464 q 567 456 505 457 z "},".":{"ha":194,"x_min":24,"x_max":171,"o":"m 134 95 q 161 62 152 84 q 164 22 171 41 q 137 -12 156 -1 q 99 -28 122 -28 q 61 -12 76 -27 q 35 15 41 4 q 29 53 24 34 q 50 85 34 72 q 57 92 53 88 q 65 98 61 95 q 79 103 77 103 q 95 106 81 103 q 111 103 106 106 q 134 95 125 100 z "},"/":{"ha":494,"x_min":-18,"x_max":513,"o":"m 407 1021 q 440 1048 419 1044 q 478 1041 461 1051 q 504 1010 495 1031 q 500 967 513 990 q 389 724 439 848 q 290 474 338 600 q 194 224 243 349 q 87 -22 145 99 q 54 -47 76 -42 q 12 -41 31 -52 q -13 -8 -8 -30 q -7 33 -18 14 q 100 278 52 153 q 197 528 149 403 q 295 778 244 654 q 407 1021 346 902 z "},":":{"ha":216,"x_min":24,"x_max":193,"o":"m 134 95 q 161 62 152 84 q 164 22 171 41 q 137 -12 156 -1 q 99 -28 122 -28 q 61 -12 76 -27 q 35 15 41 4 q 29 53 24 34 q 50 85 34 72 q 57 92 53 88 q 65 98 61 95 q 79 103 77 103 q 95 106 81 103 q 111 103 106 106 q 134 95 125 100 m 156 491 q 183 459 174 480 q 186 419 193 438 q 160 384 180 400 q 122 369 145 368 q 84 385 99 370 q 57 411 65 397 q 52 450 46 430 q 72 481 57 469 q 88 494 81 491 q 102 500 99 499 q 117 502 104 500 q 126 502 121 503 q 134 500 132 500 q 146 496 141 499 q 156 491 151 494 z "},";":{"ha":220,"x_min":-75,"x_max":182,"o":"m 145 480 q 172 448 163 469 q 175 407 182 427 q 149 373 170 387 q 111 357 134 357 q 73 373 88 358 q 46 400 54 387 q 41 439 35 419 q 61 471 46 458 q 68 477 65 473 q 77 483 72 480 q 91 488 88 488 q 106 491 94 488 q 123 488 115 491 q 135 486 130 488 q 145 480 140 483 m 65 88 q 92 122 72 114 q 131 125 111 130 q 163 102 151 119 q 170 60 176 84 q 113 -79 151 -16 q -1 -172 75 -142 q -41 -168 -22 -180 q -68 -134 -61 -155 q -62 -94 -75 -111 q -30 -68 -50 -77 q 9 -41 -7 -58 q 35 -2 24 -23 q 53 43 46 19 q 65 88 60 66 z "},"<":{"ha":624,"x_min":8,"x_max":595,"o":"m 544 639 q 583 623 570 639 q 595 586 595 606 q 583 548 595 566 q 544 530 570 530 q 524 525 529 528 q 471 509 495 518 q 343 460 407 487 q 271 424 307 442 q 199 384 235 406 q 183 374 191 378 q 168 363 175 369 q 340 284 250 317 q 517 209 430 251 q 543 176 537 198 q 537 134 548 153 q 504 109 525 114 q 463 115 483 104 q 357 161 411 140 q 250 204 304 183 q 144 248 197 225 q 41 300 91 271 q 16 332 23 309 q 22 373 8 355 q 77 431 46 406 q 144 479 109 457 q 216 518 179 500 q 289 552 254 536 q 368 585 328 570 q 446 616 407 601 q 494 630 469 623 q 544 639 519 637 z "},"=":{"ha":735,"x_min":28,"x_max":707,"o":"m 91 435 q 52 451 68 433 q 37 490 37 469 q 52 526 37 513 q 91 543 68 540 q 230 552 160 551 q 370 553 300 553 q 511 550 441 552 q 650 549 581 548 q 688 534 675 551 q 701 498 701 518 q 688 460 701 477 q 650 442 675 442 q 511 441 581 439 q 370 444 441 444 q 230 444 300 445 q 91 435 160 444 m 655 323 q 694 307 681 323 q 707 270 707 290 q 694 232 707 250 q 655 214 681 214 q 511 216 583 213 q 368 220 439 218 q 224 222 296 222 q 80 218 152 222 q 41 233 54 217 q 28 269 28 248 q 41 307 28 289 q 80 327 54 324 q 224 331 152 331 q 368 329 296 331 q 511 324 439 327 q 655 323 583 321 z "},">":{"ha":590,"x_min":24,"x_max":578,"o":"m 331 555 q 454 501 395 532 q 560 422 513 471 q 576 383 575 407 q 560 345 578 359 q 446 272 507 301 q 323 210 384 243 q 229 155 275 183 q 137 98 183 126 q 94 92 114 84 q 64 117 75 99 q 57 156 54 134 q 81 191 60 178 q 175 248 129 220 q 269 302 221 277 q 351 345 308 326 q 434 387 395 363 q 365 425 401 410 q 289 454 328 441 q 178 496 232 475 q 66 532 125 517 q 33 558 41 538 q 30 597 24 578 q 52 629 35 616 q 95 636 69 642 q 214 598 156 621 q 331 555 271 575 z "},"?":{"ha":631,"x_min":14,"x_max":597,"o":"m 307 985 q 395 959 349 975 q 481 917 441 943 q 552 855 522 891 q 590 770 582 819 q 595 704 597 738 q 572 642 594 670 q 527 600 553 616 q 469 575 500 585 q 412 562 441 567 q 355 552 384 557 q 326 547 340 549 q 297 540 312 544 q 284 536 290 537 q 271 533 278 536 q 245 519 254 525 q 237 509 237 511 q 235 506 236 507 q 235 488 233 492 q 241 460 235 476 q 252 433 248 445 q 263 405 258 418 q 273 377 269 392 q 289 320 283 349 q 296 260 294 292 q 279 220 296 233 q 243 208 263 208 q 205 221 222 208 q 187 260 189 235 q 177 323 187 293 q 155 385 167 354 q 140 429 146 407 q 130 473 133 450 q 128 517 126 495 q 141 562 130 540 q 181 606 156 589 q 235 633 206 623 q 290 649 262 643 q 346 659 317 655 q 401 669 374 663 q 456 685 429 674 q 472 693 467 689 q 484 704 480 700 q 486 716 487 712 q 486 724 486 720 q 486 732 486 728 q 488 731 487 735 q 484 749 486 741 q 480 765 483 757 q 466 787 476 776 q 445 810 456 799 q 370 852 414 837 q 286 879 327 868 q 177 897 232 891 q 66 903 122 902 q 26 922 39 905 q 14 959 14 939 q 26 996 14 979 q 66 1012 39 1012 q 187 1004 127 1009 q 307 985 247 998 m 293 95 q 321 62 312 84 q 323 22 330 41 q 297 -12 317 0 q 259 -28 282 -28 q 221 -12 236 -27 q 195 15 201 4 q 189 53 184 34 q 210 85 194 72 q 217 92 213 88 q 225 98 221 95 q 239 103 237 103 q 255 106 241 103 q 271 103 266 106 q 293 95 282 102 z "},"@":{"ha":937,"x_min":18,"x_max":910,"o":"m 530 -11 q 434 -13 483 -14 q 338 -3 385 -12 q 164 84 239 18 q 58 247 90 151 q 21 496 18 370 q 81 741 24 623 q 133 837 104 788 q 201 921 161 886 q 403 1016 288 1000 q 463 1023 434 1020 q 522 1023 492 1025 q 573 1021 545 1021 q 624 1012 601 1020 q 664 994 646 1005 q 701 968 682 982 q 730 951 716 959 q 758 935 745 944 q 825 862 800 905 q 867 772 850 819 q 898 659 886 718 q 910 541 910 601 q 869 339 907 437 q 833 255 854 297 q 777 184 812 213 q 685 153 734 149 q 591 184 636 156 q 517 267 538 218 q 402 268 460 258 q 302 324 345 278 q 246 434 259 372 q 241 560 233 496 q 252 616 245 589 q 273 669 259 644 q 307 711 286 693 q 357 739 327 730 q 447 751 400 754 q 538 741 494 747 q 566 784 544 773 q 606 789 587 795 q 639 764 629 783 q 644 723 648 745 q 630 614 633 667 q 624 503 627 560 q 614 420 621 458 q 610 338 608 381 q 613 317 610 328 q 621 300 616 305 q 681 262 647 271 q 696 260 693 259 q 709 269 704 263 q 746 321 730 289 q 779 400 765 358 q 799 483 792 442 q 800 590 806 536 q 779 696 793 644 q 754 768 768 731 q 713 831 741 806 q 689 849 703 842 q 663 864 675 856 q 633 886 648 875 q 602 905 618 897 q 581 910 589 909 q 575 911 572 911 l 522 916 q 473 916 498 916 q 423 910 448 916 q 330 881 376 902 q 254 819 283 860 q 149 616 184 726 q 134 388 114 506 q 157 292 144 339 q 201 203 171 244 q 259 144 224 168 q 334 110 294 121 q 420 96 376 99 q 507 96 464 94 q 588 104 547 98 q 661 132 629 110 q 701 138 678 145 q 734 113 723 130 q 740 72 746 92 q 715 39 734 52 q 627 1 675 11 q 530 -11 578 -8 m 517 513 q 521 574 519 544 q 525 633 522 604 q 493 637 509 636 q 461 640 477 639 q 439 642 450 642 q 418 642 429 642 q 400 639 403 639 q 395 637 397 639 q 377 631 382 633 q 368 620 368 621 q 359 607 361 609 q 355 590 358 605 q 351 571 353 581 q 349 553 350 562 q 349 467 345 509 q 380 400 353 426 q 392 389 388 392 q 408 378 396 385 q 413 378 406 381 q 423 374 420 374 q 433 372 429 373 q 442 370 437 370 q 472 370 456 368 q 503 374 488 372 q 505 392 505 384 q 507 408 506 400 q 513 458 510 430 q 517 513 515 486 z "},"A":{"ha":749,"x_min":42,"x_max":730,"o":"m 149 18 q 132 -21 149 -8 q 95 -34 115 -34 q 58 -21 75 -34 q 42 18 42 -8 q 66 221 42 123 q 127 415 91 319 q 122 454 118 433 q 157 490 130 483 q 214 619 184 555 q 270 749 243 684 q 320 880 297 814 q 358 1016 343 947 q 375 1051 362 1036 q 411 1066 388 1066 q 450 1050 433 1066 q 465 1012 468 1035 q 468 867 461 933 q 488 737 475 802 q 519 608 502 673 q 551 480 536 544 q 578 358 566 419 q 617 240 590 297 q 646 185 631 212 q 678 132 661 159 q 708 81 694 107 q 727 23 722 54 q 721 -18 730 1 q 689 -43 712 -37 q 648 -38 670 -49 q 623 -5 627 -27 q 602 50 617 26 q 570 100 586 75 q 535 161 551 130 q 507 224 519 191 q 484 292 494 258 q 467 362 475 327 q 347 368 406 366 q 228 377 288 370 q 173 201 195 290 q 149 18 151 111 m 277 498 q 273 489 274 494 q 270 480 273 484 q 355 475 313 476 q 441 472 397 475 q 409 602 426 537 q 378 732 392 666 q 328 615 354 673 q 277 498 302 557 z "},"B":{"ha":693,"x_min":49,"x_max":669,"o":"m 102 479 q 64 494 80 476 q 49 532 49 511 q 64 570 49 556 q 103 586 80 583 q 119 761 115 674 q 125 936 122 848 q 96 954 107 941 q 84 987 84 967 q 100 1026 84 1008 q 138 1042 115 1044 q 239 1030 189 1036 q 341 1015 290 1024 q 441 990 392 1005 q 536 952 491 975 q 595 913 567 937 q 641 861 623 890 q 664 798 659 831 q 654 727 669 764 q 580 615 627 661 q 468 543 533 570 q 441 532 454 536 q 414 522 427 528 q 456 494 434 511 q 538 405 503 454 q 601 300 574 355 q 631 236 616 269 q 648 168 647 203 q 622 94 650 125 q 557 47 594 64 q 359 -2 460 5 q 153 0 258 -9 q 115 -7 136 -9 q 84 12 95 -5 q 64 31 72 19 q 56 58 56 42 q 59 77 56 68 q 68 92 62 85 q 73 176 66 134 q 87 259 80 217 q 98 368 96 313 q 103 477 100 423 l 102 479 m 232 922 q 226 759 229 841 q 218 595 222 677 q 322 611 270 601 q 422 640 374 621 q 465 661 441 647 q 500 685 488 674 q 530 718 519 704 q 552 758 540 731 q 551 761 549 754 q 555 773 553 768 q 555 779 555 774 q 556 788 556 784 q 550 806 552 802 q 545 812 548 810 q 541 819 545 814 q 533 826 536 825 q 518 838 526 833 q 494 852 507 845 q 471 864 481 860 q 353 901 414 887 q 232 922 293 914 m 197 260 q 182 184 190 222 q 175 106 175 145 q 340 104 258 99 q 500 140 422 109 q 533 156 517 145 q 537 175 540 170 q 522 216 530 197 q 500 259 513 236 q 477 303 490 282 q 450 345 465 324 l 437 361 l 420 381 q 399 401 411 391 q 381 415 388 411 q 300 458 342 444 q 212 477 258 473 q 207 369 209 423 q 197 260 205 315 z "},"C":{"ha":688,"x_min":16,"x_max":682,"o":"m 77 220 q 33 381 45 298 q 21 477 26 429 q 30 572 16 525 q 47 630 37 602 q 69 686 58 658 q 81 730 77 708 q 91 774 84 751 q 132 859 104 823 q 203 918 159 895 q 290 955 245 941 q 381 977 335 968 q 466 989 423 985 q 552 987 509 993 q 591 971 575 985 q 606 935 606 958 q 591 896 606 914 q 552 880 575 878 q 544 881 548 880 q 536 882 540 882 q 454 880 495 884 q 373 865 412 875 q 327 852 350 859 q 282 837 304 846 q 252 822 267 830 q 237 812 241 817 q 203 772 212 791 q 191 732 195 753 q 182 689 186 711 q 171 648 178 667 q 149 593 160 621 q 132 534 138 564 q 129 494 127 514 q 133 453 130 473 q 142 380 136 418 q 159 307 148 342 q 188 239 170 271 q 233 183 206 208 q 311 142 267 155 q 397 123 354 129 q 503 122 452 115 q 601 160 555 129 q 642 166 623 174 q 672 142 662 159 q 680 102 682 125 q 656 66 678 80 q 517 16 591 23 q 369 19 444 8 q 271 40 319 26 q 183 85 224 54 q 77 220 113 137 z "},"D":{"ha":773,"x_min":49,"x_max":712,"o":"m 709 335 q 661 188 703 252 q 549 79 618 123 q 450 27 503 50 q 345 -8 397 4 q 252 -18 297 -19 q 160 -11 206 -16 q 134 -28 149 -23 q 103 -28 118 -33 q 65 11 72 -20 q 49 50 49 27 q 76 98 49 80 q 89 206 84 152 q 96 316 94 260 q 103 445 100 381 q 104 574 106 509 q 102 658 104 614 q 99 744 99 701 q 104 829 99 787 q 123 910 109 871 q 126 955 117 932 q 163 983 136 978 q 201 1000 179 1001 q 239 985 224 998 q 368 960 305 979 q 484 897 431 940 q 589 772 549 845 q 652 623 628 700 q 675 553 663 589 q 695 481 686 518 q 708 408 704 445 q 709 335 712 372 m 483 165 q 515 187 500 176 q 544 213 529 198 q 563 235 556 227 q 579 259 570 243 q 601 366 602 307 q 595 429 601 400 q 579 495 590 458 q 557 570 568 533 q 530 643 545 608 q 501 707 519 673 q 464 765 483 742 q 357 847 416 822 q 227 876 297 872 q 208 797 212 838 q 206 713 205 755 q 211 629 208 671 q 213 548 214 587 q 203 320 208 433 q 183 94 198 208 q 233 90 208 91 q 282 91 258 88 q 386 117 334 96 q 483 165 438 138 z "},"E":{"ha":705,"x_min":23,"x_max":651,"o":"m 62 817 q 30 852 35 825 q 34 893 23 871 q 68 918 45 916 q 332 941 199 939 q 597 944 464 943 q 636 928 623 944 q 650 891 650 911 q 636 854 650 871 q 597 837 623 837 q 384 834 491 834 q 170 823 277 834 q 176 715 172 769 q 184 608 180 662 q 390 621 288 613 q 595 624 492 629 q 635 605 621 623 q 648 567 648 587 q 635 530 648 547 q 595 515 621 514 q 394 513 494 521 q 193 499 294 505 q 208 304 201 401 q 218 110 216 208 q 315 131 266 121 q 412 147 363 141 q 510 153 461 153 q 608 145 559 153 q 640 119 629 141 q 646 79 651 98 q 620 46 639 56 q 578 41 601 37 q 490 46 534 49 q 401 37 445 43 q 302 18 351 28 q 203 -5 252 7 q 160 3 180 -11 q 126 18 141 5 q 111 54 111 30 q 101 282 109 170 q 84 509 94 395 q 67 546 69 524 q 79 585 65 568 q 62 817 68 700 z "},"F":{"ha":633,"x_min":53,"x_max":730,"o":"m 110 -43 q 71 -27 90 -43 q 56 11 53 -11 q 77 445 77 228 q 76 880 77 662 q 64 918 65 897 q 79 954 64 939 q 111 985 87 978 q 157 981 136 991 q 286 996 221 994 q 416 996 351 998 q 547 992 481 994 q 678 994 613 990 q 717 980 704 996 q 730 944 730 964 q 717 905 730 924 q 678 886 704 887 q 555 884 617 882 q 430 889 492 887 q 307 890 368 891 q 184 876 245 888 q 185 690 184 783 q 186 505 186 598 q 271 506 228 505 q 357 507 315 507 q 443 504 400 507 q 528 491 486 500 q 562 465 553 484 q 564 427 570 446 q 542 393 559 407 q 499 387 525 380 q 342 400 422 404 q 184 396 263 396 q 178 204 182 300 q 164 11 174 109 q 147 -27 161 -11 q 110 -43 133 -43 z "},"G":{"ha":814,"x_min":5,"x_max":768,"o":"m 212 -23 q 138 41 171 3 q 81 123 106 79 q 41 216 57 168 q 16 311 24 263 q 7 402 8 355 q 19 494 5 449 q 48 562 30 529 q 88 624 66 594 q 206 762 141 697 q 349 876 271 827 q 422 917 384 899 q 501 943 461 935 q 582 947 541 951 q 663 925 623 944 q 689 892 684 916 q 684 852 694 869 q 650 827 671 831 q 609 833 629 823 q 551 841 586 844 q 517 836 537 841 q 479 823 498 831 q 401 782 439 808 q 328 727 362 755 q 216 615 269 675 q 129 484 164 555 q 121 456 125 475 q 115 423 117 437 q 119 346 113 384 q 142 257 127 301 q 179 174 156 213 q 230 101 201 137 q 302 54 259 65 q 397 60 349 42 q 418 68 408 64 q 438 79 427 73 q 446 84 442 81 q 454 90 450 87 q 510 146 486 117 q 556 209 534 176 q 578 248 567 228 q 597 286 590 267 q 608 318 604 304 q 612 347 612 332 q 585 353 598 353 q 556 353 571 353 q 481 347 518 351 q 404 343 444 343 q 366 360 378 343 q 353 397 353 377 q 366 434 353 418 q 404 450 378 450 q 477 454 441 450 q 551 460 514 458 q 623 457 587 461 q 693 438 658 453 q 753 389 728 425 q 766 338 768 366 q 764 282 764 309 q 760 166 761 224 q 758 52 760 109 q 741 12 758 24 q 703 -1 723 -1 q 666 12 682 -1 q 650 52 650 24 q 651 106 651 79 q 652 160 651 133 q 564 45 613 98 q 488 -16 532 9 q 398 -52 445 -41 q 302 -57 351 -62 q 212 -23 254 -52 z "},"H":{"ha":735,"x_min":37,"x_max":667,"o":"m 76 463 q 74 691 77 578 q 43 917 71 804 q 50 960 37 943 q 83 982 64 977 q 122 979 103 987 q 148 945 141 971 q 179 713 176 830 q 180 476 182 595 q 264 467 222 472 q 349 460 307 463 q 432 460 391 458 q 514 473 473 463 q 537 475 525 477 q 548 595 541 536 q 556 715 555 654 q 553 844 559 780 q 541 972 548 907 q 556 1010 538 994 q 595 1027 574 1027 q 632 1010 618 1027 q 648 972 646 994 q 661 844 655 907 q 665 715 667 780 q 654 588 662 650 q 644 461 647 526 q 635 249 637 355 q 639 37 632 142 q 624 -3 640 9 q 587 -16 608 -16 q 549 -3 567 -16 q 530 37 532 9 q 526 201 525 118 q 530 366 526 283 q 444 353 487 355 q 357 353 400 351 q 269 360 313 355 q 182 369 225 365 q 189 218 183 293 q 214 69 195 144 q 208 26 221 43 q 176 4 195 9 q 136 7 156 -1 q 111 41 117 15 q 83 215 88 127 q 76 392 77 302 q 65 427 65 407 q 76 463 65 448 z "},"I":{"ha":617,"x_min":-16,"x_max":636,"o":"m 24 0 q -8 27 0 7 q -11 66 -16 47 q 12 98 -5 85 q 53 104 28 111 q 161 84 107 88 q 273 83 216 80 q 250 276 250 179 q 257 470 250 373 q 272 665 264 567 q 273 860 279 762 q 169 865 221 861 q 65 875 117 868 q 26 891 42 878 q 11 928 11 905 q 26 966 11 948 q 65 982 42 985 q 191 970 127 975 q 316 967 254 966 q 440 978 378 968 q 563 1009 502 987 q 603 1004 583 1016 q 629 971 623 991 q 625 930 636 948 q 591 905 613 911 q 380 863 490 869 q 380 669 388 766 q 363 475 372 571 q 356 282 355 378 q 381 91 357 186 q 467 99 425 95 q 551 106 509 103 q 589 92 576 107 q 602 56 602 76 q 589 18 602 35 q 551 -1 576 0 q 418 -13 484 -5 q 287 -24 353 -20 q 155 -23 221 -27 q 24 0 90 -19 z "},"J":{"ha":639,"x_min":-41,"x_max":762,"o":"m 239 -50 q 157 -12 195 -37 q 86 45 119 14 q 24 112 53 76 q -27 186 -4 148 q -33 227 -41 208 q -7 257 -24 247 q 32 264 11 267 q 66 240 53 262 q 106 182 84 212 q 157 125 129 152 q 216 78 184 98 q 281 50 247 58 q 311 47 296 47 q 342 54 326 47 q 363 66 355 58 q 395 125 388 98 q 406 178 403 152 q 410 327 414 252 q 397 476 406 401 q 385 644 388 560 q 366 811 382 728 q 239 810 301 808 q 111 823 176 812 q 79 849 90 827 q 73 890 68 871 q 99 922 80 913 q 141 928 118 932 q 285 916 213 916 q 429 920 357 917 q 574 922 502 922 q 718 910 646 922 q 751 884 741 906 q 755 844 762 863 q 730 811 749 821 q 689 806 712 802 q 583 817 636 815 q 475 815 529 818 q 489 694 486 754 q 496 572 492 633 q 503 504 499 537 q 510 435 506 471 q 520 269 517 354 q 500 103 524 183 q 472 33 491 66 q 422 -24 453 -1 q 334 -58 382 -52 q 239 -50 285 -65 z "},"K":{"ha":665,"x_min":26,"x_max":703,"o":"m 73 461 q 56 687 68 575 q 28 911 43 799 q 35 953 26 935 q 66 978 43 971 q 108 973 85 983 q 133 940 130 963 q 160 722 148 830 q 179 502 172 613 q 201 505 191 506 q 312 553 258 525 q 412 618 366 581 q 471 680 446 647 q 517 751 496 712 q 557 829 536 791 q 608 901 578 868 q 646 918 625 920 q 682 901 667 916 q 699 865 696 887 q 685 825 703 844 q 635 747 654 789 q 593 666 616 705 q 476 532 548 590 q 400 479 439 503 q 319 437 361 456 q 374 401 347 420 q 422 354 400 381 q 468 290 446 323 q 517 225 490 256 q 570 173 543 198 q 624 122 597 148 q 640 83 643 104 q 623 48 637 62 q 587 31 609 34 q 547 45 566 27 q 492 96 519 71 q 441 149 465 122 q 392 211 414 179 q 347 274 370 243 q 275 338 317 315 q 191 388 233 362 q 183 319 183 351 q 182 254 183 286 q 180 141 180 197 q 189 28 179 85 q 182 -12 191 7 q 151 -38 174 -31 q 110 -33 132 -43 q 84 0 88 -22 q 71 197 68 98 q 75 396 75 297 q 73 449 60 422 l 73 461 z "},"L":{"ha":597,"x_min":60,"x_max":652,"o":"m 115 -11 q 81 1 94 -11 q 64 28 68 12 q 64 60 60 43 q 83 87 69 76 q 88 180 94 133 q 77 273 83 227 q 73 385 71 330 q 84 496 76 439 q 102 610 92 553 q 118 723 111 666 q 130 844 125 784 q 137 964 134 903 q 155 1004 137 990 q 193 1017 172 1017 q 229 1004 213 1017 q 244 964 245 990 q 237 838 241 901 q 225 711 232 776 q 208 594 218 651 q 190 477 198 537 q 182 366 182 420 q 189 254 182 311 q 196 175 193 214 q 194 96 199 136 q 397 86 296 94 q 601 75 499 79 q 640 56 627 73 q 652 18 652 38 q 640 -19 652 -3 q 601 -34 627 -35 q 357 -20 477 -28 q 115 -11 237 -11 z "},"M":{"ha":880,"x_min":83,"x_max":791,"o":"m 191 27 q 174 -12 191 1 q 137 -24 157 -24 q 100 -12 117 -24 q 83 27 83 1 q 88 459 83 244 q 114 890 94 674 q 131 926 117 913 q 162 942 145 940 q 196 935 179 944 q 221 905 213 926 q 271 749 248 827 q 317 593 294 671 q 363 436 339 514 q 415 282 387 358 q 543 639 486 460 q 636 1006 601 818 q 655 1036 640 1027 q 688 1046 670 1046 q 722 1036 707 1046 q 741 1006 736 1027 q 748 886 751 945 q 745 766 745 827 q 752 639 745 701 q 765 513 760 576 q 781 258 776 385 q 791 3 787 130 q 774 -37 791 -24 q 738 -50 758 -50 q 700 -37 718 -50 q 682 3 682 -24 q 673 258 680 130 q 656 513 667 385 q 652 560 654 536 q 647 608 650 585 q 562 365 608 484 q 468 126 517 245 q 448 98 461 110 q 416 87 435 87 q 389 94 403 87 q 369 114 376 102 q 277 357 315 233 q 202 606 239 480 q 193 317 195 461 q 191 27 191 172 z "},"N":{"ha":693,"x_min":34,"x_max":659,"o":"m 60 795 q 55 800 57 798 q 50 806 53 803 q 35 840 34 822 q 45 873 35 859 q 73 895 56 887 q 107 895 90 902 q 149 885 129 898 q 168 844 168 872 q 298 681 237 761 q 410 511 359 601 q 452 428 433 471 q 490 342 472 385 q 494 452 490 397 q 506 563 499 506 q 535 795 521 680 q 551 1031 549 911 q 568 1069 551 1057 q 605 1082 585 1082 q 642 1069 625 1082 q 659 1031 659 1057 q 642 790 658 909 q 612 552 627 671 q 601 432 605 491 q 598 312 597 373 q 602 197 600 254 q 601 81 604 140 q 588 48 600 61 q 560 31 576 35 q 528 33 544 27 q 500 54 511 38 q 448 154 469 102 q 407 258 426 206 q 368 355 388 308 q 321 448 347 401 q 249 564 288 509 q 167 673 210 620 q 167 564 167 617 q 170 454 167 510 q 183 261 172 357 q 206 69 194 165 q 191 31 209 46 q 153 15 172 15 q 115 31 129 15 q 99 69 102 46 q 75 261 85 165 q 61 454 64 357 q 59 625 58 540 q 60 795 60 709 z "},"O":{"ha":758,"x_min":5,"x_max":741,"o":"m 203 66 q 147 119 172 90 q 102 180 122 148 q 65 241 83 209 q 34 308 47 274 q 13 377 20 342 q 8 448 5 412 q 22 584 12 517 q 50 716 33 651 q 64 770 56 741 q 85 828 72 800 q 115 879 98 856 q 160 914 133 902 q 241 927 201 932 q 321 905 282 922 q 395 862 359 887 q 461 812 430 837 q 517 764 490 789 q 575 716 545 739 q 646 654 610 685 q 705 582 682 623 q 736 489 732 536 q 730 397 741 442 q 696 308 719 351 q 646 224 673 264 q 589 149 621 189 q 519 77 557 110 q 436 26 480 45 q 343 12 392 7 q 301 34 315 16 q 251 45 275 38 q 203 66 227 52 m 117 457 q 120 395 114 423 q 141 331 126 366 q 183 252 160 292 q 237 179 206 212 q 300 142 264 149 q 345 135 323 138 q 388 125 366 132 q 404 131 396 127 q 420 141 412 134 q 463 174 444 156 q 499 210 481 191 q 565 293 533 248 q 616 385 597 338 q 631 475 635 433 q 591 556 627 517 q 520 623 559 593 q 445 685 481 654 q 384 736 414 712 q 319 783 354 761 q 255 815 286 804 q 248 817 251 817 q 240 819 244 818 l 220 821 q 206 815 209 818 q 195 804 197 804 q 183 781 186 788 q 175 760 180 774 q 152 680 161 720 q 136 601 142 640 q 124 529 129 562 q 117 457 119 496 z "},"P":{"ha":553,"x_min":54,"x_max":575,"o":"m 68 785 q 62 827 65 807 q 57 868 58 848 q 56 920 54 892 q 67 971 58 947 q 92 1015 76 996 q 137 1042 109 1034 q 225 1038 180 1054 q 309 1004 270 1023 q 384 963 347 985 q 460 922 420 941 q 500 902 480 913 q 536 877 521 891 q 562 843 552 863 q 574 798 572 823 q 565 745 575 770 q 544 694 555 719 q 388 441 483 559 q 309 360 353 397 q 209 312 264 323 q 237 160 221 235 q 273 9 252 85 q 267 -33 279 -16 q 235 -56 254 -50 q 195 -53 216 -61 q 168 -19 175 -45 q 102 313 125 146 q 72 651 79 479 q 71 696 71 674 q 69 741 71 718 q 69 759 69 750 q 68 776 69 768 l 68 785 m 164 917 q 167 853 163 887 q 169 834 168 838 q 170 827 170 830 l 174 803 q 178 720 178 762 q 182 602 180 661 q 190 483 184 543 q 192 450 191 467 q 195 419 193 434 q 214 427 209 423 q 225 433 220 430 q 237 442 233 438 q 294 496 271 469 q 338 552 317 524 q 418 681 382 614 q 431 709 425 696 q 445 736 438 722 q 450 749 448 743 q 456 761 453 754 q 465 788 463 777 q 461 802 465 798 q 433 817 442 812 q 357 855 393 836 q 281 897 320 875 q 242 917 262 907 q 201 933 222 926 q 192 936 197 935 q 183 937 187 937 q 172 938 174 939 q 170 937 171 937 q 166 929 167 933 q 164 922 165 925 l 164 917 z "},"Q":{"ha":765,"x_min":24,"x_max":707,"o":"m 231 52 q 124 145 167 88 q 58 270 81 202 q 30 412 35 338 q 34 557 24 486 q 48 644 39 600 q 72 732 57 689 q 109 815 87 776 q 163 886 132 854 q 288 951 217 939 q 429 935 358 963 q 563 848 502 905 q 658 720 624 792 q 702 549 697 639 q 684 372 707 458 q 614 203 661 282 q 645 166 629 184 q 678 129 661 148 q 692 88 696 110 q 675 52 689 66 q 640 36 661 38 q 601 53 618 34 q 551 111 575 80 q 487 46 524 79 q 448 13 469 31 q 403 -20 427 -5 q 353 -41 378 -34 q 302 -42 328 -49 q 252 -7 267 -34 q 231 52 237 20 m 170 677 q 137 509 144 595 q 149 342 130 423 q 191 237 164 285 q 264 157 218 189 q 278 159 269 159 q 308 150 296 159 q 327 126 320 141 q 361 84 357 114 q 389 104 378 96 q 411 123 400 113 q 450 161 431 142 q 483 202 468 180 q 447 253 465 228 q 410 302 429 278 q 393 341 395 320 q 410 378 392 362 q 448 395 425 393 q 486 378 471 396 q 515 340 500 359 q 544 301 529 320 q 579 397 566 349 q 595 496 593 446 q 588 593 597 545 q 555 682 579 640 q 517 738 538 711 q 470 787 496 765 q 414 824 444 808 q 351 845 384 840 q 300 845 328 850 q 254 822 273 840 q 201 755 221 793 q 170 677 182 718 z "},"R":{"ha":632,"x_min":5,"x_max":621,"o":"m 589 34 q 555 8 578 15 q 514 15 533 1 q 444 71 477 42 q 370 123 410 100 q 300 163 335 145 q 232 206 264 182 q 159 271 193 236 q 160 136 157 203 q 168 1 163 69 q 153 -37 171 -22 q 115 -53 136 -53 q 77 -37 91 -53 q 61 1 64 -22 q 52 193 53 99 q 56 384 50 288 q 34 414 45 399 q 14 446 23 430 q 7 477 5 463 q 18 503 9 492 q 40 521 27 514 q 68 526 53 528 q 75 589 71 557 q 83 652 79 621 q 90 695 87 674 q 96 738 94 716 q 100 758 99 749 q 103 779 100 768 q 106 792 103 784 q 107 827 107 810 q 109 861 107 844 q 113 908 110 883 q 124 957 117 933 q 145 1001 132 981 q 182 1032 159 1021 q 226 1043 203 1042 q 271 1040 248 1044 q 315 1029 293 1036 q 357 1013 336 1021 q 451 973 404 996 q 534 916 498 951 q 595 832 570 880 q 618 732 621 784 q 606 677 616 701 q 578 629 595 654 q 484 513 534 568 q 377 411 434 457 q 318 368 350 389 q 251 331 286 346 q 275 309 263 320 q 301 290 288 298 q 372 248 336 267 q 442 205 408 228 q 506 156 475 182 q 568 107 537 130 q 593 75 587 95 q 589 34 600 54 m 222 437 q 281 474 255 454 q 334 517 308 494 q 387 568 361 541 q 437 623 412 595 q 454 644 446 635 q 469 663 463 654 q 484 682 476 671 q 499 705 491 692 q 505 713 502 709 q 510 722 507 718 q 494 792 511 760 q 436 856 471 831 q 359 897 401 880 q 311 916 335 907 q 259 930 286 924 q 239 936 252 933 q 228 928 231 933 q 222 903 222 910 q 218 888 221 899 q 216 867 217 875 q 216 852 216 860 q 196 667 212 758 q 171 483 180 576 q 168 452 168 468 q 165 422 167 437 q 179 422 178 420 q 203 428 194 425 q 222 437 212 431 z "},"S":{"ha":571,"x_min":-14,"x_max":633,"o":"m 324 372 q 255 435 292 406 q 182 493 218 464 q 113 554 146 522 q 50 624 79 586 q 3 710 20 663 q -3 807 -14 757 q 50 902 8 861 q 141 966 92 943 q 248 998 194 989 q 358 1008 302 1006 q 470 1008 414 1010 q 582 1009 526 1006 q 621 994 608 1010 q 633 958 633 978 q 621 920 633 937 q 582 902 608 903 q 504 900 543 899 q 426 902 465 901 q 319 901 373 903 q 214 879 266 898 q 176 862 197 872 q 139 837 156 852 q 111 804 122 822 q 102 766 100 787 q 111 729 103 747 q 132 693 119 711 q 160 659 145 675 q 189 629 175 643 q 254 572 220 598 q 321 519 288 547 q 393 456 357 491 q 455 382 429 422 q 494 297 481 342 q 498 202 507 252 q 462 121 488 155 q 399 62 435 88 q 323 14 363 35 q 247 -28 283 -7 q 204 -34 224 -42 q 174 -8 184 -26 q 166 31 164 9 q 191 65 168 52 q 256 100 224 84 q 320 137 289 117 q 372 182 350 156 q 395 244 395 209 q 372 312 393 279 q 324 372 351 345 z "},"T":{"ha":532,"x_min":-35,"x_max":627,"o":"m 19 838 q -19 853 -3 836 q -35 892 -35 871 q -19 930 -35 916 q 19 947 -3 944 q 153 952 87 952 q 288 948 220 952 q 328 945 307 955 q 583 913 454 936 q 616 887 605 909 q 620 846 627 865 q 595 814 613 823 q 553 808 576 806 q 452 825 502 818 q 350 836 401 831 q 328 646 331 741 q 334 453 324 551 q 361 254 343 353 q 397 57 378 156 q 393 16 401 34 q 361 -9 384 -3 q 319 -5 340 -16 q 294 27 298 5 q 253 245 273 137 q 224 463 233 353 q 220 654 216 559 q 241 842 224 749 q 19 838 130 846 z "},"U":{"ha":671,"x_min":11,"x_max":631,"o":"m 54 369 q 34 638 39 505 q 14 906 28 772 q 29 945 11 929 q 68 960 47 960 q 106 945 92 960 q 122 906 119 929 q 136 745 132 825 q 145 585 141 666 q 165 346 151 467 q 169 312 167 331 q 172 283 171 293 q 178 247 175 264 q 186 212 182 229 q 204 150 194 178 q 235 103 214 122 l 247 96 q 266 94 258 94 q 294 101 275 95 q 326 117 312 107 q 388 178 362 141 q 433 254 414 214 q 471 343 454 297 q 498 437 487 389 q 522 677 525 556 q 503 917 518 798 q 519 955 500 939 q 556 971 537 971 q 594 955 581 971 q 610 917 608 939 q 629 653 628 787 q 597 392 631 519 q 568 297 585 346 q 530 203 552 248 q 477 116 507 157 q 410 45 448 75 q 326 -3 372 15 q 232 -11 279 -20 q 166 21 195 -4 q 119 77 137 46 q 73 220 84 145 q 54 369 62 296 z "},"V":{"ha":637,"x_min":3,"x_max":652,"o":"m 244 -4 q 161 227 195 109 q 102 466 127 346 q 56 707 77 586 q 8 948 34 829 q 16 991 3 974 q 50 1015 30 1009 q 88 1012 69 1020 q 113 978 107 1004 q 160 740 138 859 q 208 502 182 621 q 249 321 227 411 q 302 141 271 231 q 323 180 313 160 q 342 220 332 199 q 435 456 395 335 q 508 703 476 576 q 544 956 540 829 q 562 995 544 982 q 600 1008 579 1008 q 636 995 620 1008 q 651 956 652 982 q 614 684 648 819 q 537 419 581 549 q 488 288 514 353 q 433 159 463 224 q 385 68 410 113 q 330 -15 361 24 q 309 -28 321 -24 q 284 -31 297 -33 q 260 -22 271 -28 q 244 -4 250 -15 z "},"W":{"ha":1150,"x_min":-1,"x_max":1139,"o":"m 282 38 q 254 15 270 20 q 222 14 237 9 q 194 32 206 19 q 180 65 182 45 q 178 90 178 84 q 174 111 175 100 q 170 133 172 122 q 159 187 164 160 q 148 241 155 214 q 117 378 133 311 q 85 513 100 445 q 56 635 71 574 q 26 758 41 697 q 16 799 20 779 q 7 840 12 819 q 1 863 4 850 q 0 887 -1 876 q 17 926 3 910 q 54 941 31 941 q 93 926 75 941 q 109 887 111 910 q 111 873 110 879 q 114 861 111 868 q 123 819 118 840 q 132 779 127 799 q 162 653 146 715 q 193 529 178 591 q 223 395 208 461 q 254 260 239 328 q 259 235 256 247 q 264 210 262 222 q 351 351 309 279 q 429 496 392 422 q 509 685 473 587 q 551 884 544 783 q 567 920 552 906 q 600 936 582 933 q 634 930 617 939 q 656 898 651 921 q 698 722 680 811 q 736 544 716 632 q 781 369 755 456 q 844 199 806 282 q 913 307 883 251 q 962 427 943 363 q 1006 642 994 533 q 1028 861 1017 751 q 1045 899 1031 883 q 1082 916 1059 916 q 1121 900 1103 916 q 1137 861 1139 884 q 1112 622 1124 741 q 1063 388 1100 503 q 984 216 1032 294 q 871 64 936 137 q 825 48 853 45 q 785 75 798 52 q 722 209 749 140 q 674 349 694 278 q 637 492 654 419 q 606 636 621 564 q 526 452 571 543 q 411 241 473 343 q 282 38 349 138 z "},"X":{"ha":677,"x_min":23,"x_max":696,"o":"m 293 442 q 165 676 228 560 q 35 909 102 792 q 31 950 23 930 q 56 980 39 970 q 94 987 73 990 q 129 963 115 985 q 245 755 189 859 q 358 547 301 651 q 485 773 427 658 q 585 1012 543 888 q 613 1044 593 1036 q 653 1047 633 1053 q 684 1025 673 1042 q 688 983 696 1008 q 573 707 640 840 q 425 448 506 575 q 520 259 469 347 q 628 83 571 171 q 634 41 642 61 q 609 12 627 22 q 570 4 591 1 q 534 28 548 7 q 440 181 486 104 q 351 336 395 258 l 278 235 q 247 193 263 216 q 216 148 231 171 q 193 100 202 125 q 184 52 184 76 q 168 12 184 24 q 132 -1 152 -1 q 94 12 111 -1 q 76 52 76 24 q 105 168 76 113 q 170 270 134 222 q 232 356 201 313 q 293 442 263 399 z "},"Y":{"ha":540,"x_min":-99,"x_max":678,"o":"m -71 909 q -96 942 -94 921 q -89 981 -99 963 q -59 1006 -79 998 q -16 1002 -39 1015 q 103 907 56 964 q 182 776 151 849 q 222 682 202 728 q 273 597 241 636 q 363 693 323 640 q 439 804 404 746 q 507 921 475 861 q 571 1036 538 981 q 606 1061 585 1058 q 644 1053 627 1063 q 670 1023 662 1043 q 665 981 678 1004 q 595 859 629 921 q 523 738 560 798 q 443 623 486 678 q 349 521 400 568 q 341 276 343 397 q 349 31 339 155 q 332 -6 350 9 q 294 -22 315 -22 q 256 -6 271 -22 q 240 31 241 9 q 233 252 232 142 q 237 473 233 362 q 217 494 225 481 q 144 600 171 544 q 91 716 117 655 q 28 827 65 777 q -71 909 -9 876 z "},"Z":{"ha":723,"x_min":31,"x_max":715,"o":"m 642 258 q 682 252 662 264 q 708 220 701 240 q 703 178 715 197 q 670 153 690 160 q 524 96 595 126 q 374 45 452 65 q 297 28 336 34 q 219 22 258 22 q 142 31 180 22 q 69 61 104 41 q 44 94 49 72 q 49 134 39 115 q 170 341 102 244 q 317 530 239 438 q 444 678 381 605 q 563 833 506 751 q 452 867 510 856 q 334 881 393 879 q 216 878 275 883 q 103 861 157 872 q 62 867 81 857 q 37 899 43 876 q 41 941 31 920 q 75 966 52 962 q 224 985 146 979 q 378 985 301 991 q 530 958 456 979 q 669 899 604 937 q 694 867 688 888 q 689 826 700 845 q 552 642 625 728 q 404 467 479 555 q 279 307 338 388 q 171 136 220 225 q 271 132 220 123 q 370 156 323 141 q 506 204 439 176 q 642 258 572 232 z "},"[":{"ha":420,"x_min":69,"x_max":434,"o":"m 368 -69 q 246 -75 307 -77 q 125 -72 186 -73 q 87 -56 106 -71 q 72 -18 69 -41 q 83 209 84 96 q 79 437 81 321 q 76 623 76 530 q 72 808 76 715 q 69 884 69 846 q 72 962 69 922 q 79 1025 75 990 q 103 1085 84 1061 q 161 1128 127 1118 q 233 1139 195 1139 q 309 1133 271 1139 q 382 1127 347 1127 q 421 1109 408 1127 q 434 1072 434 1092 q 421 1035 434 1051 q 382 1019 408 1019 q 314 1025 347 1020 q 247 1031 281 1029 q 218 1031 231 1031 q 193 1025 206 1031 q 178 958 180 989 q 176 894 176 926 q 178 829 176 861 q 182 766 180 796 q 183 685 184 726 q 183 604 182 644 q 184 499 183 552 q 189 395 186 446 q 191 214 191 304 q 184 35 191 125 q 276 33 231 33 q 368 39 321 33 q 406 23 389 42 q 422 -15 422 4 q 406 -53 422 -39 q 368 -69 389 -66 z "},"\\":{"ha":472,"x_min":-19,"x_max":490,"o":"m 94 1002 q 192 754 137 876 q 301 510 247 632 q 404 264 355 388 q 484 9 453 140 q 477 -33 490 -16 q 444 -56 464 -50 q 405 -53 425 -61 q 380 -19 385 -45 q 300 235 349 111 q 197 481 252 359 q 87 726 142 604 q -11 974 33 848 q -7 1015 -19 998 q 24 1038 4 1032 q 64 1035 43 1043 q 94 1002 85 1027 z "},"]":{"ha":420,"x_min":-27,"x_max":338,"o":"m 39 1124 q 160 1131 100 1133 q 281 1127 220 1130 q 319 1111 301 1126 q 335 1073 338 1096 q 323 846 323 959 q 328 618 324 734 q 331 433 331 525 q 335 247 331 340 q 337 171 336 209 q 335 95 338 133 q 328 30 332 65 q 304 -30 323 -5 q 245 -73 279 -62 q 174 -84 212 -84 q 97 -78 136 -84 q 24 -72 58 -72 q -14 -54 -1 -72 q -27 -16 -27 -37 q -14 20 -27 4 q 24 37 -1 37 q 93 31 60 35 q 160 24 126 26 q 189 25 176 24 q 213 30 201 26 q 231 161 233 95 q 225 290 228 228 q 224 370 222 330 q 224 452 225 411 q 222 556 222 503 q 218 662 221 609 q 216 842 216 751 q 222 1021 216 932 q 131 1023 176 1023 q 39 1017 85 1023 q 1 1033 16 1015 q -15 1072 -15 1051 q 1 1108 -15 1095 q 39 1124 16 1122 z "},"^":{"ha":538,"x_min":26,"x_max":517,"o":"m 442 779 q 454 716 450 749 q 464 652 458 684 q 478 589 469 620 q 503 532 487 559 q 509 489 517 509 q 484 459 502 469 q 445 452 467 449 q 410 477 423 454 q 382 537 392 506 q 366 600 372 568 q 355 665 359 632 q 342 728 350 697 q 321 803 334 765 q 290 873 309 841 q 261 800 273 838 q 232 726 250 761 q 205 679 221 703 q 175 631 190 655 q 149 581 160 606 q 136 528 138 555 q 119 489 133 505 q 81 473 106 473 q 43 489 61 473 q 28 528 26 505 q 43 596 31 564 q 72 659 56 628 q 106 719 88 689 q 140 781 125 749 q 163 839 152 810 q 184 896 174 868 q 210 951 195 924 q 245 1002 225 978 q 283 1018 260 1020 q 323 1002 307 1016 q 399 900 372 960 q 442 779 426 840 z "},"_":{"ha":1146,"x_min":0,"x_max":1146,"o":"m 1095 71 q 1133 54 1120 71 q 1146 16 1146 37 q 1133 -20 1146 -4 q 1095 -37 1120 -37 q 834 -32 964 -35 q 574 -27 704 -28 q 314 -28 444 -26 q 54 -42 184 -31 q 16 -26 31 -43 q 0 12 0 -8 q 16 50 0 35 q 54 66 31 64 q 314 80 184 77 q 574 81 444 83 q 834 76 704 80 q 1095 71 964 72 z "},"`":{"ha":764,"x_min":229,"x_max":536,"o":"m 323 1004 q 412 943 366 970 q 506 891 457 916 q 532 859 529 879 q 525 821 536 838 q 494 794 514 803 q 450 798 473 785 q 247 926 345 852 q 231 965 229 941 q 247 1004 232 989 q 285 1019 264 1021 q 323 1004 305 1017 z "},"a":{"ha":674,"x_min":39,"x_max":606,"o":"m 159 37 q 86 93 113 57 q 50 172 60 129 q 43 262 39 216 q 62 353 47 309 q 90 423 75 387 q 127 491 106 460 q 179 545 149 522 q 250 574 209 567 q 334 578 292 581 q 419 570 377 576 q 456 561 438 567 q 491 548 473 555 q 509 582 492 568 q 545 595 526 595 q 583 580 568 595 q 600 543 597 564 q 606 418 606 480 q 602 293 605 355 q 596 168 598 231 q 597 43 594 106 q 581 5 598 18 q 544 -8 564 -8 q 507 5 524 -8 q 488 43 490 18 q 324 6 411 11 q 159 37 237 1 m 168 331 q 153 275 160 307 q 149 216 146 244 q 167 163 152 187 q 216 130 182 140 q 355 118 285 109 q 486 167 425 127 q 494 296 491 233 q 496 422 498 358 q 450 448 473 437 q 397 464 426 460 q 337 470 369 468 q 275 469 305 472 q 261 466 273 469 q 248 461 250 463 q 224 439 235 454 q 193 387 206 415 q 168 331 179 359 z "},"b":{"ha":699,"x_min":61,"x_max":666,"o":"m 62 1012 q 77 1051 61 1038 q 114 1065 94 1065 q 152 1051 134 1065 q 171 1012 170 1038 q 189 793 176 902 q 198 575 201 685 q 345 606 270 597 q 492 595 420 614 q 576 560 536 585 q 636 492 616 536 q 660 412 654 453 q 663 328 666 372 q 644 235 659 278 q 597 152 628 191 q 532 82 568 115 q 453 28 496 49 q 402 17 427 18 q 353 24 377 16 q 305 43 328 31 q 260 68 282 54 q 218 94 239 81 q 179 125 198 107 l 171 98 q 154 58 171 71 q 117 45 137 45 q 79 58 96 45 q 62 98 62 71 q 69 274 61 187 q 84 449 77 361 q 71 494 68 473 q 88 526 73 514 q 90 551 90 538 q 90 575 90 563 q 80 793 92 685 q 62 1012 68 902 m 191 456 q 184 362 189 408 q 176 269 180 316 q 235 219 208 245 q 296 174 262 193 q 318 158 304 168 q 348 138 332 148 q 379 124 363 129 q 406 126 395 119 q 460 162 434 141 q 507 210 486 183 q 541 266 528 236 q 555 328 553 296 q 555 388 557 357 q 540 445 553 419 q 497 481 525 471 q 439 496 469 492 q 314 493 377 506 q 191 456 251 480 z "},"c":{"ha":513,"x_min":24,"x_max":499,"o":"m 450 106 q 445 65 456 87 q 412 39 434 43 q 267 41 339 27 q 134 103 195 56 q 50 224 75 151 q 41 373 24 298 q 103 488 56 439 q 212 564 151 537 q 326 605 266 590 q 445 614 385 620 q 484 597 468 612 q 499 560 499 583 q 484 522 499 540 q 445 506 468 505 q 359 502 401 510 q 278 476 317 494 q 233 453 255 465 q 194 426 210 441 q 165 393 176 410 q 148 355 153 377 q 144 309 142 334 q 153 261 145 285 q 174 218 160 237 q 206 184 187 198 q 292 146 245 156 q 384 144 339 136 q 425 138 406 148 q 450 106 444 129 z "},"d":{"ha":623,"x_min":19,"x_max":548,"o":"m 206 495 q 311 547 255 525 q 426 567 368 568 q 417 796 420 682 q 412 1025 414 910 q 429 1064 412 1051 q 465 1077 445 1077 q 503 1064 486 1077 q 519 1025 519 1051 q 526 756 521 891 q 537 487 532 621 q 545 218 543 353 q 544 -52 548 83 q 525 -91 543 -77 q 487 -104 507 -104 q 450 -92 467 -104 q 435 -52 434 -79 q 435 -33 435 -42 q 437 -14 435 -23 q 410 -12 423 -12 q 385 -11 397 -11 q 353 -11 369 -11 q 321 -9 336 -11 q 251 -3 286 -7 q 182 14 216 1 q 118 47 148 27 q 69 99 88 66 q 33 172 47 133 q 22 254 19 212 q 41 331 24 296 q 82 396 57 366 q 139 450 107 426 q 206 495 171 475 m 438 94 q 430 458 438 275 q 341 443 385 461 q 260 401 297 425 q 216 374 240 389 q 173 338 193 358 q 141 296 153 319 q 129 245 129 273 q 140 193 130 221 q 165 148 149 165 q 202 121 182 130 q 245 107 222 113 q 298 100 273 102 q 350 98 323 99 q 393 96 372 98 q 438 94 415 94 z "},"e":{"ha":609,"x_min":19,"x_max":579,"o":"m 102 526 q 163 589 127 562 q 240 631 199 616 q 324 648 281 647 q 411 631 368 648 q 487 587 453 614 q 540 515 521 559 q 557 445 555 483 q 537 376 560 407 q 488 332 517 347 q 425 311 458 317 q 357 304 392 304 q 292 305 323 304 q 222 311 256 307 q 152 319 187 315 q 195 210 163 258 q 283 138 228 163 q 307 130 298 133 q 314 128 311 129 q 321 127 317 127 q 340 125 332 126 q 354 126 347 125 q 367 128 363 127 q 374 130 370 129 q 401 140 389 134 q 429 157 412 145 q 450 178 437 164 q 473 202 464 191 q 507 228 487 221 q 547 222 526 235 q 572 189 564 212 q 566 148 579 167 q 473 58 526 95 q 350 18 419 20 q 243 37 294 15 q 152 98 191 60 q 75 208 103 145 q 43 335 46 270 q 25 359 31 345 q 21 388 19 373 q 31 416 23 403 q 56 433 39 429 q 102 526 71 483 m 427 494 q 381 528 412 513 q 321 538 355 538 q 262 526 286 538 q 206 485 231 511 q 167 426 182 458 q 232 418 199 422 q 297 412 264 414 q 332 412 315 412 q 368 414 350 412 q 378 414 373 414 q 388 415 382 415 q 406 418 400 418 q 419 422 412 419 q 433 426 425 423 q 441 430 439 429 q 445 433 442 431 l 449 449 q 446 459 446 454 q 442 468 445 464 q 436 480 441 472 q 427 494 431 488 z "},"f":{"ha":450,"x_min":-69,"x_max":616,"o":"m 123 792 q 185 952 137 879 q 302 1078 233 1025 q 385 1118 342 1109 q 475 1100 429 1126 q 546 1057 510 1080 q 602 997 582 1034 q 608 954 616 974 q 582 924 600 935 q 543 917 564 914 q 510 943 522 920 q 491 964 503 955 q 468 979 479 972 q 441 997 456 986 q 411 1010 426 1008 q 387 1008 399 1015 q 363 992 374 1002 q 341 970 351 982 q 323 951 331 959 q 249 840 274 899 q 225 708 224 780 q 233 610 227 659 q 313 616 273 613 q 392 621 353 618 q 431 606 415 624 q 446 567 446 589 q 431 530 446 544 q 392 514 415 515 q 321 509 357 511 q 250 503 285 506 q 258 457 254 480 q 266 411 262 434 q 299 221 282 315 q 324 30 316 127 q 309 -9 327 7 q 270 -24 292 -24 q 233 -9 247 -24 q 216 30 218 7 q 187 243 208 138 q 149 454 167 349 q 146 476 146 465 q 142 498 145 487 q 63 494 103 495 q -18 492 23 492 q -56 509 -43 492 q -69 547 -69 526 q -56 584 -69 567 q -18 601 -43 601 q 126 605 54 601 q 118 699 119 652 q 123 792 117 745 z "},"g":{"ha":570,"x_min":-23,"x_max":537,"o":"m 72 -347 q 141 -387 102 -376 q 220 -395 180 -399 q 294 -372 259 -391 q 353 -319 330 -353 q 416 -166 401 -250 q 427 1 430 -83 q 294 -3 362 -9 q 164 26 225 3 q 105 55 133 38 q 61 103 77 72 q 37 220 33 156 q 58 338 39 281 q 99 453 76 396 q 125 511 111 480 q 163 566 140 541 q 216 605 186 591 q 279 621 245 618 q 279 657 274 640 q 302 685 285 674 q 344 690 320 696 q 377 666 368 685 q 387 642 382 654 q 396 617 392 629 q 446 469 423 544 q 488 319 468 395 q 525 137 513 229 q 534 -50 537 45 q 526 -159 533 -103 q 500 -266 518 -214 q 454 -364 483 -317 q 381 -445 426 -411 q 288 -492 339 -477 q 185 -503 237 -506 q 83 -480 133 -500 q -4 -423 34 -460 q -20 -385 -23 -406 q -3 -349 -18 -363 q 32 -332 11 -335 q 72 -347 53 -330 m 222 121 q 321 104 270 109 q 419 110 372 99 q 395 243 411 179 q 361 372 380 307 q 338 446 350 410 q 315 519 327 483 q 305 516 311 517 q 293 514 300 515 q 231 477 252 514 q 206 429 216 454 q 201 416 203 422 q 195 403 198 410 q 161 309 175 354 q 144 220 146 263 l 144 195 q 146 180 145 186 q 150 165 149 168 q 157 152 151 163 q 172 141 165 145 q 180 136 179 137 q 201 127 191 132 q 222 121 212 123 z "},"h":{"ha":670,"x_min":37,"x_max":609,"o":"m 81 27 q 50 54 62 34 q 45 94 37 73 q 76 222 68 157 q 87 355 84 288 q 88 395 88 376 q 90 435 88 415 q 92 467 85 452 q 98 546 95 506 q 106 625 100 586 q 120 744 113 685 q 130 864 127 803 q 136 975 133 920 q 164 1080 140 1029 q 197 1106 176 1103 q 235 1099 217 1109 q 261 1069 252 1089 q 258 1025 270 1048 q 243 978 247 1002 q 238 928 239 954 q 237 876 237 902 q 236 826 237 850 q 222 705 229 765 q 209 583 216 644 q 335 614 266 612 q 446 596 389 616 q 537 533 502 576 q 570 477 557 507 q 589 413 582 446 q 600 347 597 380 q 605 282 602 313 q 608 155 609 218 q 605 27 608 92 q 587 -12 605 1 q 549 -24 570 -24 q 513 -12 529 -24 q 498 27 496 1 q 500 136 499 81 q 499 244 502 190 q 495 300 496 271 q 488 357 494 328 q 484 383 486 370 q 477 410 481 396 q 471 433 476 420 q 465 446 467 445 q 461 454 463 450 q 457 461 460 457 q 442 476 445 475 q 433 482 437 480 q 425 487 429 484 q 391 500 410 495 q 354 506 372 506 q 268 490 308 509 q 197 431 228 471 q 187 246 194 338 q 148 65 180 155 q 123 33 141 45 q 81 27 104 20 z "},"i":{"ha":312,"x_min":60,"x_max":229,"o":"m 64 14 q 89 142 75 79 q 110 270 103 205 q 112 395 115 334 q 119 521 109 457 q 144 553 122 543 q 186 559 167 564 q 218 533 209 552 q 224 492 227 514 q 219 429 218 461 q 221 363 220 396 q 213 239 221 301 q 192 111 205 174 q 168 -15 179 49 q 142 -47 164 -37 q 102 -53 121 -58 q 69 -27 79 -46 q 64 14 60 -8 m 129 637 q 110 646 119 640 q 96 662 100 652 q 90 681 92 673 q 87 700 87 689 q 91 724 87 712 q 113 760 96 749 q 127 772 118 768 q 161 782 142 781 q 195 772 180 783 q 209 760 202 766 q 220 745 216 754 q 226 730 222 738 q 228 713 229 722 q 225 696 227 704 q 218 681 224 688 q 208 667 212 671 q 194 656 203 663 q 178 648 189 651 q 129 637 149 632 z "},"j":{"ha":313,"x_min":-308,"x_max":300,"o":"m -288 -388 q -305 -350 -308 -370 q -288 -315 -302 -330 q -252 -298 -274 -301 q -212 -312 -231 -294 q -83 -388 -157 -359 q 64 -410 -9 -416 q 117 -396 91 -407 q 159 -362 144 -385 q 184 -304 178 -335 q 191 -240 190 -273 q 170 -60 193 -149 q 127 117 148 28 q 90 311 104 213 q 85 506 75 408 q 102 545 88 529 q 140 560 115 560 q 178 545 160 560 q 194 506 197 529 q 203 289 183 396 q 248 75 222 182 q 272 -23 260 27 q 291 -124 283 -73 q 299 -226 298 -175 q 289 -326 300 -277 q 258 -406 279 -369 q 202 -471 237 -444 q 125 -508 168 -496 q 41 -519 83 -519 q -136 -483 -50 -518 q -288 -388 -221 -448 m 115 715 q 94 739 100 724 q 90 770 87 754 q 104 820 87 804 q 142 836 121 836 q 155 836 149 836 q 168 833 161 836 q 176 830 172 831 q 183 827 179 829 q 216 802 208 819 q 223 782 221 793 q 221 761 225 770 q 213 741 217 749 q 189 713 206 723 q 152 708 171 704 q 115 715 130 705 z "},"k":{"ha":605,"x_min":56,"x_max":621,"o":"m 88 293 q 87 327 83 309 q 66 653 77 491 q 68 979 56 815 q 85 1018 71 1002 q 122 1034 99 1034 q 161 1018 144 1034 q 176 979 179 1002 q 174 687 165 831 q 191 395 182 543 q 344 487 267 442 q 494 582 420 532 q 535 589 515 597 q 565 564 555 582 q 572 525 575 547 q 548 488 570 503 q 399 394 475 438 q 248 304 324 350 q 429 180 339 243 q 604 49 518 118 q 620 10 621 34 q 604 -28 618 -14 q 565 -43 586 -45 q 526 -28 544 -42 q 366 92 448 35 q 201 206 285 149 q 201 102 202 155 q 198 -3 201 49 q 180 -43 197 -30 q 142 -56 163 -56 q 106 -43 122 -56 q 91 -3 90 -30 q 93 144 94 71 q 88 293 92 218 z "},"l":{"ha":292,"x_min":68,"x_max":216,"o":"m 145 1065 q 183 1048 170 1065 q 199 1010 197 1032 q 214 753 213 882 q 211 495 216 624 q 197 237 206 366 q 178 -19 187 109 q 161 -58 175 -42 q 123 -73 146 -73 q 85 -58 103 -73 q 69 -19 68 -42 q 89 237 79 109 q 104 495 99 366 q 107 753 109 624 q 92 1010 106 882 q 107 1048 90 1032 q 145 1065 125 1065 z "},"m":{"ha":1015,"x_min":83,"x_max":996,"o":"m 178 -18 q 136 -14 159 -24 q 111 19 114 -3 q 87 256 92 138 q 83 492 83 373 q 94 525 83 513 q 119 541 104 537 q 151 543 134 545 q 178 529 167 540 q 244 574 209 555 q 315 599 279 593 q 387 595 351 605 q 453 552 422 585 q 498 494 479 525 q 532 430 517 464 q 589 525 552 481 q 682 583 625 568 q 749 578 724 594 q 795 530 773 563 q 838 461 818 496 q 875 389 857 426 q 909 316 892 353 q 941 244 925 279 q 975 166 960 205 q 993 84 989 127 q 977 45 996 61 q 939 30 959 30 q 901 45 916 30 q 884 84 887 61 q 867 147 882 117 q 840 208 853 178 q 810 271 825 239 q 781 335 796 304 q 749 397 766 366 q 713 458 732 429 q 708 467 711 463 q 703 475 705 471 q 663 446 675 460 q 640 410 651 433 q 625 367 631 389 q 614 321 618 345 q 602 231 606 278 q 603 163 600 195 q 600 95 606 130 q 574 62 595 73 q 533 57 553 52 q 505 77 514 62 q 494 110 496 91 q 481 199 488 153 q 464 291 475 245 q 436 379 453 336 q 392 458 419 422 q 353 491 373 483 q 305 484 334 499 q 244 445 274 468 q 191 393 214 422 q 197 220 193 307 q 216 49 202 134 q 210 7 218 26 q 178 -18 201 -11 z "},"n":{"ha":564,"x_min":43,"x_max":494,"o":"m 71 130 q 79 248 71 189 q 98 391 88 320 q 106 536 107 463 q 122 575 106 562 q 159 589 138 589 q 197 575 179 589 q 214 536 214 562 q 315 540 267 540 q 407 509 369 538 q 464 429 445 479 q 483 334 480 382 q 487 236 486 285 q 491 98 488 167 q 494 -39 494 30 q 477 -79 494 -66 q 440 -92 460 -92 q 404 -79 420 -92 q 387 -39 387 -66 q 385 88 387 26 q 380 216 382 151 q 378 288 377 251 q 372 357 378 326 q 363 390 368 376 q 349 418 359 404 q 337 427 346 423 q 321 431 328 431 q 283 429 301 431 q 247 420 266 426 q 231 415 239 418 q 216 408 222 412 q 196 315 202 359 q 184 227 190 271 q 180 161 180 194 q 177 95 179 127 q 169 30 175 62 q 148 -33 163 -3 q 115 -59 136 -56 q 78 -52 95 -62 q 52 -22 61 -42 q 54 22 43 -1 q 68 75 66 46 q 71 130 69 103 z "},"o":{"ha":742,"x_min":35,"x_max":722,"o":"m 392 625 q 483 629 435 631 q 574 612 530 627 q 652 570 617 598 q 707 495 688 541 q 721 429 720 463 q 711 366 722 396 q 682 307 701 335 q 636 256 662 279 q 514 171 581 206 q 374 117 448 136 q 310 102 343 109 q 243 96 277 96 q 176 104 209 96 q 115 129 144 111 q 91 161 95 141 q 73 205 83 184 q 55 247 64 225 q 41 290 46 269 q 35 335 35 312 q 55 422 35 381 q 109 495 75 464 q 240 582 165 549 q 392 625 315 614 m 545 509 q 467 522 509 522 q 377 513 422 524 q 292 486 332 503 q 214 444 254 471 q 155 380 174 418 q 144 338 144 359 q 151 296 145 317 q 168 254 157 275 q 186 213 178 233 q 213 208 208 208 q 220 206 216 206 q 227 206 224 206 q 275 208 254 203 q 313 213 290 208 q 381 231 349 220 q 441 256 414 243 q 502 289 472 271 q 552 326 532 307 q 578 351 566 338 q 587 362 585 358 q 598 376 594 372 q 605 388 602 381 q 610 403 610 397 q 612 410 612 406 q 614 416 613 414 l 614 431 q 613 439 613 437 q 612 445 613 442 q 604 459 608 454 q 597 469 601 464 q 593 473 598 468 q 587 480 589 479 l 576 491 q 562 500 570 495 q 545 509 553 506 z "},"p":{"ha":643,"x_min":53,"x_max":602,"o":"m 209 -391 q 195 -429 210 -416 q 159 -442 179 -442 q 121 -429 138 -442 q 102 -391 103 -416 q 84 43 87 -174 q 72 476 81 259 q 69 533 53 506 q 67 561 68 548 q 65 589 66 574 q 79 626 64 613 q 113 640 94 639 q 151 630 133 642 q 172 595 168 618 q 216 616 195 606 q 260 635 237 625 q 302 650 279 643 q 350 662 326 658 q 398 666 374 666 q 442 658 422 666 q 509 609 483 642 q 553 537 536 576 q 585 460 570 499 q 601 381 600 422 q 589 302 602 339 q 551 236 575 266 q 495 183 528 206 q 426 144 463 160 q 345 113 387 126 q 259 95 302 99 q 223 96 240 92 q 191 107 206 100 q 197 -142 194 -19 q 209 -391 201 -266 m 180 479 q 184 355 183 416 q 189 231 186 293 q 205 220 197 225 q 222 210 213 216 q 240 203 233 203 q 262 205 247 202 q 321 219 292 212 q 378 240 351 227 q 427 267 404 252 q 469 304 450 281 q 488 338 481 319 q 492 381 495 358 q 479 437 491 408 q 457 490 468 465 q 444 515 450 502 q 430 538 438 528 q 411 553 418 551 q 345 549 373 556 q 288 531 316 543 q 233 506 260 519 q 180 479 206 492 z "},"q":{"ha":612,"x_min":33,"x_max":762,"o":"m 718 -378 q 644 -382 681 -393 q 574 -354 606 -370 q 522 -322 547 -339 q 481 -278 498 -305 q 458 -227 467 -254 q 446 -172 450 -199 q 426 -8 430 -91 q 425 35 426 14 q 422 77 423 56 q 283 98 353 84 q 156 148 214 113 q 92 205 117 172 q 50 279 66 237 q 35 351 38 313 q 41 426 33 389 q 67 495 49 463 q 114 551 85 528 q 190 594 149 578 q 273 621 231 610 q 363 641 317 633 q 457 651 410 648 q 483 694 461 684 q 525 699 505 704 q 557 673 548 692 q 563 632 566 655 q 546 486 551 559 q 536 338 541 412 q 530 264 533 301 q 526 191 526 228 q 528 118 525 155 q 533 45 530 81 q 539 -81 536 -16 q 564 -203 543 -145 q 568 -210 567 -209 q 572 -218 568 -212 q 591 -239 585 -235 q 608 -250 597 -244 q 647 -270 625 -258 q 689 -274 669 -282 q 729 -279 709 -266 q 755 -312 749 -293 q 750 -353 762 -335 q 718 -378 738 -370 m 427 327 q 433 435 430 381 q 442 543 437 488 q 376 534 408 540 q 311 519 343 529 q 247 500 279 511 q 187 471 214 490 q 157 435 167 456 q 144 392 146 415 q 145 346 141 369 q 156 304 149 323 q 161 295 160 297 q 164 290 161 293 q 172 277 167 286 q 175 271 178 269 q 185 261 180 266 q 195 252 190 256 q 211 241 208 243 q 218 237 214 240 q 260 218 240 225 q 308 205 281 212 q 363 193 335 198 q 418 186 391 189 q 422 256 419 221 q 427 327 425 292 z "},"r":{"ha":568,"x_min":75,"x_max":570,"o":"m 80 552 q 99 591 81 578 q 137 604 117 604 q 173 591 157 604 q 187 552 189 578 q 186 535 187 544 q 186 518 186 526 q 277 555 229 540 q 374 575 326 571 q 467 568 422 579 q 551 524 513 556 q 568 486 570 506 q 551 451 566 465 q 515 433 537 437 q 473 446 494 430 q 440 464 458 458 q 401 469 422 469 q 359 464 380 468 q 319 454 338 460 q 184 393 247 431 q 193 260 187 327 q 202 146 198 205 q 225 34 206 87 q 222 -7 233 9 q 191 -30 210 -24 q 150 -27 171 -35 q 121 5 129 -19 q 106 69 110 37 q 98 134 102 102 q 92 197 95 165 q 85 260 88 229 q 77 406 79 334 q 80 552 75 479 z "},"s":{"ha":661,"x_min":37,"x_max":621,"o":"m 113 301 q 62 366 77 327 q 61 448 47 404 q 103 518 75 487 q 168 568 132 549 q 255 602 209 590 q 349 616 301 614 q 443 607 396 617 q 532 575 490 597 q 557 543 555 563 q 550 505 560 522 q 519 479 540 487 q 476 483 499 471 q 403 506 444 500 q 321 507 362 511 q 243 486 279 502 q 182 444 206 469 q 173 434 175 437 q 167 422 171 431 l 164 407 q 171 392 168 395 q 227 370 198 374 q 286 363 256 365 q 372 359 328 361 q 458 347 416 357 q 534 316 499 338 q 594 252 570 294 q 619 154 621 205 q 579 62 617 103 q 491 6 541 22 q 389 -16 441 -9 q 294 -19 343 -22 q 199 -3 244 -16 q 114 36 153 9 q 49 106 75 62 q 45 147 37 127 q 70 177 53 167 q 108 184 87 187 q 142 160 129 182 q 195 113 161 129 q 269 90 229 96 q 350 87 309 84 q 423 98 391 91 q 459 109 441 102 q 490 127 477 117 q 509 153 503 138 q 507 184 514 167 q 462 233 494 218 q 395 251 430 248 q 323 254 359 254 q 250 257 286 254 q 178 270 213 260 q 113 301 142 279 z "},"t":{"ha":540,"x_min":-18,"x_max":525,"o":"m 473 473 q 512 457 499 473 q 525 420 525 441 q 512 383 525 400 q 473 366 499 366 q 409 367 441 365 q 346 372 377 369 q 342 157 347 264 q 320 -56 338 50 q 296 -90 317 -79 q 254 -94 274 -100 q 222 -68 231 -87 q 217 -27 213 -50 q 235 179 233 76 q 235 387 237 282 q 130 404 183 395 q 26 419 77 412 q -7 444 3 422 q -12 486 -18 467 q 14 517 -5 509 q 54 524 33 526 q 144 509 99 517 q 235 495 189 502 q 233 515 233 502 q 233 757 233 637 q 244 998 232 876 q 261 1036 247 1020 q 298 1053 275 1053 q 337 1036 319 1053 q 353 998 355 1020 q 340 740 339 868 q 343 480 340 612 q 408 475 376 477 q 473 473 441 473 z "},"u":{"ha":739,"x_min":56,"x_max":703,"o":"m 642 479 q 658 245 643 362 q 697 15 673 129 q 688 -28 703 -11 q 655 -50 674 -45 q 617 -47 636 -56 q 593 -14 598 -39 q 564 138 576 64 q 555 125 559 132 q 545 113 551 119 q 483 56 518 80 q 408 20 448 33 q 326 5 368 7 q 243 15 283 4 q 133 85 171 35 q 79 200 95 136 q 60 334 62 264 q 56 464 57 404 q 72 503 56 490 q 109 515 88 515 q 146 503 129 515 q 164 464 163 490 q 166 354 165 410 q 178 250 167 298 q 190 203 183 222 q 212 161 197 183 q 219 151 218 152 q 222 148 220 149 q 250 128 243 132 q 266 122 256 125 q 381 125 323 106 q 475 197 439 145 q 505 264 495 229 q 519 336 515 300 q 526 409 524 372 q 533 483 528 446 q 554 536 533 524 q 598 545 575 549 q 620 536 612 541 l 631 526 q 642 479 646 502 z "},"v":{"ha":538,"x_min":9,"x_max":515,"o":"m 151 197 q 131 269 140 232 q 111 340 122 305 q 66 457 96 399 q 37 517 52 487 q 15 581 22 548 q 24 623 9 606 q 57 646 38 640 q 95 643 76 651 q 119 609 114 635 q 142 548 126 576 q 172 490 157 519 q 198 426 187 458 q 218 361 209 393 q 238 288 229 326 q 259 216 247 251 q 268 189 263 202 q 278 163 273 176 q 300 231 292 202 q 319 288 308 260 q 347 368 334 328 q 372 450 361 408 q 388 530 382 490 q 404 609 393 570 q 431 642 411 633 q 471 644 452 650 q 503 622 490 639 q 509 581 515 605 q 490 490 495 536 q 471 401 484 445 q 443 315 458 358 q 412 229 427 273 q 393 168 403 199 q 371 106 384 136 q 339 50 358 76 q 292 7 320 24 q 244 4 266 -8 q 212 39 222 16 q 180 118 195 79 q 151 197 164 157 z "},"w":{"ha":898,"x_min":30,"x_max":880,"o":"m 876 522 q 857 447 868 484 q 833 373 846 410 q 804 298 818 335 q 772 225 791 260 q 734 159 754 191 q 699 92 713 127 q 671 31 685 61 q 635 -27 656 0 q 610 -43 624 -41 q 584 -41 597 -46 q 559 -26 571 -37 q 544 -3 548 -15 q 510 125 521 61 q 481 255 499 190 q 473 292 477 274 q 463 327 468 309 q 439 266 452 296 q 411 205 426 236 q 378 141 395 174 q 345 77 362 109 q 309 20 330 46 q 260 -26 289 -7 q 214 -28 237 -41 q 182 7 190 -16 q 145 131 161 68 q 113 257 129 194 q 79 382 96 320 q 38 505 61 444 q 43 545 30 525 q 75 571 56 564 q 116 566 98 578 q 141 533 134 553 q 203 336 179 435 q 255 137 228 237 l 263 153 q 292 212 278 183 q 321 270 307 240 q 351 334 338 301 q 374 401 363 368 q 395 467 385 434 q 407 534 404 499 q 422 570 408 556 q 455 586 437 583 q 490 580 473 589 q 513 548 506 571 q 552 411 532 479 q 589 274 572 343 q 601 218 595 245 q 613 163 606 190 q 648 226 628 195 q 684 289 667 256 q 736 417 713 350 q 772 551 758 484 q 797 585 776 574 q 838 589 818 595 q 871 563 861 582 q 876 522 880 544 z "},"x":{"ha":612,"x_min":26,"x_max":613,"o":"m 45 129 q 152 231 99 180 q 251 342 205 282 q 166 446 208 393 q 84 552 125 499 q 68 591 69 571 q 84 629 66 612 q 123 646 99 644 q 160 629 146 647 q 236 532 198 581 q 313 435 274 483 q 365 532 340 483 q 415 629 389 581 q 448 655 427 652 q 486 648 469 658 q 512 617 503 637 q 509 574 521 597 q 449 458 477 515 q 385 346 420 401 q 490 216 437 281 q 595 85 543 151 q 612 47 610 68 q 595 8 613 26 q 557 -8 581 -7 q 519 8 534 -9 q 419 132 469 71 q 319 256 369 194 q 224 151 274 201 q 121 53 174 102 q 80 38 102 35 q 44 55 58 41 q 28 90 30 69 q 45 129 26 111 z "},"y":{"ha":609,"x_min":15,"x_max":608,"o":"m 575 610 q 601 578 594 600 q 594 537 608 556 q 543 430 560 488 q 505 316 526 372 q 454 201 481 256 q 395 88 426 145 q 389 77 392 81 q 382 65 385 72 q 376 26 388 43 q 346 3 365 9 q 234 -185 290 -92 q 122 -373 178 -278 q 87 -399 109 -396 q 49 -391 66 -401 q 23 -361 31 -381 q 28 -319 15 -342 q 144 -125 85 -221 q 259 68 202 -30 q 142 290 198 178 q 28 513 87 401 q 25 555 16 536 q 51 585 34 575 q 89 593 68 595 q 122 567 110 590 q 221 372 172 469 q 321 179 270 275 q 411 373 372 271 q 450 486 431 429 q 502 591 468 544 q 534 616 514 610 q 575 610 555 623 z "},"z":{"ha":636,"x_min":38,"x_max":601,"o":"m 548 159 q 587 142 574 159 q 601 106 601 126 q 587 68 601 85 q 548 52 574 52 q 434 52 491 50 q 320 53 377 53 q 208 52 263 53 q 96 58 153 52 q 63 73 76 61 q 46 99 50 84 q 47 130 42 114 q 69 159 53 146 q 175 254 126 202 q 279 350 224 305 q 340 396 309 374 q 397 445 370 418 q 408 454 403 450 q 420 464 414 458 q 250 473 335 471 q 80 495 165 476 q 46 519 54 500 q 43 557 38 538 q 66 590 49 576 q 110 598 84 604 q 216 583 163 587 q 324 575 270 578 q 433 570 378 572 q 540 559 487 567 q 558 550 549 557 q 572 533 567 543 q 580 513 578 524 q 578 492 582 502 q 538 430 563 456 q 484 378 513 404 q 425 328 454 351 q 363 279 395 304 q 296 222 328 252 q 233 160 264 191 q 277 161 255 160 q 320 160 298 161 q 434 159 377 160 q 548 159 491 159 z "},"{":{"ha":490,"x_min":26,"x_max":536,"o":"m 524 -8 q 529 -49 536 -28 q 505 -83 522 -69 q 390 -119 448 -125 q 286 -79 332 -114 q 205 10 239 -45 q 164 122 172 65 q 160 197 157 161 q 171 271 163 233 q 183 336 178 302 q 176 400 189 369 q 155 431 170 419 q 125 453 141 442 q 83 479 103 467 q 43 510 62 492 q 28 534 31 521 q 30 562 26 548 q 44 585 34 575 q 68 600 54 595 q 93 609 81 605 q 115 618 104 613 q 127 625 122 621 q 138 632 133 628 l 156 647 q 159 653 159 650 q 163 659 160 656 q 169 680 168 675 q 171 689 170 685 q 171 699 170 689 q 172 711 172 708 l 172 736 q 170 766 171 751 q 168 796 170 781 q 163 859 165 827 q 163 922 160 891 q 179 1019 165 972 q 235 1097 193 1066 q 281 1120 256 1114 q 333 1127 307 1126 q 386 1125 359 1128 q 437 1118 412 1122 q 470 1093 460 1115 q 475 1051 480 1072 q 449 1019 468 1028 q 408 1013 430 1010 q 382 1017 395 1016 q 355 1020 369 1019 q 344 1020 349 1020 q 332 1019 339 1020 q 305 1013 312 1016 l 292 1005 q 283 991 286 998 q 281 987 279 983 q 279 981 279 985 q 277 974 278 977 q 273 956 275 967 q 272 949 273 955 q 271 940 271 943 q 269 885 269 913 q 273 830 270 857 q 277 774 274 803 q 279 718 279 746 q 275 661 279 689 q 258 608 270 633 q 229 568 247 585 q 191 537 212 551 q 228 510 210 525 q 259 475 245 495 q 285 413 278 444 q 290 351 292 382 q 283 288 289 320 q 271 224 277 256 q 273 121 262 174 q 320 31 285 69 q 382 -9 351 -3 q 449 11 412 -16 q 490 17 468 24 q 524 -8 513 9 z "},"|":{"ha":320,"x_min":69,"x_max":236,"o":"m 129 978 q 146 1017 129 1004 q 183 1031 163 1031 q 220 1017 203 1031 q 236 978 236 1004 q 225 732 236 854 q 212 486 214 609 q 212 364 210 425 q 205 243 213 304 q 188 131 198 186 q 178 19 178 76 q 161 -21 178 -8 q 123 -34 144 -34 q 86 -21 103 -34 q 69 19 69 -8 q 81 136 71 79 q 99 254 92 194 q 104 370 106 312 q 104 486 102 427 q 118 732 107 609 q 129 978 129 854 z "},"}":{"ha":530,"x_min":-19,"x_max":491,"o":"m -7 1044 q -12 1084 -19 1065 q 14 1118 -5 1104 q 127 1155 71 1160 q 231 1116 184 1150 q 311 1026 278 1081 q 353 914 345 971 q 357 839 359 875 q 346 765 354 803 q 334 700 339 732 q 340 636 328 667 q 362 604 349 616 q 393 582 376 593 q 434 556 414 570 q 473 526 454 543 q 488 502 486 515 q 487 475 491 488 q 473 450 483 461 q 449 435 463 439 q 424 427 435 431 q 401 418 412 423 q 389 412 395 415 q 378 404 384 408 l 362 389 q 354 377 359 385 q 348 355 349 359 q 347 346 347 351 q 347 338 347 347 q 346 326 346 328 q 346 300 345 312 q 350 239 346 269 q 355 176 353 208 q 355 114 357 145 q 339 17 353 64 q 282 -61 326 -30 q 235 -84 260 -77 q 184 -92 210 -91 q 131 -90 157 -92 q 80 -83 104 -87 q 47 -57 58 -79 q 42 -16 37 -35 q 68 16 49 7 q 109 22 87 26 q 135 18 122 19 q 161 16 148 16 l 184 16 l 212 22 q 225 31 222 28 q 234 45 231 38 q 236 47 237 52 q 238 55 237 52 q 240 62 239 58 q 244 80 243 73 q 245 92 244 90 q 245 95 245 94 q 248 151 248 122 q 244 206 247 179 q 239 262 241 233 q 237 318 237 290 q 242 374 237 346 q 259 427 247 401 q 288 468 270 450 q 327 499 305 486 q 289 526 307 511 q 258 562 271 541 q 232 622 239 591 q 226 684 225 652 q 233 748 227 716 q 245 812 239 780 q 243 913 255 861 q 197 1005 232 966 q 135 1045 165 1038 q 68 1025 104 1053 q 26 1019 49 1012 q -7 1044 4 1027 z "},"~":{"ha":734,"x_min":26,"x_max":708,"o":"m 614 463 q 653 479 632 481 q 688 462 674 476 q 705 427 703 448 q 690 387 708 406 q 628 328 661 355 q 559 282 595 300 q 481 261 522 264 q 396 277 441 258 q 320 323 355 294 q 243 366 285 351 q 173 371 205 380 q 107 340 141 362 q 66 334 85 326 q 36 359 46 342 q 28 397 26 376 q 53 434 31 419 q 134 473 91 457 q 222 481 176 488 q 305 456 266 476 q 380 410 345 437 q 441 375 410 388 q 507 374 473 362 q 565 412 538 387 q 614 463 591 438 z "},"Ä":{"ha":749,"x_min":42,"x_max":730,"o":"m 149 18 q 132 -21 149 -8 q 95 -34 115 -34 q 58 -21 75 -34 q 42 18 42 -8 q 66 221 42 123 q 127 415 91 319 q 122 454 118 433 q 157 490 130 483 q 214 619 184 555 q 270 749 243 684 q 320 880 297 814 q 358 1016 343 947 q 375 1051 362 1036 q 411 1066 388 1066 q 450 1050 433 1066 q 465 1012 468 1035 q 468 867 461 933 q 488 737 475 802 q 519 608 502 673 q 551 480 536 544 q 578 358 566 419 q 617 240 590 297 q 646 185 631 212 q 678 132 661 159 q 708 81 694 107 q 727 23 722 54 q 721 -18 730 1 q 689 -43 712 -37 q 648 -38 670 -49 q 623 -5 627 -27 q 602 50 617 26 q 570 100 586 75 q 535 161 551 130 q 507 224 519 191 q 484 292 494 258 q 467 362 475 327 q 347 368 406 366 q 228 377 288 370 q 173 201 195 290 q 149 18 151 111 m 277 498 q 273 489 274 494 q 270 480 273 484 q 355 475 313 476 q 441 472 397 475 q 409 602 426 537 q 378 732 392 666 q 328 615 354 673 q 277 498 302 557 m 373 1271 q 388 1244 385 1261 q 391 1227 391 1233 q 388 1211 391 1222 l 374 1175 q 341 1149 363 1154 q 300 1156 319 1145 q 275 1187 282 1165 q 271 1202 274 1199 q 266 1242 260 1222 q 292 1275 271 1261 q 311 1286 300 1282 q 332 1289 321 1290 q 348 1286 343 1287 q 361 1280 353 1286 q 373 1271 369 1275 m 557 1260 q 582 1227 576 1249 q 576 1185 587 1204 q 562 1166 570 1175 q 534 1149 549 1154 q 497 1151 515 1142 q 468 1176 479 1160 q 458 1204 460 1190 q 456 1233 456 1218 q 471 1272 456 1256 q 510 1287 487 1287 q 557 1260 541 1287 z "},"Å":{"ha":749,"x_min":42,"x_max":730,"o":"m 277 498 l 270 480 q 355 475 313 476 q 441 472 397 475 q 409 602 426 537 q 378 732 392 666 q 328 615 354 673 q 277 498 302 557 m 361 1328 q 433 1343 396 1344 q 500 1326 469 1341 q 555 1282 532 1310 q 590 1217 579 1253 q 598 1154 598 1188 q 588 1089 598 1120 q 558 1033 578 1058 q 509 994 538 1008 q 464 981 488 985 q 469 854 461 917 q 490 728 476 791 q 519 604 503 666 q 551 480 536 541 q 578 358 566 419 q 617 240 590 297 q 646 185 631 212 q 678 132 661 159 q 708 81 694 107 q 727 23 722 54 q 721 -18 730 1 q 689 -43 712 -37 q 648 -38 670 -49 q 623 -5 627 -27 q 602 50 617 26 q 570 100 586 75 q 535 161 551 130 q 507 224 519 191 q 484 292 494 258 q 467 362 475 327 q 347 368 406 366 q 228 377 288 370 q 173 201 195 290 q 149 18 151 111 q 132 -21 149 -8 q 95 -34 115 -34 q 58 -21 75 -34 q 42 18 42 -8 q 66 221 42 123 q 127 415 91 319 q 122 454 118 433 q 157 490 130 483 q 211 614 183 552 q 265 739 239 677 q 314 865 292 802 q 353 993 336 928 q 288 1036 315 1008 q 252 1107 260 1065 l 251 1122 q 254 1180 247 1149 q 277 1240 262 1211 q 313 1293 292 1270 q 361 1328 335 1316 m 490 1150 q 490 1169 491 1160 q 488 1180 488 1179 q 487 1183 487 1181 q 483 1196 486 1188 q 480 1201 483 1195 q 476 1208 477 1207 q 458 1226 467 1221 q 442 1234 449 1232 q 400 1226 418 1242 q 380 1200 389 1214 q 366 1172 370 1185 l 358 1143 l 358 1130 q 374 1103 363 1109 q 407 1090 384 1096 q 414 1088 410 1089 q 420 1086 418 1088 q 440 1086 433 1085 q 441 1085 448 1086 q 455 1088 453 1088 q 467 1095 457 1088 q 476 1107 473 1103 q 480 1112 479 1111 q 488 1138 488 1131 l 490 1150 z "},"Ç":{"ha":688,"x_min":16,"x_max":682,"o":"m 507 -57 q 556 -79 533 -65 q 595 -113 579 -94 q 616 -156 610 -132 q 614 -210 623 -180 q 558 -294 600 -262 q 469 -345 517 -327 q 423 -357 448 -353 q 374 -361 399 -362 q 328 -351 350 -359 q 289 -321 305 -342 q 273 -284 275 -305 q 288 -245 270 -263 q 325 -228 301 -231 q 363 -243 349 -225 q 386 -255 382 -255 q 400 -252 389 -255 q 429 -245 412 -251 q 460 -231 446 -239 q 469 -225 465 -228 q 477 -220 473 -222 q 492 -209 488 -212 q 498 -203 495 -206 q 506 -189 503 -194 q 511 -179 509 -184 q 487 -164 503 -171 q 456 -153 471 -157 q 418 -146 437 -148 q 381 -140 400 -145 q 336 -113 354 -133 q 312 -66 317 -94 q 313 -19 307 -42 q 316 28 319 4 q 247 50 281 37 q 183 85 213 62 q 77 220 113 137 q 33 381 45 298 q 21 477 26 429 q 30 572 16 525 q 47 630 37 602 q 69 686 58 658 q 81 730 77 708 q 91 774 84 751 q 132 859 104 823 q 203 918 159 895 q 290 955 245 941 q 381 977 335 968 q 466 989 423 985 q 552 987 509 993 q 591 971 575 985 q 606 935 606 958 q 591 896 606 914 q 552 880 575 878 q 544 881 548 880 q 536 882 540 882 q 454 880 495 884 q 373 865 412 875 q 327 852 350 859 q 282 837 304 846 q 252 822 267 830 q 237 812 241 817 q 203 772 212 791 q 191 732 195 753 q 182 689 186 711 q 171 648 178 667 q 149 593 160 621 q 132 534 138 564 q 129 494 127 514 q 133 453 130 473 q 142 380 136 418 q 159 307 148 342 q 188 239 170 271 q 233 183 206 208 q 311 142 267 155 q 397 123 354 129 q 503 122 452 115 q 601 160 555 129 q 642 166 623 174 q 672 142 662 159 q 680 102 682 125 q 656 66 678 80 q 545 20 604 31 q 425 12 486 9 q 422 -9 423 1 q 419 -30 420 -19 q 463 -45 441 -42 q 507 -57 484 -49 z "},"É":{"ha":705,"x_min":23,"x_max":651,"o":"m 62 817 q 30 852 35 825 q 34 893 23 871 q 68 918 45 916 q 332 941 199 939 q 597 944 464 943 q 636 928 623 944 q 650 891 650 911 q 636 854 650 871 q 597 837 623 837 q 384 834 491 834 q 170 823 277 834 q 176 715 172 769 q 184 608 180 662 q 390 621 288 613 q 595 624 492 629 q 635 605 621 623 q 648 567 648 587 q 635 530 648 547 q 595 515 621 514 q 394 513 494 521 q 193 499 294 505 q 208 304 201 401 q 218 110 216 208 q 315 131 266 121 q 412 147 363 141 q 510 153 461 153 q 608 145 559 153 q 640 119 629 141 q 646 79 651 98 q 620 46 639 56 q 578 41 601 37 q 490 46 534 49 q 401 37 445 43 q 302 18 351 28 q 203 -5 252 7 q 160 3 180 -11 q 126 18 141 5 q 111 54 111 30 q 101 282 109 170 q 84 509 94 395 q 67 546 69 524 q 79 585 65 568 q 62 817 68 700 m 441 1268 q 479 1284 458 1282 q 517 1268 499 1286 q 533 1230 532 1253 q 517 1191 534 1206 q 313 1062 419 1116 q 270 1059 290 1050 q 239 1085 250 1067 q 232 1123 229 1103 q 258 1156 235 1143 q 352 1207 307 1180 q 441 1268 397 1234 z "},"Ñ":{"ha":693,"x_min":19,"x_max":659,"o":"m 60 795 q 55 800 57 798 q 50 806 53 803 q 35 840 34 822 q 45 873 35 859 q 73 895 56 887 q 107 895 90 902 q 149 885 129 898 q 168 844 168 872 q 298 681 237 761 q 410 511 359 601 q 452 428 433 471 q 490 342 472 385 q 494 452 490 397 q 506 563 499 506 q 535 795 521 680 q 551 1031 549 911 q 568 1069 551 1057 q 605 1082 585 1082 q 642 1069 625 1082 q 659 1031 659 1057 q 642 790 658 909 q 612 552 627 671 q 601 432 605 491 q 598 312 597 373 q 602 197 600 254 q 601 81 604 140 q 588 48 600 61 q 560 31 576 35 q 528 33 544 27 q 500 54 511 38 q 448 154 469 102 q 407 258 426 206 q 368 355 388 308 q 321 448 347 401 q 249 564 288 509 q 167 673 210 620 q 167 564 167 617 q 170 454 167 510 q 183 261 172 357 q 206 69 194 165 q 191 31 209 46 q 153 15 172 15 q 115 31 129 15 q 99 69 102 46 q 75 261 85 165 q 61 454 64 357 q 59 625 58 540 q 60 795 60 709 m 388 1013 q 329 1007 359 1002 q 274 1031 298 1012 q 237 1064 255 1046 q 195 1086 220 1082 q 151 1078 172 1090 q 115 1051 130 1066 q 75 1035 96 1032 q 40 1052 54 1038 q 22 1087 26 1066 q 38 1127 19 1108 q 90 1166 61 1150 q 150 1190 118 1183 q 214 1193 182 1198 q 275 1171 245 1188 q 320 1133 301 1153 q 332 1121 327 1126 q 345 1114 338 1116 q 361 1118 353 1112 q 377 1133 369 1124 q 392 1152 385 1142 q 403 1168 399 1162 q 441 1184 418 1185 q 479 1168 464 1183 q 495 1131 496 1152 q 479 1092 494 1109 q 439 1046 460 1069 q 388 1013 419 1024 z "},"Ö":{"ha":758,"x_min":5,"x_max":741,"o":"m 203 66 q 147 119 172 90 q 102 180 122 148 q 65 241 83 209 q 34 308 47 274 q 13 377 20 342 q 8 448 5 412 q 22 584 12 517 q 50 716 33 651 q 64 770 56 741 q 85 828 72 800 q 115 879 98 856 q 160 914 133 902 q 241 927 201 932 q 321 905 282 922 q 395 862 359 887 q 461 812 430 837 q 517 764 490 789 q 575 716 545 739 q 646 654 610 685 q 705 582 682 623 q 736 489 732 536 q 730 397 741 442 q 696 308 719 351 q 646 224 673 264 q 589 149 621 189 q 519 77 557 110 q 436 26 480 45 q 343 12 392 7 q 301 34 315 16 q 251 45 275 38 q 203 66 227 52 m 117 457 q 120 395 114 423 q 141 331 126 366 q 183 252 160 292 q 237 179 206 212 q 300 142 264 149 q 345 135 323 138 q 388 125 366 132 q 404 131 396 127 q 420 141 412 134 q 463 174 444 156 q 499 210 481 191 q 565 293 533 248 q 616 385 597 338 q 631 475 635 433 q 591 556 627 517 q 520 623 559 593 q 445 685 481 654 q 384 736 414 712 q 319 783 354 761 q 255 815 286 804 q 248 817 251 817 q 240 819 244 818 l 220 821 q 206 815 209 818 q 195 804 197 804 q 183 781 186 788 q 175 760 180 774 q 152 680 161 720 q 136 601 142 640 q 124 529 129 562 q 117 457 119 496 m 221 1146 q 236 1119 233 1137 q 239 1103 239 1108 q 236 1086 239 1097 l 222 1050 q 189 1025 212 1029 q 148 1031 167 1020 q 123 1062 130 1040 q 119 1077 122 1074 q 114 1118 109 1097 q 140 1150 119 1137 q 159 1161 148 1157 q 180 1164 170 1165 q 196 1162 191 1162 q 209 1156 201 1161 q 221 1146 217 1150 m 406 1135 q 430 1102 425 1124 q 425 1061 435 1080 q 410 1042 418 1050 q 382 1024 397 1029 q 345 1026 363 1017 q 316 1051 327 1035 q 306 1079 308 1065 q 304 1108 304 1093 q 319 1147 304 1131 q 358 1162 335 1162 q 406 1135 389 1162 z "},"Ü":{"ha":671,"x_min":11,"x_max":631,"o":"m 54 369 q 34 638 39 505 q 14 906 28 772 q 29 945 11 929 q 68 960 47 960 q 106 945 92 960 q 122 906 119 929 q 136 745 132 825 q 145 585 141 666 q 165 346 151 467 q 169 312 167 331 q 172 283 171 293 q 178 247 175 264 q 186 212 182 229 q 204 150 194 178 q 235 103 214 122 l 247 96 q 266 94 258 94 q 294 101 275 95 q 326 117 312 107 q 388 178 362 141 q 433 254 414 214 q 471 343 454 297 q 498 437 487 389 q 522 677 525 556 q 503 917 518 798 q 519 955 500 939 q 556 971 537 971 q 594 955 581 971 q 610 917 608 939 q 629 653 628 787 q 597 392 631 519 q 568 297 585 346 q 530 203 552 248 q 477 116 507 157 q 410 45 448 75 q 326 -3 372 15 q 232 -11 279 -20 q 166 21 195 -4 q 119 77 137 46 q 73 220 84 145 q 54 369 62 296 m 263 1175 q 278 1147 275 1165 q 281 1131 281 1137 q 278 1115 281 1126 l 264 1078 q 231 1053 254 1058 q 190 1059 209 1048 q 165 1090 172 1069 q 161 1105 164 1103 q 156 1146 151 1126 q 182 1179 161 1165 q 201 1190 190 1185 q 222 1192 212 1194 q 238 1190 233 1191 q 251 1184 243 1190 q 263 1175 259 1179 m 448 1164 q 472 1131 467 1153 q 467 1089 477 1108 q 452 1070 460 1078 q 425 1053 439 1058 q 387 1055 406 1046 q 358 1080 369 1063 q 348 1107 350 1093 q 346 1137 346 1122 q 361 1175 346 1160 q 400 1191 377 1191 q 448 1164 431 1191 z "},"á":{"ha":674,"x_min":39,"x_max":606,"o":"m 159 37 q 86 93 113 57 q 50 172 60 129 q 43 262 39 216 q 62 353 47 309 q 90 423 75 387 q 127 491 106 460 q 179 545 149 522 q 250 574 209 567 q 334 578 292 581 q 419 570 377 576 q 456 561 438 567 q 491 548 473 555 q 509 582 492 568 q 545 595 526 595 q 583 580 568 595 q 600 543 597 564 q 606 418 606 480 q 602 293 605 355 q 596 168 598 231 q 597 43 594 106 q 581 5 598 18 q 544 -8 564 -8 q 507 5 524 -8 q 488 43 490 18 q 324 6 411 11 q 159 37 237 1 m 168 331 q 153 275 160 307 q 149 216 146 244 q 167 163 152 187 q 216 130 182 140 q 355 118 285 109 q 486 167 425 127 q 494 296 491 233 q 496 422 498 358 q 450 448 473 437 q 397 464 426 460 q 337 470 369 468 q 275 469 305 472 q 261 466 273 469 q 248 461 250 463 q 224 439 235 454 q 193 387 206 415 q 168 331 179 359 m 483 894 q 521 909 500 907 q 559 894 541 911 q 575 855 574 879 q 559 817 576 831 q 355 688 461 742 q 312 684 332 675 q 281 711 292 693 q 274 749 271 728 q 300 781 277 769 q 394 833 349 806 q 483 894 439 860 z "},"à":{"ha":674,"x_min":39,"x_max":606,"o":"m 159 37 q 86 93 113 57 q 50 172 60 129 q 43 262 39 216 q 62 353 47 309 q 90 423 75 387 q 127 491 106 460 q 179 545 149 522 q 250 574 209 567 q 334 578 292 581 q 419 570 377 576 q 456 561 438 567 q 491 548 473 555 q 509 582 492 568 q 545 595 526 595 q 583 580 568 595 q 600 543 597 564 q 606 418 606 480 q 602 293 605 355 q 596 168 598 231 q 597 43 594 106 q 581 5 598 18 q 544 -8 564 -8 q 507 5 524 -8 q 488 43 490 18 q 324 6 411 11 q 159 37 237 1 m 168 331 q 153 275 160 307 q 149 216 146 244 q 167 163 152 187 q 216 130 182 140 q 355 118 285 109 q 486 167 425 127 q 494 296 491 233 q 496 422 498 358 q 450 448 473 437 q 397 464 426 460 q 337 470 369 468 q 275 469 305 472 q 261 466 273 469 q 248 461 250 463 q 224 439 235 454 q 193 387 206 415 q 168 331 179 359 m 241 880 q 330 819 285 846 q 425 768 376 792 q 451 735 448 755 q 444 697 454 715 q 412 671 433 680 q 369 674 392 662 q 165 803 263 728 q 149 842 148 818 q 165 880 151 865 q 203 896 183 898 q 241 880 224 894 z "},"â":{"ha":674,"x_min":39,"x_max":606,"o":"m 159 37 q 86 93 113 57 q 50 172 60 129 q 43 262 39 216 q 62 353 47 309 q 90 423 75 387 q 127 491 106 460 q 179 545 149 522 q 250 574 209 567 q 334 578 292 581 q 419 570 377 576 q 456 561 438 567 q 491 548 473 555 q 509 582 492 568 q 545 595 526 595 q 583 580 568 595 q 600 543 597 564 q 606 418 606 480 q 602 293 605 355 q 596 168 598 231 q 597 43 594 106 q 581 5 598 18 q 544 -8 564 -8 q 507 5 524 -8 q 488 43 490 18 q 324 6 411 11 q 159 37 237 1 m 168 331 q 153 275 160 307 q 149 216 146 244 q 167 163 152 187 q 216 130 182 140 q 355 118 285 109 q 486 167 425 127 q 494 296 491 233 q 496 422 498 358 q 450 448 473 437 q 397 464 426 460 q 337 470 369 468 q 275 469 305 472 q 261 466 273 469 q 248 461 250 463 q 224 439 235 454 q 193 387 206 415 q 168 331 179 359 m 541 780 q 557 741 559 765 q 541 703 556 718 q 504 688 525 686 q 465 703 483 689 q 412 751 437 726 q 358 799 387 776 q 302 753 330 776 q 248 704 275 730 q 208 689 229 686 q 172 706 186 692 q 155 741 157 720 q 172 781 153 762 q 248 849 209 817 q 331 911 288 882 q 357 918 342 918 q 385 911 373 918 q 466 848 430 884 q 541 780 502 811 z "},"ä":{"ha":674,"x_min":39,"x_max":606,"o":"m 159 37 q 86 93 113 57 q 50 172 60 129 q 43 262 39 216 q 62 353 47 309 q 90 423 75 387 q 127 491 106 460 q 179 545 149 522 q 250 574 209 567 q 334 578 292 581 q 419 570 377 576 q 456 561 438 567 q 491 548 473 555 q 509 582 492 568 q 545 595 526 595 q 583 580 568 595 q 600 543 597 564 q 606 418 606 480 q 602 293 605 355 q 596 168 598 231 q 597 43 594 106 q 581 5 598 18 q 544 -8 564 -8 q 507 5 524 -8 q 488 43 490 18 q 324 6 411 11 q 159 37 237 1 m 168 331 q 153 275 160 307 q 149 216 146 244 q 167 163 152 187 q 216 130 182 140 q 355 118 285 109 q 486 167 425 127 q 494 296 491 233 q 496 422 498 358 q 450 448 473 437 q 397 464 426 460 q 337 470 369 468 q 275 469 305 472 q 261 466 273 469 q 248 461 250 463 q 224 439 235 454 q 193 387 206 415 q 168 331 179 359 m 290 814 q 305 787 302 804 q 308 770 308 776 q 305 754 308 765 l 292 718 q 258 692 281 697 q 217 699 236 688 q 193 730 199 708 q 189 745 191 742 q 183 785 178 765 q 209 818 189 804 q 228 829 217 825 q 250 831 239 833 q 265 829 260 830 q 278 823 270 829 q 290 814 286 818 m 475 803 q 499 770 494 792 q 494 728 505 747 q 479 709 487 718 q 452 692 467 697 q 414 694 433 685 q 385 719 396 703 q 375 747 377 732 q 373 776 373 761 q 389 814 373 799 q 427 830 404 830 q 475 803 458 830 z "},"ã":{"ha":674,"x_min":39,"x_max":606,"o":"m 159 37 q 86 93 113 57 q 50 172 60 129 q 43 262 39 216 q 62 353 47 309 q 90 423 75 387 q 127 491 106 460 q 179 545 149 522 q 250 574 209 567 q 334 578 292 581 q 419 570 377 576 q 456 561 438 567 q 491 548 473 555 q 509 582 492 568 q 545 595 526 595 q 583 580 568 595 q 600 543 597 564 q 606 418 606 480 q 602 293 605 355 q 596 168 598 231 q 597 43 594 106 q 581 5 598 18 q 544 -8 564 -8 q 507 5 524 -8 q 488 43 490 18 q 324 6 411 11 q 159 37 237 1 m 168 331 q 153 275 160 307 q 149 216 146 244 q 167 163 152 187 q 216 130 182 140 q 355 118 285 109 q 486 167 425 127 q 494 296 491 233 q 496 422 498 358 q 450 448 473 437 q 397 464 426 460 q 337 470 369 468 q 275 469 305 472 q 261 466 273 469 q 248 461 250 463 q 224 439 235 454 q 193 387 206 415 q 168 331 179 359 m 471 694 q 412 688 442 684 q 357 712 381 693 q 320 745 338 727 q 278 768 302 764 q 234 760 255 772 q 198 732 213 747 q 158 716 179 713 q 123 733 137 719 q 105 768 109 747 q 121 808 102 789 q 172 848 144 831 q 233 871 201 864 q 296 874 264 879 q 358 852 328 869 q 403 814 384 834 q 415 802 410 807 q 427 795 420 798 q 444 800 435 793 q 460 814 452 806 q 475 833 468 823 q 486 849 481 844 q 524 865 500 867 q 562 849 547 864 q 578 812 579 833 q 562 773 576 791 q 522 728 543 750 q 471 694 502 705 z "},"å":{"ha":674,"x_min":39,"x_max":606,"o":"m 168 331 q 153 275 160 307 q 149 216 146 244 q 167 163 152 187 q 216 130 182 140 q 353 120 285 109 q 486 167 422 132 q 494 296 491 233 q 496 422 498 358 q 450 448 473 437 q 397 464 426 460 q 337 470 369 468 q 275 469 305 472 q 261 466 273 469 q 248 461 250 463 q 224 439 235 454 q 193 387 206 415 q 168 331 179 359 m 263 911 q 335 926 298 928 q 403 909 372 925 q 458 865 434 894 q 492 800 481 837 q 500 738 500 772 q 490 673 500 704 q 460 616 480 642 q 411 576 441 590 q 456 561 438 567 q 491 548 473 555 q 509 582 492 568 q 545 595 526 595 q 583 580 568 595 q 600 543 597 564 q 606 418 606 480 q 602 293 605 355 q 596 168 598 231 q 597 43 594 106 q 581 5 598 18 q 544 -8 564 -8 q 507 5 524 -8 q 488 43 490 18 q 324 6 411 11 q 159 37 237 1 q 86 93 113 57 q 50 172 60 129 q 43 262 39 216 q 62 353 47 309 q 90 423 75 387 q 127 492 106 460 q 179 546 149 524 q 250 574 209 568 q 191 618 220 590 q 155 690 163 647 q 153 705 153 701 q 157 764 149 732 q 180 824 164 795 q 217 876 195 853 q 263 911 239 899 m 393 734 l 393 751 q 391 759 392 753 q 391 766 391 765 q 389 773 389 769 q 387 780 388 777 q 383 785 387 779 q 378 792 380 791 q 361 809 369 803 q 346 818 353 815 q 304 808 320 825 q 283 783 292 798 q 269 755 274 768 q 264 741 266 749 q 262 727 263 734 l 260 713 q 277 686 266 693 q 309 674 288 680 q 317 672 313 673 q 324 670 320 671 q 342 669 335 669 q 345 669 350 670 q 357 671 355 671 q 369 678 359 671 q 379 690 376 686 q 382 696 382 694 q 392 722 389 711 l 393 734 z "},"ç":{"ha":513,"x_min":24,"x_max":499,"o":"m 369 -43 q 416 -66 393 -52 q 456 -99 439 -80 q 478 -142 472 -118 q 476 -197 484 -167 q 419 -280 461 -247 q 330 -331 377 -313 q 283 -344 308 -339 q 235 -347 259 -349 q 189 -337 210 -346 q 151 -308 167 -328 q 134 -270 136 -290 q 148 -232 132 -250 q 186 -214 163 -217 q 225 -229 210 -212 q 247 -241 244 -240 q 260 -239 250 -241 q 291 -230 274 -236 q 321 -217 308 -224 q 330 -212 326 -214 q 338 -206 334 -209 q 353 -195 350 -198 q 358 -190 355 -193 q 368 -176 365 -180 q 373 -165 370 -171 q 348 -151 363 -157 q 317 -140 332 -144 q 279 -132 298 -133 q 241 -126 260 -132 q 197 -99 214 -119 q 174 -52 179 -79 q 174 -3 168 -27 q 176 45 179 20 q 182 72 175 57 q 158 86 170 79 q 134 103 146 94 q 50 224 75 151 q 41 373 24 298 q 103 488 56 439 q 212 564 151 537 q 326 605 266 590 q 445 614 385 620 q 484 597 468 612 q 499 560 499 583 q 484 522 499 540 q 445 506 468 505 q 359 502 401 510 q 278 476 317 494 q 233 453 255 465 q 194 426 210 441 q 165 393 176 410 q 148 355 153 377 q 144 309 142 334 q 153 261 145 285 q 174 218 160 237 q 206 184 187 198 q 292 146 245 156 q 384 144 339 136 q 425 138 406 148 q 450 106 444 129 q 445 65 456 87 q 412 39 434 43 q 349 33 381 34 q 285 38 316 33 q 284 11 286 24 q 279 -16 282 -3 q 324 -31 302 -27 q 369 -43 346 -35 z "},"é":{"ha":609,"x_min":19,"x_max":579,"o":"m 102 526 q 163 589 127 562 q 240 631 199 616 q 324 648 281 647 q 411 631 368 648 q 487 587 453 614 q 540 515 521 559 q 557 445 555 483 q 537 376 560 407 q 488 332 517 347 q 425 311 458 317 q 357 304 392 304 q 292 305 323 304 q 222 311 256 307 q 152 319 187 315 q 195 210 163 258 q 283 138 228 163 q 307 130 298 133 q 314 128 311 129 q 321 127 317 127 q 340 125 332 126 q 354 126 347 125 q 367 128 363 127 q 374 130 370 129 q 401 140 389 134 q 429 157 412 145 q 450 178 437 164 q 473 202 464 191 q 507 228 487 221 q 547 222 526 235 q 572 189 564 212 q 566 148 579 167 q 473 58 526 95 q 350 18 419 20 q 243 37 294 15 q 152 98 191 60 q 75 208 103 145 q 43 335 46 270 q 25 359 31 345 q 21 388 19 373 q 31 416 23 403 q 56 433 39 429 q 102 526 71 483 m 427 494 q 381 528 412 513 q 321 538 355 538 q 262 526 286 538 q 206 485 231 511 q 167 426 182 458 q 232 418 199 422 q 297 412 264 414 q 332 412 315 412 q 368 414 350 412 q 378 414 373 414 q 388 415 382 415 q 406 418 400 418 q 419 422 412 419 q 433 426 425 423 q 441 430 439 429 q 445 433 442 431 l 449 449 q 446 459 446 454 q 442 468 445 464 q 436 480 441 472 q 427 494 431 488 m 400 936 q 438 951 418 949 q 476 936 458 954 q 492 897 491 921 q 476 859 494 873 q 273 730 378 784 q 229 726 250 718 q 199 753 209 735 q 191 791 189 770 q 217 823 194 811 q 311 875 266 848 q 400 936 357 902 z "},"è":{"ha":609,"x_min":19,"x_max":579,"o":"m 102 526 q 163 589 127 562 q 240 631 199 616 q 324 648 281 647 q 411 631 368 648 q 487 587 453 614 q 540 515 521 559 q 557 445 555 483 q 537 376 560 407 q 488 332 517 347 q 425 311 458 317 q 357 304 392 304 q 292 305 323 304 q 222 311 256 307 q 152 319 187 315 q 195 210 163 258 q 283 138 228 163 q 307 130 298 133 q 314 128 311 129 q 321 127 317 127 q 340 125 332 126 q 354 126 347 125 q 367 128 363 127 q 374 130 370 129 q 401 140 389 134 q 429 157 412 145 q 450 178 437 164 q 473 202 464 191 q 507 228 487 221 q 547 222 526 235 q 572 189 564 212 q 566 148 579 167 q 473 58 526 95 q 350 18 419 20 q 243 37 294 15 q 152 98 191 60 q 75 208 103 145 q 43 335 46 270 q 25 359 31 345 q 21 388 19 373 q 31 416 23 403 q 56 433 39 429 q 102 526 71 483 m 427 494 q 381 528 412 513 q 321 538 355 538 q 262 526 286 538 q 206 485 231 511 q 167 426 182 458 q 232 418 199 422 q 297 412 264 414 q 332 412 315 412 q 368 414 350 412 q 378 414 373 414 q 388 415 382 415 q 406 418 400 418 q 419 422 412 419 q 433 426 425 423 q 441 430 439 429 q 445 433 442 431 l 449 449 q 446 459 446 454 q 442 468 445 464 q 436 480 441 472 q 427 494 431 488 m 269 936 q 357 875 312 902 q 452 823 403 848 q 478 791 475 811 q 471 753 481 770 q 439 726 460 735 q 396 730 419 718 q 193 859 290 784 q 176 897 175 873 q 193 936 178 921 q 231 951 210 954 q 269 936 251 949 z "},"ê":{"ha":609,"x_min":19,"x_max":579,"o":"m 102 526 q 163 589 127 562 q 240 631 199 616 q 324 648 281 647 q 411 631 368 648 q 487 587 453 614 q 540 515 521 559 q 557 445 555 483 q 537 376 560 407 q 488 332 517 347 q 425 311 458 317 q 357 304 392 304 q 292 305 323 304 q 222 311 256 307 q 152 319 187 315 q 195 210 163 258 q 283 138 228 163 q 307 130 298 133 q 314 128 311 129 q 321 127 317 127 q 340 125 332 126 q 354 126 347 125 q 367 128 363 127 q 374 130 370 129 q 401 140 389 134 q 429 157 412 145 q 450 178 437 164 q 473 202 464 191 q 507 228 487 221 q 547 222 526 235 q 572 189 564 212 q 566 148 579 167 q 473 58 526 95 q 350 18 419 20 q 243 37 294 15 q 152 98 191 60 q 75 208 103 145 q 43 335 46 270 q 25 359 31 345 q 21 388 19 373 q 31 416 23 403 q 56 433 39 429 q 102 526 71 483 m 427 494 q 381 528 412 513 q 321 538 355 538 q 262 526 286 538 q 206 485 231 511 q 167 426 182 458 q 232 418 199 422 q 297 412 264 414 q 332 412 315 412 q 368 414 350 412 q 378 414 373 414 q 388 415 382 415 q 406 418 400 418 q 419 422 412 419 q 433 426 425 423 q 441 430 439 429 q 445 433 442 431 l 449 449 q 446 459 446 454 q 442 468 445 464 q 436 480 441 472 q 427 494 431 488 m 513 808 q 529 770 530 793 q 513 731 528 746 q 475 716 496 715 q 437 731 454 718 q 383 779 408 754 q 330 827 358 804 q 274 781 301 804 q 220 732 247 758 q 179 718 201 715 q 143 734 157 720 q 127 770 129 749 q 144 810 125 791 q 220 878 180 845 q 302 940 259 910 q 329 947 313 947 q 357 940 345 947 q 437 876 401 913 q 513 808 473 840 z "},"ë":{"ha":609,"x_min":19,"x_max":579,"o":"m 102 526 q 163 589 127 562 q 240 631 199 616 q 324 648 281 647 q 411 631 368 648 q 487 587 453 614 q 540 515 521 559 q 557 445 555 483 q 537 376 560 407 q 488 332 517 347 q 425 311 458 317 q 357 304 392 304 q 292 305 323 304 q 222 311 256 307 q 152 319 187 315 q 195 210 163 258 q 283 138 228 163 q 307 130 298 133 q 314 128 311 129 q 321 127 317 127 q 340 125 332 126 q 354 126 347 125 q 367 128 363 127 q 374 130 370 129 q 401 140 389 134 q 429 157 412 145 q 450 178 437 164 q 473 202 464 191 q 507 228 487 221 q 547 222 526 235 q 572 189 564 212 q 566 148 579 167 q 473 58 526 95 q 350 18 419 20 q 243 37 294 15 q 152 98 191 60 q 75 208 103 145 q 43 335 46 270 q 25 359 31 345 q 21 388 19 373 q 31 416 23 403 q 56 433 39 429 q 102 526 71 483 m 427 494 q 381 528 412 513 q 321 538 355 538 q 262 526 286 538 q 206 485 231 511 q 167 426 182 458 q 232 418 199 422 q 297 412 264 414 q 332 412 315 412 q 368 414 350 412 q 378 414 373 414 q 388 415 382 415 q 406 418 400 418 q 419 422 412 419 q 433 426 425 423 q 441 430 439 429 q 445 433 442 431 l 449 449 q 446 459 446 454 q 442 468 445 464 q 436 480 441 472 q 427 494 431 488 m 277 856 q 292 829 289 846 q 294 812 294 818 q 292 796 294 807 l 278 760 q 245 734 267 739 q 203 741 222 730 q 179 772 186 750 q 175 787 178 784 q 170 827 164 807 q 195 860 175 846 q 214 871 203 867 q 236 873 225 875 q 252 871 247 872 q 264 865 256 871 q 277 856 273 860 m 461 845 q 486 812 480 834 q 480 770 491 789 q 465 751 473 760 q 438 734 453 739 q 401 736 419 727 q 372 761 382 745 q 361 789 363 774 q 359 818 359 803 q 375 857 359 841 q 414 872 391 872 q 461 845 445 872 z "},"í":{"ha":312,"x_min":60,"x_max":425,"o":"m 64 14 q 89 142 75 79 q 110 270 103 205 q 112 395 115 334 q 119 521 109 457 q 144 553 122 543 q 186 559 167 564 q 218 533 209 552 q 224 492 227 514 q 219 429 218 461 q 221 363 220 396 q 213 239 221 301 q 192 111 205 174 q 168 -15 179 49 q 142 -47 164 -37 q 102 -53 121 -58 q 69 -27 79 -46 q 64 14 60 -8 m 331 894 q 369 909 349 907 q 407 894 389 911 q 423 855 422 879 q 407 817 425 831 q 203 688 309 742 q 160 684 180 675 q 130 711 140 693 q 122 749 119 728 q 148 781 125 769 q 242 833 197 806 q 331 894 288 860 z "},"ì":{"ha":312,"x_min":-34,"x_max":273,"o":"m 64 14 q 89 142 75 79 q 110 270 103 205 q 112 395 115 334 q 119 521 109 457 q 144 553 122 543 q 186 559 167 564 q 218 533 209 552 q 224 492 227 514 q 219 429 218 461 q 221 363 220 396 q 213 239 221 301 q 192 111 205 174 q 168 -15 179 49 q 142 -47 164 -37 q 102 -53 121 -58 q 69 -27 79 -46 q 64 14 60 -8 m 60 880 q 149 819 103 846 q 243 768 194 792 q 269 735 266 755 q 262 697 273 715 q 231 671 251 680 q 187 674 210 662 q -16 803 81 728 q -33 842 -34 818 q -16 880 -31 865 q 22 896 1 898 q 60 880 42 894 z "},"î":{"ha":312,"x_min":-28,"x_max":377,"o":"m 64 14 q 89 142 75 79 q 110 270 103 205 q 112 395 115 334 q 119 521 109 457 q 144 553 122 543 q 186 559 167 564 q 218 533 209 552 q 224 492 227 514 q 219 429 218 461 q 221 363 220 396 q 213 239 221 301 q 192 111 205 174 q 168 -15 179 49 q 142 -47 164 -37 q 102 -53 121 -58 q 69 -27 79 -46 q 64 14 60 -8 m 359 738 q 376 699 377 723 q 359 661 374 675 q 322 646 343 644 q 283 661 301 647 q 230 709 255 684 q 176 757 205 734 q 121 711 148 734 q 66 662 94 688 q 26 647 47 644 q -10 664 4 650 q -26 699 -24 678 q -9 739 -28 720 q 66 807 27 774 q 149 869 106 840 q 176 876 160 876 q 203 869 191 876 q 284 806 248 842 q 359 738 320 769 z "},"ï":{"ha":312,"x_min":11,"x_max":338,"o":"m 64 14 q 89 142 75 79 q 110 270 103 205 q 112 395 115 334 q 119 521 109 457 q 144 553 122 543 q 186 559 167 564 q 218 533 209 552 q 224 492 227 514 q 219 429 218 461 q 221 363 220 396 q 213 239 221 301 q 192 111 205 174 q 168 -15 179 49 q 142 -47 164 -37 q 102 -53 121 -58 q 69 -27 79 -46 q 64 14 60 -8 m 123 800 q 138 773 136 791 q 141 757 141 762 q 138 741 141 751 l 125 704 q 92 679 114 684 q 50 685 69 674 q 26 716 33 694 q 22 731 24 728 q 16 772 11 751 q 42 804 22 791 q 61 815 50 811 q 83 818 72 819 q 98 816 94 817 q 111 810 103 815 q 123 800 119 804 m 308 789 q 332 756 327 779 q 327 715 338 734 q 312 696 320 704 q 285 678 300 684 q 248 680 266 671 q 218 705 229 689 q 208 733 210 719 q 206 762 206 747 q 222 801 206 785 q 260 817 237 817 q 308 789 292 817 z "},"ñ":{"ha":564,"x_min":43,"x_max":524,"o":"m 71 130 q 79 248 71 189 q 98 391 88 320 q 106 536 107 463 q 122 575 106 562 q 159 589 138 589 q 197 575 179 589 q 214 536 214 562 q 315 540 267 540 q 407 509 369 538 q 464 429 445 479 q 483 334 480 382 q 487 236 486 285 q 491 98 488 167 q 494 -39 494 30 q 477 -79 494 -66 q 440 -92 460 -92 q 404 -79 420 -92 q 387 -39 387 -66 q 385 88 387 26 q 380 216 382 151 q 378 288 377 251 q 372 357 378 326 q 363 390 368 376 q 349 418 359 404 q 337 427 346 423 q 321 431 328 431 q 283 429 301 431 q 247 420 266 426 q 231 415 239 418 q 216 408 222 412 q 196 315 202 359 q 184 227 190 271 q 180 161 180 194 q 177 95 179 127 q 169 30 175 62 q 148 -33 163 -3 q 115 -59 136 -56 q 78 -52 95 -62 q 52 -22 61 -42 q 54 22 43 -1 q 68 75 66 46 q 71 130 69 103 m 415 681 q 356 675 387 670 q 301 699 326 680 q 264 732 282 713 q 222 754 247 750 q 178 746 199 758 q 142 719 157 734 q 102 703 123 700 q 67 720 81 705 q 50 755 53 734 q 65 795 46 776 q 117 834 88 818 q 177 858 145 850 q 241 861 209 865 q 302 838 273 856 q 347 800 328 821 q 359 789 354 793 q 372 781 365 784 q 388 786 380 780 q 404 801 396 792 q 419 820 412 810 q 430 836 426 830 q 468 852 445 853 q 506 836 491 850 q 522 798 524 819 q 506 760 521 777 q 467 714 487 736 q 415 681 446 692 z "},"ó":{"ha":742,"x_min":35,"x_max":722,"o":"m 392 625 q 483 629 435 631 q 574 612 530 627 q 652 570 617 598 q 707 495 688 541 q 721 429 720 463 q 711 366 722 396 q 682 307 701 335 q 636 256 662 279 q 514 171 581 206 q 374 117 448 136 q 310 102 343 109 q 243 96 277 96 q 176 104 209 96 q 115 129 144 111 q 91 161 95 141 q 73 205 83 184 q 55 247 64 225 q 41 290 46 269 q 35 335 35 312 q 55 422 35 381 q 109 495 75 464 q 240 582 165 549 q 392 625 315 614 m 545 509 q 467 522 509 522 q 377 513 422 524 q 292 486 332 503 q 214 444 254 471 q 155 380 174 418 q 144 338 144 359 q 151 296 145 317 q 168 254 157 275 q 186 213 178 233 q 213 208 208 208 q 220 206 216 206 q 227 206 224 206 q 275 208 254 203 q 313 213 290 208 q 381 231 349 220 q 441 256 414 243 q 502 289 472 271 q 552 326 532 307 q 578 351 566 338 q 587 362 585 358 q 598 376 594 372 q 605 388 602 381 q 610 403 610 397 q 612 410 612 406 q 614 416 613 414 l 614 431 q 613 439 613 437 q 612 445 613 442 q 604 459 608 454 q 597 469 601 464 q 593 473 598 468 q 587 480 589 479 l 576 491 q 562 500 570 495 q 545 509 553 506 m 454 907 q 492 923 472 921 q 530 907 513 925 q 547 869 545 892 q 530 830 548 845 q 327 701 433 755 q 283 698 304 689 q 253 724 263 707 q 245 762 243 742 q 271 795 248 783 q 366 846 320 819 q 454 907 411 873 z "},"ò":{"ha":742,"x_min":35,"x_max":722,"o":"m 392 625 q 483 629 435 631 q 574 612 530 627 q 652 570 617 598 q 707 495 688 541 q 721 429 720 463 q 711 366 722 396 q 682 307 701 335 q 636 256 662 279 q 514 171 581 206 q 374 117 448 136 q 310 102 343 109 q 243 96 277 96 q 176 104 209 96 q 115 129 144 111 q 91 161 95 141 q 73 205 83 184 q 55 247 64 225 q 41 290 46 269 q 35 335 35 312 q 55 422 35 381 q 109 495 75 464 q 240 582 165 549 q 392 625 315 614 m 545 509 q 467 522 509 522 q 377 513 422 524 q 292 486 332 503 q 214 444 254 471 q 155 380 174 418 q 144 338 144 359 q 151 296 145 317 q 168 254 157 275 q 186 213 178 233 q 213 208 208 208 q 220 206 216 206 q 227 206 224 206 q 275 208 254 203 q 313 213 290 208 q 381 231 349 220 q 441 256 414 243 q 502 289 472 271 q 552 326 532 307 q 578 351 566 338 q 587 362 585 358 q 598 376 594 372 q 605 388 602 381 q 610 403 610 397 q 612 410 612 406 q 614 416 613 414 l 614 431 q 613 439 613 437 q 612 445 613 442 q 604 459 608 454 q 597 469 601 464 q 593 473 598 468 q 587 480 589 479 l 576 491 q 562 500 570 495 q 545 509 553 506 m 323 922 q 412 861 366 888 q 506 810 457 834 q 532 777 529 798 q 525 739 536 757 q 494 713 514 722 q 450 716 473 704 q 247 845 345 770 q 231 884 229 860 q 247 922 232 907 q 285 938 264 940 q 323 922 305 936 z "},"ô":{"ha":742,"x_min":35,"x_max":722,"o":"m 392 625 q 483 629 435 631 q 574 612 530 627 q 652 570 617 598 q 707 495 688 541 q 721 429 720 463 q 711 366 722 396 q 682 307 701 335 q 636 256 662 279 q 514 171 581 206 q 374 117 448 136 q 310 102 343 109 q 243 96 277 96 q 176 104 209 96 q 115 129 144 111 q 91 161 95 141 q 73 205 83 184 q 55 247 64 225 q 41 290 46 269 q 35 335 35 312 q 55 422 35 381 q 109 495 75 464 q 240 582 165 549 q 392 625 315 614 m 545 509 q 467 522 509 522 q 377 513 422 524 q 292 486 332 503 q 214 444 254 471 q 155 380 174 418 q 144 338 144 359 q 151 296 145 317 q 168 254 157 275 q 186 213 178 233 q 213 208 208 208 q 220 206 216 206 q 227 206 224 206 q 275 208 254 203 q 313 213 290 208 q 381 231 349 220 q 441 256 414 243 q 502 289 472 271 q 552 326 532 307 q 578 351 566 338 q 587 362 585 358 q 598 376 594 372 q 605 388 602 381 q 610 403 610 397 q 612 410 612 406 q 614 416 613 414 l 614 431 q 613 439 613 437 q 612 445 613 442 q 604 459 608 454 q 597 469 601 464 q 593 473 598 468 q 587 480 589 479 l 576 491 q 562 500 570 495 q 545 509 553 506 m 594 822 q 610 783 612 807 q 594 745 609 760 q 557 730 578 728 q 518 745 536 731 q 465 793 490 768 q 411 841 439 818 q 355 795 382 818 q 301 746 328 772 q 260 731 282 728 q 224 748 239 734 q 208 783 210 762 q 225 823 206 804 q 301 891 262 859 q 384 954 340 924 q 410 960 395 960 q 438 954 426 960 q 519 890 483 926 q 594 822 555 853 z "},"ö":{"ha":742,"x_min":35,"x_max":722,"o":"m 392 625 q 483 629 435 631 q 574 612 530 627 q 652 570 617 598 q 707 495 688 541 q 721 429 720 463 q 711 366 722 396 q 682 307 701 335 q 636 256 662 279 q 514 171 581 206 q 374 117 448 136 q 310 102 343 109 q 243 96 277 96 q 176 104 209 96 q 115 129 144 111 q 91 161 95 141 q 73 205 83 184 q 55 247 64 225 q 41 290 46 269 q 35 335 35 312 q 55 422 35 381 q 109 495 75 464 q 240 582 165 549 q 392 625 315 614 m 545 509 q 467 522 509 522 q 377 513 422 524 q 292 486 332 503 q 214 444 254 471 q 155 380 174 418 q 144 338 144 359 q 151 296 145 317 q 168 254 157 275 q 186 213 178 233 q 213 208 208 208 q 220 206 216 206 q 227 206 224 206 q 275 208 254 203 q 313 213 290 208 q 381 231 349 220 q 441 256 414 243 q 502 289 472 271 q 552 326 532 307 q 578 351 566 338 q 587 362 585 358 q 598 376 594 372 q 605 388 602 381 q 610 403 610 397 q 612 410 612 406 q 614 416 613 414 l 614 431 q 613 439 613 437 q 612 445 613 442 q 604 459 608 454 q 597 469 601 464 q 593 473 598 468 q 587 480 589 479 l 576 491 q 562 500 570 495 q 545 509 553 506 m 358 842 q 373 815 370 833 q 376 799 376 804 q 373 783 376 793 l 359 746 q 326 721 349 726 q 285 727 304 716 q 260 758 267 736 q 256 773 259 770 q 251 814 245 793 q 277 846 256 833 q 296 857 285 853 q 317 860 307 861 q 333 858 328 859 q 346 852 338 857 q 358 842 354 846 m 543 831 q 567 798 562 821 q 562 757 572 776 q 547 738 555 746 q 519 720 534 726 q 482 722 500 713 q 453 747 464 731 q 443 775 445 761 q 441 804 441 789 q 456 843 441 827 q 495 859 472 859 q 543 831 526 859 z "},"õ":{"ha":742,"x_min":35,"x_max":722,"o":"m 392 625 q 483 629 435 631 q 574 612 530 627 q 652 570 617 598 q 707 495 688 541 q 721 429 720 463 q 711 366 722 396 q 682 307 701 335 q 636 256 662 279 q 514 171 581 206 q 374 117 448 136 q 310 102 343 109 q 243 96 277 96 q 176 104 209 96 q 115 129 144 111 q 91 161 95 141 q 73 205 83 184 q 55 247 64 225 q 41 290 46 269 q 35 335 35 312 q 55 422 35 381 q 109 495 75 464 q 240 582 165 549 q 392 625 315 614 m 545 509 q 467 522 509 522 q 377 513 422 524 q 292 486 332 503 q 214 444 254 471 q 155 380 174 418 q 144 338 144 359 q 151 296 145 317 q 168 254 157 275 q 186 213 178 233 q 213 208 208 208 q 220 206 216 206 q 227 206 224 206 q 275 208 254 203 q 313 213 290 208 q 381 231 349 220 q 441 256 414 243 q 502 289 472 271 q 552 326 532 307 q 578 351 566 338 q 587 362 585 358 q 598 376 594 372 q 605 388 602 381 q 610 403 610 397 q 612 410 612 406 q 614 416 613 414 l 614 431 q 613 439 613 437 q 612 445 613 442 q 604 459 608 454 q 597 469 601 464 q 593 473 598 468 q 587 480 589 479 l 576 491 q 562 500 570 495 q 545 509 553 506 m 525 708 q 466 702 496 697 q 411 726 435 707 q 374 759 392 741 q 332 781 357 777 q 288 773 309 785 q 252 746 267 761 q 212 730 233 727 q 177 747 191 732 q 159 782 163 761 q 175 822 156 803 q 227 861 198 845 q 287 885 255 878 q 351 888 319 892 q 412 865 382 883 q 457 827 438 848 q 469 816 464 821 q 481 808 475 811 q 498 813 490 807 q 514 828 506 819 q 529 847 522 837 q 540 863 536 857 q 578 879 555 880 q 616 863 601 878 q 632 825 633 846 q 616 787 631 804 q 576 741 597 764 q 525 708 556 719 z "},"ú":{"ha":739,"x_min":56,"x_max":703,"o":"m 642 479 q 658 245 643 362 q 697 15 673 129 q 688 -28 703 -11 q 655 -50 674 -45 q 617 -47 636 -56 q 593 -14 598 -39 q 564 138 576 64 q 555 125 559 132 q 545 113 551 119 q 483 56 518 80 q 408 20 448 33 q 326 5 368 7 q 243 15 283 4 q 133 85 171 35 q 79 200 95 136 q 60 334 62 264 q 56 464 57 404 q 72 503 56 490 q 109 515 88 515 q 146 503 129 515 q 164 464 163 490 q 166 354 165 410 q 178 250 167 298 q 190 203 183 222 q 212 161 197 183 q 219 151 218 152 q 222 148 220 149 q 250 128 243 132 q 266 122 256 125 q 381 125 323 106 q 475 197 439 145 q 505 264 495 229 q 519 336 515 300 q 526 409 524 372 q 533 483 528 446 q 554 536 533 524 q 598 545 575 549 q 620 536 612 541 l 631 526 q 642 479 646 502 m 483 769 q 521 785 500 783 q 559 769 541 787 q 575 730 574 754 q 559 692 576 707 q 355 563 461 617 q 312 559 332 551 q 281 586 292 568 q 274 624 271 604 q 300 656 277 644 q 394 708 349 681 q 483 769 439 735 z "},"ù":{"ha":739,"x_min":56,"x_max":703,"o":"m 642 479 q 658 245 643 362 q 697 15 673 129 q 688 -28 703 -11 q 655 -50 674 -45 q 617 -47 636 -56 q 593 -14 598 -39 q 564 138 576 64 q 555 125 559 132 q 545 113 551 119 q 483 56 518 80 q 408 20 448 33 q 326 5 368 7 q 243 15 283 4 q 133 85 171 35 q 79 200 95 136 q 60 334 62 264 q 56 464 57 404 q 72 503 56 490 q 109 515 88 515 q 146 503 129 515 q 164 464 163 490 q 166 354 165 410 q 178 250 167 298 q 190 203 183 222 q 212 161 197 183 q 219 151 218 152 q 222 148 220 149 q 250 128 243 132 q 266 122 256 125 q 381 125 323 106 q 475 197 439 145 q 505 264 495 229 q 519 336 515 300 q 526 409 524 372 q 533 483 528 446 q 554 536 533 524 q 598 545 575 549 q 620 536 612 541 l 631 526 q 642 479 646 502 m 241 769 q 330 708 285 735 q 425 656 376 681 q 451 624 448 644 q 444 586 454 604 q 412 559 433 568 q 369 563 392 551 q 165 692 263 617 q 149 730 148 707 q 165 769 151 754 q 203 785 183 787 q 241 769 224 783 z "},"û":{"ha":739,"x_min":56,"x_max":703,"o":"m 642 479 q 658 245 643 362 q 697 15 673 129 q 688 -28 703 -11 q 655 -50 674 -45 q 617 -47 636 -56 q 593 -14 598 -39 q 564 138 576 64 q 555 125 559 132 q 545 113 551 119 q 483 56 518 80 q 408 20 448 33 q 326 5 368 7 q 243 15 283 4 q 133 85 171 35 q 79 200 95 136 q 60 334 62 264 q 56 464 57 404 q 72 503 56 490 q 109 515 88 515 q 146 503 129 515 q 164 464 163 490 q 166 354 165 410 q 178 250 167 298 q 190 203 183 222 q 212 161 197 183 q 219 151 218 152 q 222 148 220 149 q 250 128 243 132 q 266 122 256 125 q 381 125 323 106 q 475 197 439 145 q 505 264 495 229 q 519 336 515 300 q 526 409 524 372 q 533 483 528 446 q 554 536 533 524 q 598 545 575 549 q 620 536 612 541 l 631 526 q 642 479 646 502 m 513 697 q 529 659 530 682 q 513 620 528 635 q 475 605 496 604 q 437 620 454 606 q 383 668 408 643 q 330 716 358 693 q 274 670 301 693 q 220 621 247 647 q 179 606 201 604 q 143 623 157 609 q 127 659 129 637 q 144 699 125 680 q 220 766 180 734 q 302 829 259 799 q 329 836 313 836 q 357 829 345 836 q 437 765 401 802 q 513 697 473 728 z "},"ü":{"ha":739,"x_min":56,"x_max":703,"o":"m 642 479 q 658 245 643 362 q 697 15 673 129 q 688 -28 703 -11 q 655 -50 674 -45 q 617 -47 636 -56 q 593 -14 598 -39 q 564 138 576 64 q 555 125 559 132 q 545 113 551 119 q 483 56 518 80 q 408 20 448 33 q 326 5 368 7 q 243 15 283 4 q 133 85 171 35 q 79 200 95 136 q 60 334 62 264 q 56 464 57 404 q 72 503 56 490 q 109 515 88 515 q 146 503 129 515 q 164 464 163 490 q 166 354 165 410 q 178 250 167 298 q 190 203 183 222 q 212 161 197 183 q 219 151 218 152 q 222 148 220 149 q 250 128 243 132 q 266 122 256 125 q 381 125 323 106 q 475 197 439 145 q 505 264 495 229 q 519 336 515 300 q 526 409 524 372 q 533 483 528 446 q 554 536 533 524 q 598 545 575 549 q 620 536 612 541 l 631 526 q 642 479 646 502 m 290 731 q 305 704 302 722 q 308 688 308 693 q 305 671 308 682 l 292 635 q 258 610 281 614 q 217 616 236 605 q 193 647 199 625 q 189 662 191 659 q 183 703 178 682 q 209 735 189 722 q 228 746 217 742 q 250 749 239 750 q 265 747 260 747 q 278 741 270 746 q 290 731 286 735 m 475 720 q 499 687 494 709 q 494 646 505 665 q 479 627 487 635 q 452 609 467 614 q 414 611 433 602 q 385 636 396 620 q 375 664 377 650 q 373 693 373 678 q 389 732 373 716 q 427 747 404 747 q 475 720 458 747 z "},"°":{"ha":404,"x_min":26,"x_max":377,"o":"m 140 1078 q 210 1093 174 1095 q 278 1076 247 1092 q 334 1032 309 1061 q 369 967 358 1004 q 376 905 377 939 q 366 840 376 871 q 336 783 357 808 q 286 743 316 757 q 210 728 251 728 q 131 743 168 728 q 66 787 94 758 q 31 857 39 815 q 29 869 30 868 q 28 871 28 869 q 33 930 26 899 q 56 991 41 962 q 92 1043 71 1020 q 140 1078 114 1066 m 269 918 q 267 926 269 920 q 266 933 266 932 q 262 947 263 941 q 258 951 262 945 q 255 959 255 958 q 236 976 244 970 q 221 985 228 982 q 179 975 195 991 q 158 949 167 964 q 145 921 149 935 q 137 894 140 909 q 137 879 136 882 q 152 853 141 860 q 184 841 163 846 q 199 837 195 838 q 218 836 210 836 q 220 834 227 837 q 233 838 232 837 q 245 845 235 838 q 255 857 252 853 q 259 863 258 861 q 267 888 264 878 l 269 918 z "},"¢":{"ha":571,"x_min":7,"x_max":555,"o":"m 468 363 q 509 370 487 378 q 543 345 532 362 q 548 304 555 324 q 524 271 541 285 q 440 235 486 243 q 347 232 395 227 q 331 33 336 132 q 312 -7 330 7 q 274 -20 294 -20 q 238 -7 254 -20 q 224 33 222 5 q 231 144 227 90 q 241 256 235 199 q 220 264 231 259 q 199 273 210 269 q 124 317 161 290 q 60 380 87 345 q 20 457 33 415 q 19 545 7 499 q 47 603 27 576 q 91 652 68 629 q 209 745 148 705 q 225 755 217 750 q 241 766 233 761 q 227 861 235 814 q 210 955 218 907 q 216 996 208 977 q 248 1021 225 1015 q 289 1017 267 1027 q 315 983 311 1006 l 343 821 q 401 841 372 833 q 463 849 431 849 q 501 832 488 849 q 514 795 514 815 q 501 758 514 774 q 463 741 488 741 q 438 738 444 739 q 426 735 433 736 q 403 727 415 731 q 384 719 391 723 q 372 713 377 716 q 359 708 366 711 q 370 604 366 656 q 373 500 373 552 q 368 420 372 460 q 359 339 365 380 l 373 339 q 424 342 401 338 q 468 363 446 347 m 255 366 q 262 432 259 399 q 264 500 264 465 q 262 574 264 537 q 258 647 260 610 q 218 619 237 633 q 182 589 199 605 q 149 555 163 570 q 125 521 134 541 q 123 502 123 506 q 125 492 122 498 q 133 464 127 477 q 149 439 138 450 q 254 366 193 391 l 255 366 z "},"£":{"ha":852,"x_min":14,"x_max":825,"o":"m 770 127 q 808 111 792 125 q 825 73 825 96 q 808 35 825 53 q 770 20 792 18 q 591 27 681 27 q 410 28 500 27 q 231 37 320 30 q 53 66 141 43 q 24 85 35 71 q 14 118 14 100 q 25 151 14 138 q 53 171 37 164 q 68 176 61 174 q 83 182 76 179 q 155 212 114 194 q 233 252 197 229 q 297 306 270 275 q 327 376 324 336 q 326 415 328 396 q 321 453 324 434 l 119 453 q 79 470 92 453 q 66 507 66 487 q 79 545 66 528 q 119 562 92 562 l 289 562 q 262 648 274 605 q 248 735 250 690 q 263 835 247 785 q 319 918 279 884 q 409 973 359 954 q 513 996 458 993 q 606 990 559 998 q 693 954 654 982 q 755 886 731 925 q 798 803 779 846 q 803 762 807 783 q 779 730 799 741 q 737 724 761 719 q 704 749 713 728 q 684 792 694 770 q 661 834 674 814 q 642 857 651 846 q 618 873 632 867 q 544 889 587 888 q 465 879 500 890 q 393 840 423 865 q 357 770 363 814 q 362 690 351 731 q 384 612 373 648 q 392 587 388 600 q 400 562 396 575 l 591 562 q 630 545 617 562 q 643 507 643 528 q 630 470 643 487 q 591 453 617 453 l 429 453 q 431 351 438 401 q 391 254 425 301 q 330 191 363 218 q 256 142 296 164 q 513 134 384 132 q 770 127 642 137 z "},"§":{"ha":689,"x_min":26,"x_max":662,"o":"m 578 -39 q 495 -85 540 -71 q 401 -95 450 -100 q 309 -74 353 -90 q 222 -37 264 -58 q 138 7 179 -16 q 54 54 96 31 q 28 87 31 66 q 36 126 26 109 q 66 152 46 144 q 109 148 85 160 q 237 75 172 113 q 373 19 301 37 q 444 13 408 11 q 506 42 479 15 q 534 77 521 57 q 552 118 548 96 q 552 136 553 129 q 552 136 551 142 q 549 147 549 145 q 543 159 549 149 q 532 170 540 164 q 518 183 525 176 q 504 193 513 187 q 488 202 495 198 q 407 236 453 221 q 312 264 359 251 q 218 298 264 278 q 155 337 183 313 q 113 397 127 361 q 103 479 99 434 q 122 559 107 524 q 166 634 140 602 q 228 689 193 666 q 152 718 189 701 q 91 766 115 734 q 68 845 66 799 q 94 924 71 891 q 149 979 117 956 q 217 1019 180 1002 q 393 1079 300 1057 q 579 1095 487 1101 q 618 1076 605 1093 q 631 1038 631 1058 q 618 1001 631 1017 q 579 986 605 985 q 484 983 532 989 q 391 966 437 977 q 308 941 349 955 q 231 905 267 928 q 220 899 225 902 q 210 891 216 895 q 198 882 201 884 q 193 876 195 879 q 182 863 183 865 q 179 852 182 861 l 178 833 q 186 822 184 822 l 198 814 q 225 804 209 808 q 258 793 241 799 q 315 776 286 785 q 370 755 343 766 q 399 764 385 761 q 427 772 412 768 q 460 770 446 776 q 484 751 475 764 q 494 722 492 738 q 490 693 495 707 q 543 650 518 674 q 585 597 568 625 q 608 536 602 568 q 605 469 614 505 q 550 382 590 415 q 460 331 510 350 q 530 302 495 319 q 593 262 564 285 q 640 210 621 240 q 661 140 658 179 q 656 90 662 115 q 638 41 650 65 q 611 -3 627 18 q 578 -39 595 -23 m 420 431 q 456 448 441 438 q 471 457 467 454 q 480 467 475 460 q 492 480 491 477 q 496 486 494 483 q 501 498 500 496 q 502 502 502 499 q 501 518 502 515 q 500 522 500 521 q 494 538 498 532 q 491 545 491 544 l 483 557 q 461 579 467 575 q 429 605 446 594 q 393 627 412 616 q 379 634 387 631 q 365 640 372 637 q 270 587 312 621 q 217 498 228 553 q 213 479 214 487 q 212 461 212 471 l 212 444 q 216 432 214 437 q 216 430 217 427 q 220 425 218 427 q 224 420 222 423 q 228 416 227 418 q 228 415 229 414 q 251 401 239 408 q 275 389 263 395 q 315 407 290 404 q 420 431 369 412 z "},"•":{"ha":339,"x_min":41,"x_max":300,"o":"m 94 387 q 68 403 80 392 q 54 429 57 414 q 42 460 43 442 q 49 492 41 477 q 56 509 52 500 q 66 525 60 518 q 68 552 64 538 q 81 576 72 566 q 102 590 90 586 q 132 589 115 594 q 158 577 145 583 q 182 562 171 571 q 251 540 224 557 q 283 505 271 526 q 298 460 296 483 q 289 418 300 438 q 254 385 278 397 q 174 370 218 368 q 94 387 129 372 z "},"¶":{"ha":818,"x_min":27,"x_max":779,"o":"m 252 529 q 171 556 212 538 q 98 602 130 574 q 47 666 66 629 q 27 750 27 703 q 41 813 27 784 q 76 866 54 842 q 125 908 98 890 q 180 940 152 926 q 330 992 252 975 q 486 1015 407 1009 q 574 1017 529 1017 q 663 1006 620 1017 q 686 1001 673 1006 q 720 990 704 997 q 750 975 735 983 q 774 945 770 963 q 772 910 779 926 q 749 883 765 894 q 715 875 734 872 q 706 468 712 670 q 700 61 700 266 q 683 21 700 34 q 646 8 666 8 q 608 21 625 8 q 591 61 591 34 q 598 483 591 273 q 606 906 605 693 q 555 909 581 909 q 503 909 529 910 q 507 703 503 804 q 513 591 510 646 q 515 479 515 536 q 507 268 515 373 q 498 57 499 163 q 481 18 498 31 q 444 5 464 5 q 407 18 423 5 q 391 57 391 31 q 399 273 391 165 q 407 490 408 380 l 407 515 q 329 517 368 514 q 252 529 290 521 m 136 758 q 137 736 136 742 q 161 689 145 705 q 212 655 183 669 q 272 634 240 642 q 338 625 304 627 q 404 623 372 623 q 399 760 401 692 q 396 897 396 827 q 292 871 343 887 q 198 827 240 854 q 180 817 191 825 q 165 804 170 807 q 157 796 161 800 q 148 784 148 784 q 145 780 146 783 q 142 774 144 777 q 139 769 140 770 q 140 770 138 768 l 136 758 z "},"ß":{"ha":836,"x_min":-14,"x_max":823,"o":"m 670 227 q 736 186 703 208 q 795 133 770 164 q 822 58 821 99 q 788 -11 823 18 q 690 -66 745 -47 q 578 -86 636 -84 q 465 -75 521 -88 q 361 -34 408 -61 q 335 -1 338 -22 q 342 37 332 20 q 372 62 353 54 q 415 58 392 71 q 450 43 433 49 q 486 31 467 37 q 590 23 537 19 q 690 53 643 27 q 711 65 703 58 q 703 73 707 69 q 693 81 699 77 q 631 123 666 104 q 559 163 595 142 q 490 207 524 183 q 433 262 457 231 q 402 321 412 289 q 403 387 392 353 q 430 441 412 416 q 469 488 448 467 q 519 538 494 514 q 570 586 545 562 q 614 637 594 610 q 650 696 635 665 q 669 768 665 726 q 671 848 674 810 q 669 861 670 853 q 665 879 667 869 l 661 895 q 652 911 655 906 q 646 922 650 917 q 641 926 647 920 q 632 936 635 933 q 622 943 624 943 q 617 947 620 944 q 606 950 608 949 q 604 951 605 951 q 589 954 593 954 l 568 954 q 543 947 551 949 l 524 940 q 497 924 511 933 q 476 910 483 916 q 411 836 438 878 q 364 747 384 793 q 331 650 345 700 q 305 553 317 601 q 273 42 244 301 q 257 3 275 19 q 218 -12 239 -12 q 182 3 195 -12 q 165 42 168 19 q 174 445 142 244 q 107 457 140 452 q 41 465 75 463 q 2 482 18 468 q -14 519 -14 496 q 2 558 -14 540 q 41 574 18 576 q 117 564 80 570 q 194 551 155 557 q 277 810 225 688 q 318 891 294 852 q 374 963 342 930 q 428 1008 399 987 q 490 1043 457 1029 q 557 1061 522 1057 q 628 1057 593 1065 q 692 1026 665 1047 q 738 976 719 1005 q 767 912 757 947 q 780 842 777 878 q 755 673 785 751 q 663 528 724 594 q 614 478 640 502 q 564 430 589 454 q 543 409 553 419 q 524 388 533 399 q 519 380 524 387 q 514 372 515 374 q 506 351 506 357 q 511 338 506 347 q 514 334 517 330 q 533 313 521 323 q 598 268 562 289 q 670 227 635 247 z "},"®":{"ha":949,"x_min":23,"x_max":928,"o":"m 659 457 q 684 422 681 444 q 676 383 686 400 q 646 358 666 366 q 605 365 627 350 q 499 431 551 397 q 392 494 448 465 q 387 444 389 469 q 382 395 385 419 q 366 356 380 372 q 328 340 353 340 q 290 356 308 340 q 274 395 271 372 q 292 585 283 491 q 312 776 301 680 q 328 814 315 798 q 366 830 342 830 q 463 827 419 831 q 547 807 507 822 q 619 772 583 795 q 666 705 655 749 q 665 659 671 681 q 644 618 658 637 q 610 585 629 600 q 570 562 590 571 q 547 552 559 556 q 522 544 534 548 q 591 502 557 524 q 659 457 624 480 m 406 629 q 453 638 429 633 q 500 650 477 643 q 528 660 514 654 q 551 677 541 666 q 549 689 551 688 q 544 692 547 690 q 519 703 532 699 q 491 711 507 707 q 453 718 472 716 q 415 722 434 720 q 410 675 412 699 q 406 629 408 652 m 761 894 q 863 769 819 842 q 917 618 906 696 q 913 463 928 541 q 853 320 898 385 q 695 184 792 231 q 491 133 598 137 q 302 168 389 129 q 141 277 214 208 q 132 286 133 285 q 129 289 130 286 q 83 353 100 320 q 36 486 49 415 q 30 627 23 556 q 64 764 37 697 q 137 884 91 830 q 276 983 195 952 q 444 1013 357 1015 q 614 981 530 1012 q 761 894 697 949 m 753 363 q 803 467 788 414 q 814 579 818 519 q 813 587 814 583 q 812 594 812 590 q 810 610 811 605 q 806 623 808 616 q 798 649 803 633 q 791 670 793 665 q 761 728 777 700 q 724 779 745 755 q 581 877 663 845 q 410 905 498 909 q 347 895 378 902 q 290 872 316 887 q 274 863 282 867 q 259 852 266 859 q 248 843 251 845 q 241 838 244 841 q 230 827 235 831 q 220 815 225 822 q 210 804 213 808 q 151 688 167 745 q 136 567 134 631 q 137 549 137 557 q 138 530 137 540 q 140 515 140 518 q 141 509 141 511 q 157 449 146 481 q 167 425 163 434 q 182 399 171 416 q 198 374 187 387 q 210 358 205 366 q 330 273 264 307 q 473 240 396 239 q 551 249 511 241 q 629 272 591 256 q 698 310 666 288 q 753 363 730 332 z "},"©":{"ha":958,"x_min":19,"x_max":929,"o":"m 623 453 q 663 448 644 457 q 689 416 682 439 q 684 374 694 396 q 651 350 674 353 q 574 339 614 343 q 495 336 534 335 q 417 344 456 336 q 345 370 378 351 q 271 437 300 393 q 245 532 243 480 q 278 640 250 590 q 350 727 307 689 q 447 790 393 765 q 553 826 500 815 q 596 818 579 831 q 618 785 613 804 q 616 746 624 765 q 582 722 608 727 q 490 691 533 711 q 416 642 448 671 q 403 627 410 635 q 389 612 396 620 q 385 606 389 610 q 380 598 381 601 q 374 590 377 594 q 369 582 372 586 q 365 572 368 579 q 363 568 362 566 q 354 538 357 549 l 354 518 q 358 503 355 509 q 366 488 363 491 q 380 475 374 479 q 403 463 393 465 q 426 454 420 456 q 438 452 431 453 q 461 447 453 448 q 487 445 469 446 q 555 445 521 442 q 623 453 589 448 m 762 902 q 829 825 799 867 q 882 737 860 784 q 917 640 905 690 q 929 540 929 590 q 884 350 929 441 q 755 202 840 259 q 650 152 707 170 q 534 129 594 134 q 415 130 475 123 q 301 151 355 136 q 184 218 233 172 q 100 316 136 263 q 41 445 62 376 q 33 586 19 514 q 75 723 46 656 q 149 844 104 789 q 252 937 194 898 q 384 996 311 977 q 586 1000 487 1023 q 762 902 685 977 m 708 300 q 800 425 769 350 q 819 581 831 500 q 795 666 812 623 q 752 748 777 709 q 694 819 727 787 q 623 872 661 852 q 538 899 583 892 q 448 900 494 906 q 361 876 403 894 q 285 830 319 859 q 220 761 248 799 q 174 680 193 723 q 143 595 155 640 q 137 507 132 551 q 160 429 142 469 q 204 353 178 389 q 262 291 231 317 q 330 255 294 264 q 437 235 382 240 q 547 241 492 231 q 631 260 589 248 q 708 300 674 273 z "},"´":{"ha":764,"x_min":229,"x_max":534,"o":"m 441 1004 q 479 1019 458 1017 q 517 1004 499 1021 q 533 965 532 989 q 517 926 534 941 q 313 798 419 852 q 270 794 290 785 q 239 821 250 803 q 232 859 229 838 q 258 891 235 879 q 352 943 307 916 q 441 1004 397 970 z "},"¨":{"ha":764,"x_min":218,"x_max":545,"o":"m 331 966 q 346 939 343 956 q 349 922 349 928 q 346 906 349 917 l 332 869 q 299 844 321 849 q 258 850 277 840 q 233 882 240 860 q 229 897 232 894 q 224 937 218 917 q 250 970 229 956 q 269 981 258 977 q 290 983 279 985 q 306 981 301 982 q 319 975 311 981 q 331 966 327 970 m 515 955 q 540 922 534 944 q 534 880 545 899 q 519 861 528 869 q 492 844 507 849 q 455 846 473 837 q 426 871 437 854 q 416 899 418 884 q 414 928 414 913 q 429 966 414 951 q 468 982 445 982 q 515 955 499 982 z "},"Æ":{"ha":1225,"x_min":-46,"x_max":1242,"o":"m -15 19 q -39 52 -33 30 q -34 94 -46 75 q 134 316 46 209 q 309 533 222 423 q 477 764 399 646 q 616 1012 555 882 q 648 1038 625 1032 q 690 1032 671 1043 q 716 993 712 1019 q 820 990 768 991 q 924 987 872 989 q 1047 987 985 986 q 1171 1000 1109 987 q 1211 994 1192 1004 q 1237 962 1230 985 q 1232 920 1242 941 q 1199 895 1221 899 q 1085 880 1142 884 q 970 876 1028 876 q 855 879 913 876 q 741 884 798 882 q 715 736 726 811 q 699 583 705 661 q 887 568 792 568 q 1077 568 982 568 q 1116 551 1103 568 q 1128 514 1128 534 q 1116 477 1128 494 q 1077 460 1103 460 q 884 461 981 460 q 692 476 788 463 q 696 322 690 399 q 719 170 703 245 q 902 166 811 168 q 1085 163 993 164 q 1124 146 1111 163 q 1137 109 1137 129 q 1124 73 1137 90 q 1085 56 1111 56 q 916 58 1000 56 q 747 61 833 60 q 736 26 750 39 q 704 8 723 12 q 667 13 685 4 q 640 45 648 22 q 637 54 639 49 q 635 64 636 58 q 606 77 616 65 q 592 104 595 90 q 593 135 589 119 q 610 160 598 151 q 590 296 597 227 q 420 282 505 290 q 251 258 336 274 q 225 258 237 255 q 140 150 182 203 q 60 39 99 96 q 26 14 46 20 q -15 19 5 8 m 397 472 q 360 425 378 449 q 323 378 342 401 q 453 393 388 388 q 585 404 518 399 q 590 591 582 498 q 613 779 598 685 q 510 621 564 697 q 397 472 456 545 z "},"Ø":{"ha":766,"x_min":12,"x_max":747,"o":"m 582 716 q 654 654 618 685 q 712 582 689 623 q 743 489 739 536 q 736 397 747 442 q 703 308 726 351 q 652 224 680 264 q 596 149 628 189 q 526 77 564 110 q 443 26 487 45 q 350 12 399 7 q 326 20 338 15 q 308 34 315 24 q 265 42 286 38 q 225 57 244 46 q 197 -11 210 23 q 171 -80 183 -45 q 146 -113 164 -100 q 104 -118 127 -125 q 72 -92 84 -111 q 66 -52 60 -72 q 102 42 84 -4 q 142 133 121 88 q 125 156 133 144 q 109 180 117 168 q 72 241 90 209 q 41 308 54 274 q 20 377 27 342 q 15 448 12 412 q 30 584 19 517 q 57 716 41 651 q 71 770 62 741 q 92 828 79 800 q 122 879 104 856 q 167 914 140 902 q 248 927 208 932 q 328 905 289 922 q 401 862 366 887 q 468 812 437 837 q 481 802 475 807 q 494 791 487 796 q 530 861 513 826 q 563 932 547 897 q 596 958 572 952 q 637 952 620 963 q 662 919 658 940 q 656 878 666 898 q 618 798 637 837 q 578 719 600 758 l 582 716 m 195 244 q 317 470 254 359 q 442 693 381 581 q 386 741 415 718 q 326 783 357 764 q 262 815 293 804 q 254 817 258 817 q 247 819 251 818 l 227 821 q 213 815 218 818 q 202 804 203 804 q 190 781 193 788 q 182 760 187 774 q 159 680 168 720 q 142 601 149 640 q 131 529 136 562 q 123 457 126 496 q 127 395 121 423 q 148 331 133 366 q 170 286 159 308 q 195 244 182 264 m 623 385 q 637 475 642 433 q 598 556 633 517 q 564 591 582 575 q 526 624 545 608 q 395 391 461 506 q 271 156 330 277 q 288 149 279 152 q 307 142 296 145 q 351 135 330 138 q 396 125 373 132 q 411 131 403 127 q 427 141 419 134 q 469 174 450 156 q 506 210 488 191 q 572 293 540 248 q 623 385 604 338 z "},"±":{"ha":591,"x_min":-4,"x_max":594,"o":"m 506 473 q 545 456 532 473 q 557 419 557 439 q 545 382 557 399 q 506 365 532 365 q 426 365 467 363 q 346 368 385 366 q 348 293 347 330 q 349 218 349 256 q 332 178 349 191 q 294 165 315 165 q 258 178 274 165 q 241 218 241 191 q 240 294 241 256 q 237 369 239 331 q 153 366 194 369 q 68 357 111 363 q 27 363 46 354 q 1 395 8 372 q 7 435 -4 414 q 39 461 18 457 q 139 472 90 469 q 240 476 189 475 q 244 542 241 509 q 250 609 247 575 q 267 647 252 631 q 304 663 281 663 q 342 647 324 663 q 358 609 361 631 q 353 542 355 575 q 347 475 350 509 q 427 473 387 473 q 506 473 467 472 m 541 110 q 581 92 567 109 q 594 54 594 75 q 581 18 594 34 q 541 1 567 1 q 424 7 483 3 q 306 13 365 11 q 188 12 247 15 q 71 0 129 9 q 29 5 47 -4 q 4 37 11 14 q 8 79 -3 57 q 42 103 19 100 q 167 117 104 114 q 292 119 229 121 q 416 115 354 118 q 541 110 479 111 z "},"¥":{"ha":754,"x_min":-3,"x_max":745,"o":"m 639 937 q 674 962 652 959 q 713 954 696 964 q 737 924 730 944 q 731 883 745 905 q 664 773 697 829 q 595 663 631 718 q 519 559 560 609 q 430 468 479 510 q 428 435 429 452 q 427 401 427 418 q 498 406 463 403 q 568 412 533 408 q 610 407 591 415 q 635 376 628 399 q 630 334 640 357 q 597 309 620 312 q 511 300 553 302 q 425 294 468 297 q 423 258 423 275 q 423 221 423 240 q 476 217 450 218 q 529 214 502 216 q 568 195 555 213 q 582 157 582 178 q 568 121 582 137 q 529 106 555 104 q 426 114 476 109 q 430 33 426 73 q 414 -5 431 11 q 376 -22 396 -22 q 338 -5 353 -22 q 321 33 324 11 q 317 122 317 77 q 257 126 286 125 q 198 127 228 127 q 159 144 172 127 q 146 182 146 161 q 159 218 146 202 q 198 235 172 235 q 315 231 258 235 q 315 262 315 245 q 316 293 316 278 q 269 294 293 294 q 221 296 245 294 q 182 315 195 297 q 170 353 170 332 q 182 389 170 373 q 221 404 195 406 q 270 402 245 403 q 319 401 294 401 q 319 413 319 408 q 320 425 320 418 q 311 432 315 427 q 305 442 308 437 q 237 534 266 486 q 183 637 208 583 q 160 689 172 663 q 129 736 148 715 q 27 817 88 785 q 1 849 4 829 q 7 887 -3 869 q 38 913 18 905 q 81 910 58 922 q 194 823 148 875 q 271 704 240 772 q 309 622 290 662 q 357 547 328 582 q 441 631 403 585 q 512 730 479 678 q 576 834 545 781 q 639 937 606 887 z "},"µ":{"ha":713,"x_min":20,"x_max":697,"o":"m 53 377 q 52 422 53 400 q 50 464 52 444 q 66 503 50 490 q 103 515 83 515 q 141 503 123 515 q 159 464 159 490 q 159 441 159 453 q 160 418 159 429 q 161 389 161 399 q 160 368 160 378 q 163 307 161 336 q 172 250 165 277 q 185 203 179 222 q 206 161 191 183 q 218 148 216 149 q 245 128 239 132 q 260 122 251 125 q 376 125 317 106 q 469 197 434 145 q 500 264 491 229 q 515 336 510 300 q 521 409 519 372 q 528 483 522 446 q 549 537 528 524 q 593 545 570 551 q 614 536 608 541 l 625 526 q 636 479 640 502 q 652 245 637 362 q 692 15 667 129 q 684 -28 697 -11 q 650 -50 670 -45 q 612 -47 631 -56 q 587 -14 593 -39 q 559 138 571 64 q 550 125 555 132 q 540 113 545 119 q 477 56 513 80 q 403 20 442 33 q 321 5 363 7 q 237 15 278 4 q 144 68 180 33 q 138 -20 141 24 q 134 -103 136 -64 q 130 -176 132 -142 q 129 -231 129 -209 q 112 -269 129 -256 q 75 -282 95 -282 q 37 -269 54 -282 q 20 -231 20 -256 q 23 -157 20 -202 q 29 -56 26 -111 q 37 61 33 0 q 44 180 41 122 q 50 290 47 239 q 53 377 53 340 z "},"ª":{"ha":555,"x_min":26,"x_max":514,"o":"m 509 868 q 513 765 514 817 q 511 662 513 713 q 506 558 509 610 q 506 454 503 506 q 492 417 507 430 q 459 403 477 404 q 423 412 441 401 q 400 444 406 422 q 269 414 338 418 q 138 437 201 411 q 71 485 96 454 q 36 553 46 515 q 28 633 26 591 q 45 713 31 674 q 69 774 56 743 q 102 833 83 806 q 148 879 122 860 q 209 903 174 898 q 308 906 259 910 q 403 884 357 902 q 422 911 407 901 q 454 922 438 922 q 492 907 479 922 q 509 868 506 891 m 399 564 q 403 664 400 614 q 406 764 406 713 q 370 783 388 774 q 330 795 351 792 q 282 800 307 798 q 235 799 258 802 q 214 794 224 798 q 197 780 203 791 q 152 692 168 739 q 140 647 145 671 q 136 600 134 623 q 150 559 138 576 q 190 533 161 541 q 298 526 245 518 q 399 564 351 533 z "},"º":{"ha":586,"x_min":26,"x_max":562,"o":"m 345 902 q 444 884 397 903 q 524 821 491 864 q 554 754 547 791 q 555 681 562 718 q 528 613 547 644 q 482 555 509 582 q 424 507 456 529 q 361 471 392 486 q 298 445 332 457 q 227 428 263 433 q 157 429 191 423 q 94 454 122 434 q 69 488 73 468 q 54 534 62 511 q 38 580 45 557 q 28 626 31 602 q 30 675 26 650 q 72 767 39 726 q 149 838 104 808 q 244 884 193 868 q 345 902 296 901 m 450 712 q 450 727 450 726 q 449 730 449 728 q 442 749 442 743 q 426 770 435 760 q 400 787 416 780 q 333 794 369 800 q 266 777 297 788 q 201 743 233 764 q 149 690 168 722 q 137 652 138 671 q 140 614 136 633 q 151 576 144 595 q 165 538 159 557 q 188 534 182 534 q 201 534 194 534 q 212 536 203 534 q 218 536 221 537 q 273 551 248 543 q 321 572 298 559 q 372 603 351 587 q 415 643 392 618 l 429 661 q 435 671 431 666 q 441 682 438 675 q 446 693 445 689 q 448 700 446 697 l 450 712 z "},"æ":{"ha":1089,"x_min":39,"x_max":1061,"o":"m 1046 148 q 953 58 1006 95 q 830 18 899 20 q 723 37 774 15 q 632 98 671 60 q 595 140 610 119 q 595 92 595 115 q 597 43 595 68 q 581 5 598 18 q 544 -8 564 -8 q 507 5 524 -8 q 488 43 490 18 q 324 6 411 11 q 159 37 237 1 q 86 93 113 57 q 50 172 60 129 q 43 262 39 216 q 62 353 47 309 q 90 423 75 387 q 127 491 106 460 q 179 545 149 522 q 250 574 209 567 q 334 578 292 581 q 419 570 377 576 q 456 561 438 567 q 491 548 473 555 q 509 582 492 568 q 545 595 526 595 q 582 581 568 595 q 598 547 595 567 q 659 601 625 578 q 732 635 693 624 q 811 647 770 647 q 892 631 852 647 q 967 587 933 614 q 1020 515 1001 559 q 1038 445 1035 483 q 1017 376 1040 407 q 968 332 997 347 q 905 311 939 317 q 838 304 872 304 q 772 305 803 304 q 702 311 736 307 q 632 319 667 315 q 676 210 643 258 q 764 138 709 163 q 787 130 779 133 q 794 128 791 129 q 802 127 798 127 q 821 125 812 126 q 836 126 829 125 q 854 130 850 129 q 881 140 869 134 q 909 157 892 145 q 930 178 917 164 q 954 202 944 191 q 987 228 967 221 q 1027 222 1006 235 q 1053 189 1044 212 q 1046 148 1061 167 m 742 526 q 686 485 711 511 q 647 426 662 458 q 712 418 680 422 q 777 412 745 414 q 813 412 796 412 q 848 414 830 412 q 858 414 853 414 q 868 415 863 415 q 886 418 880 418 q 899 422 892 419 q 913 426 905 423 q 922 430 920 429 q 926 433 924 431 l 929 449 q 926 459 926 454 q 924 468 925 464 q 916 480 921 472 q 907 494 911 488 q 888 512 901 503 q 861 528 876 521 q 802 538 837 538 q 742 526 768 538 m 488 168 q 494 296 491 233 q 496 422 498 358 q 450 448 473 437 q 397 464 426 460 q 337 470 369 468 q 275 469 305 472 q 261 466 273 469 q 248 461 250 463 q 224 439 235 454 q 193 387 206 415 q 168 331 179 359 q 153 275 160 307 q 149 216 146 244 q 167 163 152 187 q 216 130 182 140 q 355 118 285 109 q 486 167 425 127 l 488 168 z "},"ø":{"ha":742,"x_min":35,"x_max":722,"o":"m 526 624 q 633 583 585 613 q 707 495 682 553 q 721 429 720 463 q 711 366 722 396 q 682 307 701 335 q 636 256 662 279 q 514 171 581 206 q 374 117 448 136 q 340 109 358 113 q 304 102 323 104 q 237 2 274 49 q 151 -80 201 -45 q 109 -85 132 -92 q 76 -60 87 -79 q 71 -20 65 -39 q 96 14 77 0 q 141 54 121 31 q 179 103 161 77 q 115 129 145 111 q 91 161 95 141 q 73 205 83 184 q 55 247 64 225 q 41 290 46 269 q 35 335 35 312 q 55 422 35 381 q 109 495 75 464 q 240 582 165 549 q 392 625 315 614 q 400 626 396 625 q 410 627 404 627 q 452 718 429 674 q 511 796 476 761 q 550 812 529 815 q 585 795 571 810 q 602 760 600 781 q 587 720 605 739 q 552 675 567 700 q 526 624 537 651 m 236 205 q 279 297 259 251 q 321 388 300 343 q 347 449 335 418 q 369 511 358 480 q 330 500 349 506 q 292 486 311 494 q 214 444 254 471 q 155 380 174 418 q 144 338 144 359 q 151 296 145 317 q 168 254 157 275 q 186 213 178 233 q 213 208 208 208 q 220 206 216 206 q 227 206 224 206 l 236 205 m 614 431 q 613 439 613 437 q 612 445 613 442 q 604 459 608 454 q 597 469 601 464 q 593 473 598 468 q 587 480 589 479 l 576 491 q 562 500 570 495 q 545 509 553 506 q 488 522 519 518 q 447 412 468 464 q 401 307 426 359 q 385 267 393 288 q 366 227 376 247 q 406 241 387 233 q 441 256 425 248 q 502 289 472 271 q 552 326 532 307 q 578 351 566 338 q 587 362 585 358 q 598 376 594 372 q 605 388 602 381 q 610 403 610 397 q 612 410 612 406 q 614 416 613 414 l 614 431 z "},"¿":{"ha":631,"x_min":34,"x_max":616,"o":"m 324 0 q 235 26 282 9 q 148 68 189 42 q 77 129 107 94 q 39 213 47 164 q 35 280 34 247 q 58 342 37 313 q 104 385 77 369 q 161 410 130 400 q 218 422 189 418 q 275 433 247 427 q 304 438 290 435 q 334 444 319 441 l 358 452 q 372 457 369 454 q 384 464 376 458 q 395 477 395 475 l 396 495 q 389 523 395 507 q 377 552 382 538 q 367 579 372 566 q 357 606 362 593 q 341 664 347 635 q 335 724 335 693 q 350 763 334 750 q 387 776 366 776 q 425 763 407 776 q 442 724 442 750 q 454 660 444 690 q 475 598 464 629 q 501 511 491 555 q 488 423 511 467 q 448 378 473 396 q 395 350 423 361 q 340 335 368 340 q 285 326 313 330 q 229 315 256 321 q 174 300 201 309 q 163 294 165 296 q 159 292 161 293 q 148 282 149 283 q 146 279 146 281 q 143 267 142 270 q 144 259 144 263 q 143 252 144 255 q 142 252 142 250 q 151 218 145 233 q 186 174 160 195 q 260 131 217 146 q 345 106 302 115 q 453 88 399 94 q 564 80 507 83 q 603 62 590 80 q 616 24 616 45 q 603 -12 616 4 q 564 -28 590 -28 q 443 -20 503 -26 q 324 0 382 -15 m 336 890 q 309 922 319 901 q 307 962 300 943 q 334 997 315 983 q 372 1012 349 1013 q 410 996 395 1010 q 435 970 426 983 q 441 931 446 951 q 420 899 437 911 q 404 887 411 890 q 391 881 393 882 q 376 879 388 880 q 366 879 372 878 q 358 880 361 880 q 336 890 349 882 z "},"¡":{"ha":288,"x_min":69,"x_max":278,"o":"m 168 901 q 141 932 151 910 q 138 972 132 954 q 164 1006 146 994 q 203 1022 179 1023 q 241 1006 227 1021 q 267 981 258 994 q 273 942 278 962 q 252 910 269 922 q 245 903 248 906 q 236 897 241 899 q 222 891 225 891 q 208 890 220 891 q 198 890 203 888 q 190 891 193 891 q 168 901 180 892 m 180 24 q 163 -14 180 -1 q 126 -27 146 -27 q 89 -14 106 -27 q 72 24 72 -1 q 71 204 72 114 q 71 385 69 294 q 82 564 73 475 q 113 741 91 652 q 138 774 118 766 q 176 777 157 783 q 208 755 195 772 q 216 712 221 738 q 187 542 195 628 q 177 370 179 456 q 178 197 175 283 q 180 24 180 110 z "},"¬":{"ha":731,"x_min":23,"x_max":690,"o":"m 582 350 q 461 355 525 353 q 334 359 397 358 q 209 358 270 361 q 96 346 148 355 q 55 351 73 342 q 30 382 37 359 q 34 425 23 403 q 68 449 45 446 q 203 463 130 460 q 352 465 277 467 q 500 460 427 464 q 636 456 574 457 q 672 442 659 454 q 688 412 685 430 q 689 399 689 408 q 688 326 690 353 q 683 277 686 300 q 677 227 680 254 q 674 155 674 201 q 657 115 674 127 q 620 102 640 102 q 583 115 600 102 q 566 155 566 127 q 568 218 566 193 q 574 262 571 243 q 578 302 576 282 q 582 350 581 321 z "},"«":{"ha":624,"x_min":-3,"x_max":597,"o":"m 118 264 q 201 184 157 222 q 285 106 244 146 q 300 65 302 87 q 283 29 297 43 q 247 12 269 15 q 208 28 225 9 q 110 120 160 76 q 16 216 60 164 q 2 240 7 227 q 3 269 -3 254 q 92 414 33 349 q 216 533 151 480 q 254 549 233 548 q 292 533 275 551 q 308 495 307 518 q 292 457 309 472 q 251 420 271 439 q 212 382 231 401 q 161 326 186 357 q 118 264 136 296 m 472 384 q 413 334 442 361 q 362 275 384 307 q 467 186 414 228 q 571 100 519 145 q 589 62 591 83 q 572 26 586 41 q 536 9 557 12 q 495 23 514 5 q 375 122 437 75 q 258 227 313 170 q 242 258 243 241 q 248 292 241 274 q 314 387 271 345 q 400 465 357 430 q 457 507 429 487 q 515 547 486 528 q 557 553 537 560 q 587 528 576 545 q 594 488 597 510 q 570 453 591 467 q 519 420 544 438 q 472 384 495 403 z "},"»":{"ha":624,"x_min":26,"x_max":627,"o":"m 416 533 q 513 441 464 486 q 608 346 563 397 q 622 321 617 335 q 621 294 627 308 q 532 148 591 214 q 408 28 473 81 q 370 13 391 14 q 331 28 349 12 q 315 67 316 43 q 331 106 313 91 q 412 179 373 140 q 463 236 437 206 q 506 297 488 266 q 423 377 467 339 q 339 457 380 415 q 323 497 320 476 q 341 532 327 518 q 376 549 355 547 q 416 533 397 552 m 366 336 q 382 304 381 321 q 374 270 382 288 q 309 174 351 217 q 222 96 267 132 q 167 54 195 75 q 109 15 138 34 q 66 9 85 1 q 36 34 46 16 q 28 73 26 52 q 53 109 31 95 q 104 141 80 123 q 152 178 129 159 q 211 229 182 202 q 260 288 240 255 q 157 375 210 334 q 52 463 103 416 q 35 500 33 480 q 51 535 37 521 q 87 553 65 549 q 129 538 109 556 q 249 439 187 487 q 366 336 311 392 z "},"…":{"ha":610,"x_min":24,"x_max":587,"o":"m 134 95 q 161 62 152 84 q 164 22 171 41 q 137 -12 156 -1 q 99 -28 122 -28 q 61 -12 76 -27 q 35 15 41 4 q 29 53 24 34 q 50 85 34 72 q 57 92 53 88 q 65 98 61 95 q 79 103 77 103 q 95 106 81 103 q 111 103 106 106 q 134 95 125 100 m 343 95 q 370 62 361 84 q 373 22 380 41 q 346 -12 365 -1 q 308 -28 331 -28 q 270 -12 285 -27 q 244 15 250 4 q 238 53 233 34 q 259 85 243 72 q 266 92 262 88 q 274 98 270 95 q 288 103 286 103 q 304 106 290 103 q 320 103 315 106 q 343 95 334 100 m 551 95 q 578 62 568 84 q 581 22 587 41 q 553 -12 572 -1 q 515 -28 538 -28 q 477 -12 492 -27 q 452 15 457 4 q 446 53 441 34 q 467 85 450 72 q 473 92 469 88 q 481 98 477 95 q 496 103 494 103 q 511 106 498 103 q 528 103 522 106 q 551 95 541 100 z "}," ":{"ha":430,"x_min":0,"x_max":0,"o":""},"À":{"ha":749,"x_min":42,"x_max":730,"o":"m 149 18 q 132 -21 149 -8 q 95 -34 115 -34 q 58 -21 75 -34 q 42 18 42 -8 q 66 221 42 123 q 127 415 91 319 q 122 454 118 433 q 157 490 130 483 q 214 619 184 555 q 270 749 243 684 q 320 880 297 814 q 358 1016 343 947 q 375 1051 362 1036 q 411 1066 388 1066 q 450 1050 433 1066 q 465 1012 468 1035 q 468 867 461 933 q 488 737 475 802 q 519 608 502 673 q 551 480 536 544 q 578 358 566 419 q 617 240 590 297 q 646 185 631 212 q 678 132 661 159 q 708 81 694 107 q 727 23 722 54 q 721 -18 730 1 q 689 -43 712 -37 q 648 -38 670 -49 q 623 -5 627 -27 q 602 50 617 26 q 570 100 586 75 q 535 161 551 130 q 507 224 519 191 q 484 292 494 258 q 467 362 475 327 q 347 368 406 366 q 228 377 288 370 q 173 201 195 290 q 149 18 151 111 m 277 498 q 273 489 274 494 q 270 480 273 484 q 355 475 313 476 q 441 472 397 475 q 409 602 426 537 q 378 732 392 666 q 328 615 354 673 q 277 498 302 557 m 269 1364 q 357 1303 312 1331 q 452 1252 403 1276 q 478 1219 475 1240 q 471 1181 481 1199 q 439 1155 460 1164 q 396 1158 419 1146 q 193 1287 290 1213 q 176 1326 175 1302 q 193 1364 178 1350 q 231 1380 210 1382 q 269 1364 251 1378 z "},"Ã":{"ha":749,"x_min":42,"x_max":730,"o":"m 149 18 q 132 -21 149 -8 q 95 -34 115 -34 q 58 -21 75 -34 q 42 18 42 -8 q 66 221 42 123 q 127 415 91 319 q 122 454 118 433 q 157 490 130 483 q 214 619 184 555 q 270 749 243 684 q 320 880 297 814 q 358 1016 343 947 q 375 1051 362 1036 q 411 1066 388 1066 q 450 1050 433 1066 q 465 1012 468 1035 q 468 867 461 933 q 488 737 475 802 q 519 608 502 673 q 551 480 536 544 q 578 358 566 419 q 617 240 590 297 q 646 185 631 212 q 678 132 661 159 q 708 81 694 107 q 727 23 722 54 q 721 -18 730 1 q 689 -43 712 -37 q 648 -38 670 -49 q 623 -5 627 -27 q 602 50 617 26 q 570 100 586 75 q 535 161 551 130 q 507 224 519 191 q 484 292 494 258 q 467 362 475 327 q 347 368 406 366 q 228 377 288 370 q 173 201 195 290 q 149 18 151 111 m 277 498 q 273 489 274 494 q 270 480 273 484 q 355 475 313 476 q 441 472 397 475 q 409 602 426 537 q 378 732 392 666 q 328 615 354 673 q 277 498 302 557 m 553 1138 q 494 1132 525 1127 q 439 1156 464 1137 q 403 1189 420 1171 q 361 1211 385 1207 q 317 1203 338 1215 q 281 1176 296 1191 q 241 1160 262 1157 q 205 1177 220 1162 q 188 1212 191 1191 q 203 1252 184 1233 q 255 1291 227 1275 q 315 1315 283 1308 q 379 1318 347 1322 q 441 1295 411 1313 q 486 1257 467 1278 q 498 1246 492 1251 q 510 1238 503 1241 q 526 1243 518 1237 q 543 1258 534 1249 q 557 1277 551 1267 q 568 1293 564 1287 q 606 1309 583 1310 q 644 1293 629 1308 q 661 1255 662 1276 q 644 1217 659 1234 q 605 1171 625 1194 q 553 1138 585 1149 z "},"Õ":{"ha":758,"x_min":5,"x_max":741,"o":"m 203 66 q 147 119 172 90 q 102 180 122 148 q 65 241 83 209 q 34 308 47 274 q 13 377 20 342 q 8 448 5 412 q 22 584 12 517 q 50 716 33 651 q 64 770 56 741 q 85 828 72 800 q 115 879 98 856 q 160 914 133 902 q 241 927 201 932 q 321 905 282 922 q 395 862 359 887 q 461 812 430 837 q 517 764 490 789 q 575 716 545 739 q 646 654 610 685 q 705 582 682 623 q 736 489 732 536 q 730 397 741 442 q 696 308 719 351 q 646 224 673 264 q 589 149 621 189 q 519 77 557 110 q 436 26 480 45 q 343 12 392 7 q 301 34 315 16 q 251 45 275 38 q 203 66 227 52 m 117 457 q 120 395 114 423 q 141 331 126 366 q 183 252 160 292 q 237 179 206 212 q 300 142 264 149 q 345 135 323 138 q 388 125 366 132 q 404 131 396 127 q 420 141 412 134 q 463 174 444 156 q 499 210 481 191 q 565 293 533 248 q 616 385 597 338 q 631 475 635 433 q 591 556 627 517 q 520 623 559 593 q 445 685 481 654 q 384 736 414 712 q 319 783 354 761 q 255 815 286 804 q 248 817 251 817 q 240 819 244 818 l 220 821 q 206 815 209 818 q 195 804 197 804 q 183 781 186 788 q 175 760 180 774 q 152 680 161 720 q 136 601 142 640 q 124 529 129 562 q 117 457 119 496 m 511 998 q 452 992 483 987 q 397 1016 422 997 q 361 1049 378 1031 q 319 1072 343 1067 q 275 1063 296 1076 q 239 1036 254 1051 q 199 1020 220 1017 q 163 1037 178 1023 q 146 1072 149 1051 q 161 1112 142 1093 q 213 1152 184 1135 q 273 1175 241 1168 q 337 1178 305 1183 q 399 1156 369 1173 q 444 1118 425 1138 q 456 1106 450 1111 q 468 1099 461 1101 q 484 1103 476 1097 q 500 1118 492 1109 q 515 1137 509 1127 q 526 1153 522 1147 q 564 1169 541 1171 q 602 1153 587 1168 q 618 1116 620 1137 q 602 1077 617 1095 q 563 1031 583 1054 q 511 998 543 1009 z "},"Œ":{"ha":1012,"x_min":27,"x_max":998,"o":"m 376 -20 q 291 -4 334 -15 q 209 24 248 7 q 135 68 170 42 q 75 130 100 94 q 39 206 49 167 q 28 286 28 245 q 33 369 27 327 q 46 452 39 411 q 84 612 61 533 q 152 762 107 692 q 282 905 205 848 q 454 994 359 962 q 500 1010 481 1006 q 540 1015 519 1013 q 611 1017 575 1017 q 682 1016 647 1017 q 814 1008 749 1013 q 945 1002 880 1004 q 985 985 971 1002 q 998 948 998 968 q 985 911 998 928 q 945 894 971 894 q 904 896 925 895 q 863 898 883 897 q 710 908 785 903 q 559 909 635 913 q 545 907 552 907 q 532 906 538 907 q 521 884 521 891 q 521 869 521 876 q 525 802 521 836 q 545 682 532 745 q 568 557 557 620 q 699 570 635 560 q 829 585 764 581 q 867 570 852 587 q 883 530 883 552 q 867 493 883 507 q 829 477 852 479 q 707 463 768 472 q 583 450 646 453 q 588 375 586 412 q 594 301 590 338 l 610 98 q 741 121 677 109 q 872 145 806 134 q 913 140 894 149 q 939 107 932 130 q 933 66 944 88 q 901 41 922 45 q 751 14 825 28 q 601 -12 677 -1 q 566 -24 586 -24 q 552 -27 557 -27 q 464 -28 509 -30 q 376 -20 419 -27 m 142 373 q 134 300 136 335 q 144 232 133 266 q 171 181 152 205 q 216 142 190 157 q 352 91 277 103 q 503 80 427 79 q 491 234 498 157 q 479 388 484 311 q 475 435 476 412 q 471 480 473 457 q 467 519 461 502 q 465 531 465 526 q 463 543 464 536 q 448 614 454 578 q 434 686 441 651 q 421 767 427 727 q 414 848 415 807 q 225 674 290 796 q 172 528 190 605 q 142 373 155 450 z "},"œ":{"ha":1195,"x_min":35,"x_max":1165,"o":"m 1133 222 q 1158 189 1150 212 q 1152 148 1165 167 q 1059 58 1112 95 q 936 18 1005 20 q 828 37 879 15 q 738 98 777 60 q 678 173 703 132 q 642 260 654 214 q 514 171 581 206 q 374 117 448 136 q 310 102 343 109 q 243 96 277 96 q 176 104 209 96 q 115 129 144 111 q 91 161 95 141 q 73 205 83 184 q 55 247 64 225 q 41 290 46 269 q 35 335 35 312 q 55 422 35 381 q 109 495 75 464 q 240 582 165 549 q 392 625 315 614 q 474 629 431 631 q 557 617 517 628 q 631 585 597 606 q 689 529 666 563 q 750 591 715 564 q 826 632 785 617 q 910 648 867 647 q 997 631 954 648 q 1072 587 1039 614 q 1124 515 1105 559 q 1143 445 1139 483 q 1123 376 1146 407 q 1074 332 1103 347 q 1010 311 1044 317 q 942 304 977 304 q 878 305 907 304 q 808 311 842 307 q 738 319 773 315 q 781 210 749 258 q 869 138 814 163 q 886 132 882 133 q 892 130 890 132 q 906 127 903 127 q 926 125 918 126 q 940 126 933 125 q 953 128 949 127 q 960 130 956 129 q 987 140 975 134 q 1015 157 998 145 q 1036 178 1021 164 q 1058 202 1050 191 q 1091 228 1072 221 q 1133 222 1111 235 m 848 526 q 792 485 817 511 q 753 426 768 458 q 818 418 785 422 q 883 412 850 414 q 918 412 901 412 q 954 414 935 412 q 964 414 959 414 q 974 415 968 415 q 1005 422 994 419 q 1012 424 1008 423 q 1019 426 1016 425 q 1027 430 1025 429 q 1031 433 1028 431 q 1034 449 1035 448 q 1028 468 1031 463 q 1022 480 1027 472 q 1013 494 1017 488 q 994 512 1006 503 q 967 528 982 521 q 907 538 941 538 q 848 526 872 538 m 614 431 q 613 439 613 437 q 612 445 613 442 q 604 459 608 454 q 597 469 601 464 q 593 473 598 468 q 587 480 589 479 l 576 491 q 562 500 570 495 q 545 509 553 506 q 467 522 509 522 q 377 513 422 524 q 292 486 332 503 q 214 444 254 471 q 155 380 174 418 q 144 338 144 359 q 151 296 145 317 q 168 254 157 275 q 186 213 178 233 q 213 208 208 208 q 220 206 216 206 q 227 206 224 206 q 275 208 254 203 q 313 213 290 208 q 381 231 349 220 q 441 256 414 243 q 502 289 472 271 q 552 326 532 307 q 578 351 566 338 q 587 362 585 358 q 598 376 594 372 q 605 388 602 381 l 612 407 l 614 420 l 614 431 z "},"–":{"ha":647,"x_min":23,"x_max":620,"o":"m 567 456 q 606 437 593 454 q 620 400 620 420 q 606 363 620 380 q 567 347 593 347 q 450 353 509 349 q 332 359 391 357 q 214 358 273 361 q 96 346 155 355 q 55 351 73 342 q 30 382 37 359 q 34 425 23 403 q 68 449 45 446 q 193 463 130 460 q 317 465 255 467 q 442 460 380 464 q 567 456 505 457 z "},"—":{"ha":1202,"x_min":27,"x_max":1175,"o":"m 1122 454 q 1161 437 1147 454 q 1175 399 1175 419 q 1161 362 1175 378 q 1122 346 1147 346 q 861 351 991 347 q 601 357 731 355 q 341 355 471 358 q 81 342 212 353 q 43 357 60 339 q 27 396 27 374 q 43 433 27 419 q 81 450 60 448 q 341 464 212 461 q 601 465 471 467 q 861 459 731 463 q 1122 454 991 456 z "},"“":{"ha":411,"x_min":26,"x_max":387,"o":"m 292 1010 q 330 1027 309 1029 q 366 1010 351 1024 q 383 974 380 996 q 369 933 387 952 q 349 895 357 920 q 338 846 340 869 q 345 753 330 795 q 341 711 353 728 q 310 689 330 694 q 269 692 290 684 q 240 724 248 700 q 226 796 228 757 q 231 874 224 836 q 252 949 237 913 q 292 1010 267 985 m 157 985 q 174 947 175 968 q 157 909 172 926 q 156 905 160 913 q 151 895 152 897 q 149 886 151 894 q 145 876 146 879 q 140 850 142 863 q 138 825 138 838 q 137 799 137 812 q 140 773 137 785 q 142 760 141 766 q 144 746 142 753 q 149 736 145 745 q 149 731 152 727 q 155 690 159 711 q 130 658 151 670 q 88 652 111 647 q 56 677 65 656 q 33 753 39 712 q 28 835 26 793 q 44 915 31 876 q 81 985 57 954 q 119 1002 95 1004 q 157 985 142 1000 z "},"”":{"ha":450,"x_min":26,"x_max":410,"o":"m 140 1005 q 180 1001 159 1012 q 206 967 202 990 q 210 892 213 930 q 194 817 206 853 q 166 747 183 781 q 121 690 149 713 q 82 674 103 675 q 43 690 61 673 q 27 728 28 705 q 43 766 26 751 q 73 802 62 781 q 91 846 84 822 q 97 871 94 859 q 102 897 100 883 q 102 910 102 903 q 103 924 103 917 l 102 939 q 107 980 98 962 q 140 1005 117 998 m 294 945 q 300 987 288 970 q 332 1009 313 1004 q 372 1006 351 1015 q 399 974 392 998 q 409 899 408 940 q 401 819 410 859 q 376 744 393 780 q 332 684 358 708 q 292 668 313 665 q 256 686 270 671 q 239 721 241 700 q 255 760 236 742 q 280 798 270 774 q 296 848 290 822 q 300 901 301 875 q 294 945 300 926 z "},"‘":{"ha":214,"x_min":26,"x_max":175,"o":"m 157 985 q 174 947 175 968 q 157 909 172 926 q 156 905 160 913 q 151 895 152 897 q 149 886 151 894 q 145 876 146 879 q 140 850 142 863 q 138 825 138 838 q 137 799 137 812 q 140 773 137 785 q 142 760 141 766 q 144 746 142 753 q 149 736 145 745 q 149 731 152 727 q 155 690 159 711 q 130 658 151 670 q 88 652 111 647 q 56 677 65 656 q 33 753 39 712 q 28 835 26 793 q 44 915 31 876 q 81 985 57 954 q 119 1002 95 1004 q 157 985 142 1000 z "},"’":{"ha":252,"x_min":26,"x_max":213,"o":"m 140 1005 q 180 1001 159 1012 q 206 967 202 990 q 210 892 213 930 q 194 817 206 853 q 166 747 183 781 q 121 690 149 713 q 82 674 103 675 q 43 690 61 673 q 27 728 28 705 q 43 766 26 751 q 73 802 62 781 q 91 846 84 822 q 97 871 94 859 q 102 897 100 883 q 102 910 102 903 q 103 924 103 917 l 102 939 q 107 980 98 962 q 140 1005 117 998 z "},"÷":{"ha":762,"x_min":27,"x_max":734,"o":"m 671 544 q 718 522 703 543 q 734 477 734 502 q 718 433 734 453 q 671 415 703 414 q 532 421 602 416 q 391 428 461 426 q 250 427 320 430 q 110 412 179 425 q 60 418 83 407 q 30 457 37 430 q 28 482 27 469 q 36 507 30 495 q 52 526 42 518 q 75 537 62 534 q 224 554 149 551 q 373 556 298 557 q 522 550 448 555 q 671 544 597 545 m 355 703 q 331 726 339 711 q 323 772 317 749 q 349 811 330 796 q 357 819 353 815 q 368 826 361 823 q 384 832 381 831 q 401 834 387 833 q 413 834 407 836 q 422 833 419 833 q 435 828 429 831 q 449 822 442 825 q 481 784 469 810 q 484 735 492 758 q 453 694 476 709 q 408 676 435 675 q 362 694 380 677 l 355 703 m 449 313 q 481 275 469 301 q 484 227 492 250 q 453 186 476 201 q 408 168 435 167 q 362 186 380 168 q 331 218 339 202 q 323 264 317 240 q 349 302 330 288 q 357 311 353 307 q 368 317 361 315 q 384 323 381 323 q 401 327 387 324 q 413 326 407 327 q 422 324 419 324 q 435 319 429 323 q 449 313 442 316 z "},"ÿ":{"ha":609,"x_min":15,"x_max":608,"o":"m 575 610 q 601 578 594 600 q 594 537 608 556 q 543 430 560 488 q 505 316 526 372 q 454 201 481 256 q 395 88 426 145 q 389 77 392 81 q 382 65 385 72 q 376 26 388 43 q 346 3 365 9 q 234 -185 290 -92 q 122 -373 178 -278 q 87 -399 109 -396 q 49 -391 66 -401 q 23 -361 31 -381 q 28 -319 15 -342 q 144 -125 85 -221 q 259 68 202 -30 q 142 290 198 178 q 28 513 87 401 q 25 555 16 536 q 51 585 34 575 q 89 593 68 595 q 122 567 110 590 q 221 372 172 469 q 321 179 270 275 q 411 373 372 271 q 450 486 431 429 q 502 591 468 544 q 534 616 514 610 q 575 610 555 623 m 263 814 q 278 787 275 804 q 281 770 281 776 q 278 754 281 765 l 264 718 q 231 692 254 697 q 190 699 209 688 q 165 730 172 708 q 161 745 164 742 q 156 785 151 765 q 182 818 161 804 q 201 829 190 825 q 222 831 212 833 q 238 829 233 830 q 251 823 243 829 q 263 814 259 818 m 448 803 q 472 770 467 792 q 467 728 477 747 q 452 709 460 718 q 425 692 439 697 q 387 694 406 685 q 358 719 369 703 q 348 747 350 732 q 346 776 346 761 q 361 814 346 799 q 400 830 377 830 q 448 803 431 830 z "},"Ÿ":{"ha":540,"x_min":-99,"x_max":678,"o":"m -71 909 q -96 942 -94 921 q -89 981 -99 963 q -59 1006 -79 998 q -16 1002 -39 1015 q 103 907 56 964 q 182 776 151 849 q 222 682 202 728 q 273 597 241 636 q 363 693 323 640 q 439 804 404 746 q 507 921 475 861 q 571 1036 538 981 q 606 1061 585 1058 q 644 1053 627 1063 q 670 1023 662 1043 q 665 981 678 1004 q 595 859 629 921 q 523 738 560 798 q 443 623 486 678 q 349 521 400 568 q 341 276 343 397 q 349 31 339 155 q 332 -6 350 9 q 294 -22 315 -22 q 256 -6 271 -22 q 240 31 241 9 q 233 252 232 142 q 237 473 233 362 q 217 494 225 481 q 144 600 171 544 q 91 716 117 655 q 28 827 65 777 q -71 909 -9 876 m 235 1160 q 250 1133 247 1150 q 252 1116 252 1122 q 250 1100 252 1111 l 236 1063 q 203 1038 225 1043 q 161 1044 180 1034 q 137 1076 144 1054 q 133 1090 136 1088 q 127 1131 122 1111 q 153 1164 133 1150 q 172 1175 161 1171 q 194 1177 183 1179 q 210 1175 205 1176 q 222 1169 214 1175 q 235 1160 231 1164 m 419 1149 q 444 1116 438 1138 q 438 1074 449 1093 q 423 1055 431 1063 q 396 1038 411 1043 q 359 1040 377 1031 q 330 1065 340 1048 q 319 1093 321 1078 q 317 1122 317 1107 q 333 1160 317 1145 q 372 1176 349 1176 q 419 1149 403 1176 z "},"⁄":{"ha":800,"x_min":39,"x_max":764,"o":"m 755 956 q 696 807 731 879 q 623 665 662 735 q 553 543 589 602 q 475 427 518 483 q 385 328 433 376 q 292 230 338 279 q 208 127 247 180 q 141 12 168 75 q 109 -14 133 -8 q 68 -8 85 -19 q 43 25 46 4 q 47 66 39 46 q 115 183 75 129 q 199 287 155 237 q 292 385 244 336 q 382 484 339 433 q 459 593 426 536 q 525 711 492 651 q 595 844 562 777 q 651 985 628 911 q 679 1017 659 1009 q 718 1020 699 1025 q 751 998 738 1015 q 755 956 764 981 z "},"€":{"ha":853,"x_min":-14,"x_max":825,"o":"m 770 958 q 809 941 793 955 q 825 903 825 926 q 809 865 825 883 q 770 849 793 846 q 596 824 681 857 q 442 735 511 791 q 363 665 401 704 q 458 669 411 667 q 553 667 506 670 q 593 649 579 666 q 606 612 606 632 q 593 575 606 591 q 553 560 579 559 q 416 559 484 563 q 279 549 349 556 q 251 468 259 510 q 249 455 250 461 q 248 442 248 449 q 362 450 305 448 q 476 449 419 453 q 515 430 502 448 q 528 392 528 412 q 515 356 528 372 q 476 342 502 340 q 369 342 422 345 q 263 335 316 340 q 347 210 289 260 q 418 168 378 184 q 499 153 458 152 q 601 173 551 156 q 703 201 651 190 q 743 195 724 205 q 769 163 762 186 q 764 121 774 142 q 731 96 753 100 q 664 79 697 90 q 597 60 631 68 q 484 47 540 45 q 373 72 429 49 q 220 191 279 109 q 153 327 175 248 q 60 323 106 323 q 21 340 34 323 q 8 377 8 357 q 21 414 8 397 q 60 431 34 431 q 100 432 80 431 q 140 434 119 433 q 155 528 140 480 q 98 529 127 533 q 41 522 69 525 q 2 538 18 519 q -14 576 -14 556 q 2 614 -14 601 q 41 631 18 628 l 216 651 q 298 751 251 705 q 396 836 345 798 q 572 930 476 894 q 770 958 669 967 z "},"‹":{"ha":381,"x_min":0,"x_max":355,"o":"m 229 384 q 171 334 199 361 q 121 275 142 307 q 224 186 171 228 q 330 100 278 145 q 347 62 349 83 q 330 26 345 41 q 294 9 316 12 q 254 23 273 5 q 133 122 194 75 q 15 227 72 170 q 0 258 0 241 q 7 292 0 274 q 73 387 30 345 q 159 465 115 430 q 214 507 186 487 q 274 547 243 528 q 315 553 296 560 q 345 528 335 545 q 353 488 355 510 q 328 453 350 467 q 277 420 302 438 q 229 384 252 403 z "},"›":{"ha":381,"x_min":26,"x_max":382,"o":"m 366 336 q 382 304 381 321 q 374 270 382 288 q 309 174 351 217 q 222 96 267 132 q 167 54 195 75 q 109 15 138 34 q 66 9 85 1 q 36 34 46 16 q 28 73 26 52 q 53 109 31 95 q 104 141 80 123 q 152 178 129 159 q 210 229 182 202 q 260 288 239 255 q 157 375 210 334 q 52 463 103 416 q 35 500 33 480 q 51 535 37 521 q 87 553 65 549 q 129 538 109 556 q 249 439 187 487 q 366 336 311 392 z "},"ﬁ":{"ha":884,"x_min":-7,"x_max":787,"o":"m 452 11 q 446 -31 460 -11 q 414 -56 433 -50 q 373 -51 391 -62 q 347 -19 355 -39 q 332 20 339 0 q 317 58 324 39 q 252 259 279 157 q 206 467 224 361 q 45 471 126 473 q 6 486 19 469 q -7 522 -7 502 q 6 559 -7 543 q 45 578 19 576 q 118 579 81 581 q 191 575 155 578 q 184 671 186 623 q 188 768 182 720 q 210 860 194 815 q 254 945 225 905 q 312 1014 279 982 q 383 1067 345 1046 q 466 1097 422 1089 q 557 1095 510 1104 q 640 1060 604 1085 q 701 1000 675 1035 q 740 922 727 964 q 751 833 753 879 q 734 794 751 807 q 696 781 716 781 q 659 794 675 781 q 643 833 643 807 q 634 899 644 868 q 601 954 624 930 q 502 993 557 994 q 474 989 488 991 q 449 981 460 987 q 393 944 416 966 q 345 890 366 920 q 312 825 324 860 q 290 697 292 764 q 298 566 289 631 q 349 559 324 563 q 400 552 374 555 q 566 538 484 540 q 734 548 648 537 q 772 532 754 549 q 787 494 787 519 l 787 31 q 770 -7 787 5 q 733 -20 753 -20 q 696 -7 713 -20 q 680 31 680 5 l 680 434 q 530 431 604 427 q 380 446 456 435 q 348 450 363 449 q 317 454 332 452 q 375 224 342 331 q 452 11 408 117 z "},"ﬂ":{"ha":842,"x_min":-18,"x_max":774,"o":"m 316 -61 q 275 -56 293 -68 q 250 -23 258 -45 q 199 170 216 71 q 176 366 183 269 q 174 391 175 378 q 172 416 174 404 q 99 422 136 419 q 26 430 62 425 q -7 455 3 433 q -12 496 -18 477 q 14 528 -5 519 q 54 534 33 537 q 111 528 83 530 q 168 524 140 525 q 173 642 168 583 q 191 758 178 701 q 216 846 201 800 q 253 935 231 892 q 305 1013 275 978 q 376 1072 335 1048 q 452 1096 414 1093 q 526 1086 491 1099 q 593 1049 562 1074 q 650 991 625 1024 q 710 885 686 943 q 747 766 734 827 q 766 643 761 705 q 773 521 772 581 q 764 260 774 391 q 749 1 753 130 q 730 -39 747 -26 q 692 -52 712 -52 q 655 -39 671 -52 q 640 1 639 -26 q 653 207 644 103 q 665 414 662 311 q 659 621 667 518 q 618 823 651 723 q 581 904 605 864 q 521 971 556 944 q 503 983 513 978 q 480 990 494 987 l 463 990 q 448 987 450 987 q 442 985 445 986 q 430 978 431 978 q 417 970 418 971 q 414 967 416 968 l 397 952 q 374 924 384 939 q 354 892 365 910 q 317 808 332 852 q 293 719 301 764 q 280 622 283 671 q 277 521 277 572 q 403 523 340 521 q 528 525 465 525 q 567 508 553 525 q 581 471 581 491 q 567 433 581 450 q 528 416 553 416 q 404 415 465 416 q 281 415 342 414 l 285 358 q 308 180 293 269 q 354 5 323 91 q 349 -36 362 -16 q 316 -61 336 -56 z "},"·":{"ha":221,"x_min":38,"x_max":184,"o":"m 148 525 q 175 493 165 514 q 178 452 184 472 q 151 418 168 429 q 113 402 136 401 q 75 418 90 403 q 49 445 57 431 q 43 484 38 464 q 64 515 47 503 q 80 528 73 525 q 94 534 91 533 q 109 536 96 534 q 118 536 113 537 q 126 534 123 534 q 137 530 132 533 q 148 525 142 528 z "},"‚":{"ha":239,"x_min":26,"x_max":198,"o":"m 83 126 q 89 168 76 151 q 121 190 102 184 q 160 187 140 195 q 187 155 180 179 q 197 80 197 121 q 190 0 198 39 q 164 -75 182 -39 q 121 -136 146 -111 q 81 -152 102 -155 q 45 -135 60 -149 q 28 -100 31 -121 q 45 -60 26 -79 q 69 -22 60 -46 q 84 28 79 1 q 89 81 90 54 q 83 126 88 107 z "},"„":{"ha":450,"x_min":26,"x_max":410,"o":"m 140 186 q 180 181 159 191 q 206 148 202 171 q 210 73 213 111 q 194 -3 206 34 q 166 -73 183 -38 q 121 -130 149 -107 q 82 -145 103 -144 q 43 -130 61 -146 q 27 -92 28 -115 q 43 -53 26 -68 q 73 -18 62 -38 q 91 26 84 3 q 97 52 94 39 q 102 77 100 64 q 102 91 102 84 q 103 104 103 98 l 102 119 q 107 160 98 141 q 140 186 117 179 m 294 126 q 300 168 288 151 q 332 190 313 184 q 372 187 351 195 q 399 155 392 179 q 409 80 408 121 q 401 0 410 39 q 376 -75 393 -39 q 332 -136 358 -111 q 292 -152 313 -155 q 256 -135 270 -149 q 239 -100 241 -121 q 255 -60 236 -79 q 280 -22 270 -46 q 296 28 290 1 q 300 81 301 54 q 294 126 300 107 z "},"‰":{"ha":1322,"x_min":49,"x_max":1289,"o":"m 610 681 q 483 442 552 560 q 412 320 448 382 q 335 199 376 258 q 245 88 294 140 q 137 -3 197 37 q 96 -9 115 -18 q 66 16 76 -1 q 58 54 56 33 q 83 91 61 76 q 182 177 138 126 q 260 282 225 228 q 334 402 300 342 q 406 524 369 463 q 471 644 441 583 q 532 768 500 705 q 598 887 563 829 q 685 991 633 945 q 726 1006 704 1009 q 762 988 747 1002 q 779 954 777 974 q 762 916 781 933 q 675 806 709 868 q 610 681 642 745 m 600 444 q 681 459 640 464 q 756 433 722 454 q 815 376 791 411 q 849 301 840 342 q 857 226 857 266 q 846 149 857 186 q 814 79 836 111 q 757 30 792 47 q 675 12 718 11 q 594 30 633 14 q 515 83 547 49 q 475 170 483 118 q 473 180 473 179 q 472 184 472 182 q 480 265 472 228 q 505 337 488 302 q 545 400 521 372 q 600 444 568 429 m 712 130 q 748 201 741 157 q 741 288 755 245 q 739 296 738 297 q 734 304 739 294 q 727 315 732 305 q 726 319 722 324 q 707 337 716 330 q 684 350 697 345 q 669 353 677 353 q 659 353 662 354 q 650 348 656 351 q 637 339 643 345 q 610 303 623 324 q 591 260 598 282 q 587 248 589 254 q 585 235 586 241 q 582 223 583 232 q 581 217 581 214 q 581 190 579 203 q 587 166 583 178 q 600 148 591 155 q 618 136 606 141 q 642 127 629 130 q 667 120 658 122 q 692 121 677 118 q 709 129 704 126 q 712 130 713 132 m 258 1008 q 305 994 282 1004 q 347 967 328 983 q 381 930 366 951 q 404 886 396 909 q 416 800 418 845 q 404 715 415 755 q 374 635 393 674 q 320 570 355 597 q 249 538 290 547 q 171 536 208 529 q 113 562 137 541 q 75 609 90 582 q 55 669 61 636 q 49 731 49 701 q 62 846 49 788 q 109 949 75 903 l 118 962 q 258 1008 175 1023 m 307 776 q 308 809 308 791 q 305 836 308 827 q 301 856 302 850 q 290 871 300 861 q 242 901 267 894 q 194 884 217 907 q 184 869 184 872 q 180 863 183 865 q 178 854 180 861 q 175 845 175 848 q 172 835 172 840 q 168 823 171 830 q 165 810 167 817 q 163 798 164 804 q 160 786 161 795 q 160 780 159 777 q 157 758 157 769 q 157 735 157 746 l 157 708 q 161 685 160 690 q 164 674 163 680 q 173 657 170 662 q 176 651 176 652 q 190 642 189 643 q 194 642 191 642 q 208 642 201 639 q 226 646 220 644 q 239 650 232 647 q 259 659 250 652 q 294 720 283 692 q 307 776 304 749 m 1031 444 q 1112 459 1072 464 q 1187 433 1153 454 q 1246 376 1221 411 q 1280 301 1271 342 q 1288 226 1289 266 q 1277 149 1287 186 q 1244 79 1267 111 q 1187 30 1222 47 q 1106 12 1147 11 q 1024 30 1065 14 q 945 83 977 49 q 905 170 913 118 q 903 184 903 179 q 910 265 902 228 q 935 337 918 302 q 975 400 951 372 q 1031 444 1000 429 m 1143 130 q 1179 201 1171 157 q 1172 288 1187 245 q 1168 296 1168 297 q 1165 304 1169 294 q 1157 315 1162 305 q 1156 319 1152 324 q 1115 350 1138 340 q 1101 353 1108 353 q 1090 353 1093 354 q 1080 348 1088 351 q 1067 339 1073 345 q 1040 303 1053 324 q 1021 260 1028 282 q 1018 248 1019 254 q 1015 235 1017 241 q 1013 223 1015 232 q 1012 217 1010 214 q 1010 203 1010 210 q 1010 190 1010 197 q 1017 166 1013 178 q 1029 148 1021 155 q 1072 127 1046 134 q 1098 120 1089 122 q 1122 121 1107 118 q 1139 129 1134 126 q 1143 130 1143 132 z "},"Â":{"ha":749,"x_min":42,"x_max":730,"o":"m 149 18 q 132 -21 149 -8 q 95 -34 115 -34 q 58 -21 75 -34 q 42 18 42 -8 q 66 221 42 123 q 127 415 91 319 q 122 454 118 433 q 157 490 130 483 q 214 619 184 555 q 270 749 243 684 q 320 880 297 814 q 358 1016 343 947 q 375 1051 362 1036 q 411 1066 388 1066 q 450 1050 433 1066 q 465 1012 468 1035 q 468 867 461 933 q 488 737 475 802 q 519 608 502 673 q 551 480 536 544 q 578 358 566 419 q 617 240 590 297 q 646 185 631 212 q 678 132 661 159 q 708 81 694 107 q 727 23 722 54 q 721 -18 730 1 q 689 -43 712 -37 q 648 -38 670 -49 q 623 -5 627 -27 q 602 50 617 26 q 570 100 586 75 q 535 161 551 130 q 507 224 519 191 q 484 292 494 258 q 467 362 475 327 q 347 368 406 366 q 228 377 288 370 q 173 201 195 290 q 149 18 151 111 m 277 498 q 273 489 274 494 q 270 480 273 484 q 355 475 313 476 q 441 472 397 475 q 409 602 426 537 q 378 732 392 666 q 328 615 354 673 q 277 498 302 557 m 594 1210 q 610 1171 612 1195 q 594 1133 609 1147 q 557 1118 578 1116 q 518 1133 536 1119 q 465 1181 490 1156 q 411 1229 439 1206 q 355 1183 382 1206 q 301 1134 328 1160 q 260 1119 282 1116 q 224 1136 239 1122 q 208 1171 210 1150 q 225 1211 206 1192 q 301 1279 262 1246 q 384 1341 340 1312 q 410 1348 395 1348 q 438 1341 426 1348 q 519 1278 483 1314 q 594 1210 555 1241 z "},"Ê":{"ha":705,"x_min":23,"x_max":651,"o":"m 62 817 q 30 852 35 825 q 34 893 23 871 q 68 918 45 916 q 332 941 199 939 q 597 944 464 943 q 636 928 623 944 q 650 891 650 911 q 636 854 650 871 q 597 837 623 837 q 384 834 491 834 q 170 823 277 834 q 176 715 172 769 q 184 608 180 662 q 390 621 288 613 q 595 624 492 629 q 635 605 621 623 q 648 567 648 587 q 635 530 648 547 q 595 515 621 514 q 394 513 494 521 q 193 499 294 505 q 208 304 201 401 q 218 110 216 208 q 315 131 266 121 q 412 147 363 141 q 510 153 461 153 q 608 145 559 153 q 640 119 629 141 q 646 79 651 98 q 620 46 639 56 q 578 41 601 37 q 490 46 534 49 q 401 37 445 43 q 302 18 351 28 q 203 -5 252 7 q 160 3 180 -11 q 126 18 141 5 q 111 54 111 30 q 101 282 109 170 q 84 509 94 395 q 67 546 69 524 q 79 585 65 568 q 62 817 68 700 m 526 1139 q 543 1101 544 1124 q 526 1062 541 1077 q 489 1047 510 1046 q 450 1062 468 1048 q 397 1110 422 1085 q 343 1158 372 1135 q 288 1112 315 1135 q 233 1063 260 1089 q 193 1048 214 1046 q 157 1065 171 1051 q 140 1101 142 1080 q 157 1141 138 1122 q 233 1208 194 1176 q 316 1271 273 1241 q 342 1278 327 1278 q 370 1271 358 1278 q 451 1207 415 1244 q 526 1139 487 1171 z "},"Á":{"ha":749,"x_min":42,"x_max":730,"o":"m 149 18 q 132 -21 149 -8 q 95 -34 115 -34 q 58 -21 75 -34 q 42 18 42 -8 q 66 221 42 123 q 127 415 91 319 q 122 454 118 433 q 157 490 130 483 q 214 619 184 555 q 270 749 243 684 q 320 880 297 814 q 358 1016 343 947 q 375 1051 362 1036 q 411 1066 388 1066 q 450 1050 433 1066 q 465 1012 468 1035 q 468 867 461 933 q 488 737 475 802 q 519 608 502 673 q 551 480 536 544 q 578 358 566 419 q 617 240 590 297 q 646 185 631 212 q 678 132 661 159 q 708 81 694 107 q 727 23 722 54 q 721 -18 730 1 q 689 -43 712 -37 q 648 -38 670 -49 q 623 -5 627 -27 q 602 50 617 26 q 570 100 586 75 q 535 161 551 130 q 507 224 519 191 q 484 292 494 258 q 467 362 475 327 q 347 368 406 366 q 228 377 288 370 q 173 201 195 290 q 149 18 151 111 m 277 498 q 273 489 274 494 q 270 480 273 484 q 355 475 313 476 q 441 472 397 475 q 409 602 426 537 q 378 732 392 666 q 328 615 354 673 q 277 498 302 557 m 566 1364 q 604 1380 583 1378 q 642 1364 624 1382 q 658 1326 656 1350 q 642 1287 659 1302 q 438 1158 544 1213 q 395 1155 415 1146 q 364 1181 374 1164 q 357 1219 354 1199 q 382 1252 359 1240 q 477 1303 431 1276 q 566 1364 522 1331 z "},"Ë":{"ha":705,"x_min":23,"x_max":651,"o":"m 62 817 q 30 852 35 825 q 34 893 23 871 q 68 918 45 916 q 332 941 199 939 q 597 944 464 943 q 636 928 623 944 q 650 891 650 911 q 636 854 650 871 q 597 837 623 837 q 384 834 491 834 q 170 823 277 834 q 176 715 172 769 q 184 608 180 662 q 390 621 288 613 q 595 624 492 629 q 635 605 621 623 q 648 567 648 587 q 635 530 648 547 q 595 515 621 514 q 394 513 494 521 q 193 499 294 505 q 208 304 201 401 q 218 110 216 208 q 315 131 266 121 q 412 147 363 141 q 510 153 461 153 q 608 145 559 153 q 640 119 629 141 q 646 79 651 98 q 620 46 639 56 q 578 41 601 37 q 490 46 534 49 q 401 37 445 43 q 302 18 351 28 q 203 -5 252 7 q 160 3 180 -11 q 126 18 141 5 q 111 54 111 30 q 101 282 109 170 q 84 509 94 395 q 67 546 69 524 q 79 585 65 568 q 62 817 68 700 m 290 1175 q 305 1147 302 1165 q 308 1131 308 1137 q 305 1115 308 1126 l 292 1078 q 258 1053 281 1058 q 217 1059 236 1048 q 193 1090 199 1069 q 189 1105 191 1103 q 183 1146 178 1126 q 209 1179 189 1165 q 228 1190 217 1185 q 250 1192 239 1194 q 265 1190 260 1191 q 278 1184 270 1190 q 290 1175 286 1179 m 475 1164 q 499 1131 494 1153 q 494 1089 505 1108 q 479 1070 487 1078 q 452 1053 467 1058 q 414 1055 433 1046 q 385 1080 396 1063 q 375 1107 377 1093 q 373 1137 373 1122 q 389 1175 373 1160 q 427 1191 404 1191 q 475 1164 458 1191 z "},"È":{"ha":705,"x_min":23,"x_max":651,"o":"m 62 817 q 30 852 35 825 q 34 893 23 871 q 68 918 45 916 q 332 941 199 939 q 597 944 464 943 q 636 928 623 944 q 650 891 650 911 q 636 854 650 871 q 597 837 623 837 q 384 834 491 834 q 170 823 277 834 q 176 715 172 769 q 184 608 180 662 q 390 621 288 613 q 595 624 492 629 q 635 605 621 623 q 648 567 648 587 q 635 530 648 547 q 595 515 621 514 q 394 513 494 521 q 193 499 294 505 q 208 304 201 401 q 218 110 216 208 q 315 131 266 121 q 412 147 363 141 q 510 153 461 153 q 608 145 559 153 q 640 119 629 141 q 646 79 651 98 q 620 46 639 56 q 578 41 601 37 q 490 46 534 49 q 401 37 445 43 q 302 18 351 28 q 203 -5 252 7 q 160 3 180 -11 q 126 18 141 5 q 111 54 111 30 q 101 282 109 170 q 84 509 94 395 q 67 546 69 524 q 79 585 65 568 q 62 817 68 700 m 255 1240 q 344 1179 298 1206 q 438 1127 389 1152 q 465 1095 461 1115 q 457 1057 468 1074 q 426 1030 446 1039 q 382 1034 406 1021 q 179 1162 277 1088 q 163 1201 161 1177 q 179 1240 164 1225 q 217 1255 197 1257 q 255 1240 237 1253 z "},"Í":{"ha":617,"x_min":-16,"x_max":636,"o":"m 24 0 q -8 27 0 7 q -11 66 -16 47 q 12 98 -5 85 q 53 104 28 111 q 161 84 107 88 q 273 83 216 80 q 250 276 250 179 q 257 470 250 373 q 272 665 264 567 q 273 860 279 762 q 169 865 221 861 q 65 875 117 868 q 26 891 42 878 q 11 928 11 905 q 26 966 11 948 q 65 982 42 985 q 191 970 127 975 q 316 967 254 966 q 440 978 378 968 q 563 1009 502 987 q 603 1004 583 1016 q 629 971 623 991 q 625 930 636 948 q 591 905 613 911 q 380 863 490 869 q 380 669 388 766 q 363 475 372 571 q 356 282 355 378 q 381 91 357 186 q 467 99 425 95 q 551 106 509 103 q 589 92 576 107 q 602 56 602 76 q 589 18 602 35 q 551 -1 576 0 q 418 -13 484 -5 q 287 -24 353 -20 q 155 -23 221 -27 q 24 0 90 -19 m 441 1282 q 479 1297 458 1295 q 517 1282 499 1299 q 533 1243 532 1267 q 517 1204 534 1219 q 313 1076 419 1130 q 270 1072 290 1063 q 239 1099 250 1081 q 232 1137 229 1116 q 258 1169 235 1157 q 352 1221 307 1194 q 441 1282 397 1248 z "}}}
